<?xml version="1.0" encoding="UTF-8"?>
<svg width="102px" height="59px" viewBox="0 0 102 59" version="1.1" xmlns="http://www.w3.org/2000/svg" xmlns:xlink="http://www.w3.org/1999/xlink">
    <!-- Generator: sketchtool 49.2 (51160) - http://www.bohemiancoding.com/sketch -->
    <title>D567C6B5-E98B-4358-92C9-83B2BA7DCD80@1x</title>
    <desc>Created with sketchtool.</desc>
    <defs></defs>
    <g id="Web" stroke="none" stroke-width="1" fill="none" fill-rule="evenodd">
        <g id="About-Yevhen" transform="translate(-238.000000, -95.000000)">
            <g id="Group-2" transform="translate(240.000000, 96.000000)">
                <g id="Group" transform="translate(90.742614, 27.877473) rotate(6.000000) translate(-90.742614, -27.877473) translate(85.742614, 1.377473)" fill="#4A4A4A" stroke="#4A4A4A" stroke-width="5">
                    <path d="M2.0939831,2.71865772 C2.0939831,1.95185299 2.40331334,1.30704959 3.0219831,0.784228188 C3.64065286,0.261406782 4.41931174,0 5.3579831,0 C6.29665446,0 7.07531334,0.261406782 7.6939831,0.784228188 C8.31265286,1.30704959 8.6219831,1.95185299 8.6219831,2.71865772 L8.6219831,28.4936242 C8.6219831,29.2255741 8.29131974,29.8529504 7.6299831,30.3757718 C6.96864646,30.8985932 6.2113207,31.16 5.3579831,31.16 C4.46197862,31.16 3.6939863,30.8985932 3.0539831,30.3757718 C2.4139799,29.8529504 2.0939831,29.2255741 2.0939831,28.4936242 L2.0939831,2.71865772 Z" id="Path"></path>
                    <path d="M5.3579831,44.104 C6.55265574,44.104 7.58731206,44.541329 8.4619831,45.416 C9.33665414,46.290671 9.7739831,47.3466605 9.7739831,48.584 C9.7739831,49.8213395 9.33665414,50.8666624 8.4619831,51.72 C7.58731206,52.5733376 6.55265574,53 5.3579831,53 C4.16331046,53 3.12865414,52.5733376 2.2539831,51.72 C1.37931206,50.8666624 0.941983103,49.8213395 0.941983103,48.584 C0.941983103,47.3466605 1.37931206,46.290671 2.2539831,45.416 C3.12865414,44.541329 4.16331046,44.104 5.3579831,44.104 Z" id="Path"></path>
                </g>
                <path d="M62.408,4 C67.3146912,4 71.6986474,5.08798912 75.56,7.264 C79.4213526,9.44001088 82.4293226,12.4693139 84.584,16.352 C86.7386774,20.2346861 87.816,24.6506419 87.816,29.6 C87.816,34.5493581 86.7386774,38.9759805 84.584,42.88 C82.4293226,46.7840195 79.4320192,49.8239891 75.592,52 C71.7519808,54.1760109 67.3573581,55.264 62.408,55.264 C57.4586419,55.264 53.0533526,54.1760109 49.192,52 C45.3306474,49.8239891 42.333344,46.7840195 40.2,42.88 C38.066656,38.9759805 37,34.5493581 37,29.6 C37,24.6506419 38.066656,20.2346861 40.2,16.352 C42.333344,12.4693139 45.3306474,9.44001088 49.192,7.264 C53.0533526,5.08798912 57.4586419,4 62.408,4 Z M62.408,10.016 C58.7386483,10.016 55.4640144,10.8693248 52.584,12.576 C49.7039856,14.2826752 47.4533414,16.6293184 45.832,19.616 C44.2106586,22.6026816 43.4,25.9306483 43.4,29.6 C43.4,33.2693517 44.2106586,36.5973184 45.832,39.584 C47.4533414,42.5706816 49.7146522,44.9279914 52.616,46.656 C55.5173478,48.3840086 58.7813152,49.248 62.408,49.248 C66.0346848,49.248 69.2986522,48.3840086 72.2,46.656 C75.1013478,44.9279914 77.3626586,42.5706816 78.984,39.584 C80.6053414,36.5973184 81.416,33.2693517 81.416,29.6 C81.416,25.9306483 80.6053414,22.6026816 78.984,19.616 C77.3626586,16.6293184 75.1120144,14.2826752 72.232,12.576 C69.3519856,10.8693248 66.0773517,10.016 62.408,10.016 Z" id="Shape" stroke="#FFCE00" stroke-width="5" fill="#FFCE00" transform="translate(62.408000, 29.632000) rotate(8.000000) translate(-62.408000, -29.632000) "></path>
                <path d="M43.744,5.016 C44.5546707,5.016 45.226664,5.31466368 45.76,5.912 C46.293336,6.50933632 46.56,7.2346624 46.56,8.088 C46.56,8.81333696 46.3466688,9.51732992 45.92,10.2 L28.704,36.76 L28.704,51.672 C28.704,52.6106714 28.3840032,53.3999968 27.744,54.04 C27.1039968,54.6800032 26.3146714,55 25.376,55 C24.4799955,55 23.7120032,54.6800032 23.072,54.04 C22.4319968,53.3999968 22.112,52.6106714 22.112,51.672 L22.112,36.76 L5.024,10.2 C4.55466432,9.47466304 4.32,8.7920032 4.32,8.152 C4.32,7.25599552 4.65066336,6.50933632 5.312,5.912 C5.97333664,5.31466368 6.75199552,5.016 7.648,5.016 C8.33067008,5.016 8.8853312,5.16533184 9.312,5.464 C9.7386688,5.76266816 10.1653312,6.2319968 10.592,6.872 L25.568,30.616 L40.8,6.616 C41.4826701,5.549328 42.4639936,5.016 43.744,5.016 Z" id="Path" stroke="#4A4A4A" stroke-width="4" fill="#4A4A4A" transform="translate(25.440000, 30.008000) rotate(-10.000000) translate(-25.440000, -30.008000) "></path>
            </g>
        </g>
    </g>
</svg>