<?xml version="1.0" encoding="UTF-8"?>
<svg width="95px" height="153px" viewBox="0 0 95 153" version="1.1" xmlns="http://www.w3.org/2000/svg" xmlns:xlink="http://www.w3.org/1999/xlink">
    <!-- Generator: sketchtool 49.2 (51160) - http://www.bohemiancoding.com/sketch -->
    <title>8D7368CB-F413-4EBB-B1A1-F7CAC00761B3@1x</title>
    <desc>Created with sketchtool.</desc>
    <defs>
        <polygon id="path-1" points="0 152.809066 94.9410165 152.809066 94.9410165 0.0489354396 0 0.0489354396"></polygon>
    </defs>
    <g id="Web" stroke="none" stroke-width="1" fill="none" fill-rule="evenodd">
        <g id="About-Olenka" transform="translate(-240.000000, -363.000000)">
            <g id="Page-1" transform="translate(240.000000, 363.000000)">
                <g id="Group-67" transform="translate(0.000000, 0.080907)">
                    <path d="M9.46355288,85.9632555 C9.44528365,85.8875687 9.42831937,85.8131868 9.41135508,85.7375 C8.30867651,85.9528159 7.19425343,86.1198489 6.11375893,86.4147665 C5.80840179,86.4995879 5.41822321,86.9524038 5.40517376,87.2512363 C5.39081937,87.5748626 5.77316827,87.9141484 5.98326442,88.2469093 C6.32385508,86.0415522 8.18601168,86.4421703 9.46355288,85.9632555 Z M14.6663688,101.361607 C15.5145831,99.1040522 13.7529073,96.2331731 11.195215,95.4893544 C11.1247479,95.4684753 11.0555859,95.450206 10.9851188,95.4319368 C8.50702816,94.7951236 6.23250893,95.83125 5.36733036,97.9817995 C5.26945948,98.2284341 5.18724794,98.4894231 5.12722047,98.7647665 C6.20119025,97.4480769 7.40434959,96.5411401 8.80586058,96.2892857 C9.58491277,96.1496566 10.4252974,96.212294 11.3387589,96.520261 C13.1878661,97.1479396 14.1274265,98.4998626 14.5097754,100.309821 C14.5371793,100.444231 14.5632782,100.58125 14.5854622,100.719574 C14.5972067,100.790041 14.6076463,100.859203 14.6167809,100.930975 C14.6363551,101.071909 14.6520144,101.215453 14.6663688,101.361607 Z M16.9630721,106.372596 C19.1423304,103.645261 19.4294183,98.5429258 17.5372479,95.59375 C17.2240611,95.0978709 16.7412315,94.6411401 16.2323029,94.3540522 C15.9021518,94.1622253 15.7220694,93.9769231 15.6659567,93.7211538 C15.6372479,93.5919643 15.6411628,93.4458104 15.6711765,93.2709478 C15.7442534,92.8546703 15.8199402,92.4396978 15.8930172,92.0234203 C15.990888,91.4727335 16.0835391,90.9207418 16.1631408,90.3635302 C16.182715,90.2239011 16.2009842,90.084272 16.2192534,89.9433379 C16.2453523,89.7580357 16.2127287,89.5009615 16.1266023,89.3065247 C16.1174677,89.2804258 16.1057232,89.2569368 16.0926738,89.2347527 C16.0887589,89.228228 16.0848441,89.2217033 16.0809293,89.2151786 C16.0652699,89.1877747 16.0483056,89.1629808 16.0300364,89.1407967 C16.0209018,89.1290522 16.0117672,89.1186126 16.0013276,89.109478 C15.992193,89.0990385 15.9817534,89.0899038 15.9713139,89.0820742 C15.8147205,88.9594093 15.6568221,88.8432692 15.4976188,88.7323489 C15.3919183,88.657967 15.2849128,88.5875 15.1779073,88.5183379 C15.1244045,88.4844093 15.0709018,88.4504808 15.017399,88.4178571 C12.8498853,87.0881181 10.4722754,86.8166896 7.93024245,87.5174451 C7.87021497,87.5331044 7.8101875,87.5500687 7.75016003,87.5683379 C7.73319574,87.5735577 7.71623146,87.5800824 7.69926717,87.5866071 C7.44088805,87.7014423 7.18642376,88.1085852 7.1498853,88.3904533 C7.0193908,89.3691621 7.0454897,90.3739698 6.90194574,91.365728 C6.87193201,91.5497253 6.76884135,91.745467 6.63182212,91.9164148 C6.62790728,91.9229396 6.6226875,91.9281593 6.61746772,91.9333791 C6.51437706,92.056044 6.39432212,92.1669643 6.27557212,92.2530907 C6.20901992,92.3000687 6.13985783,92.3444368 6.0693908,92.3875 C5.57351168,92.6837225 5.0006408,92.8794643 4.56609409,93.2448489 C4.33772871,93.431456 4.12241277,93.621978 3.9175364,93.8177198 C3.84967926,93.882967 3.78182212,93.9482143 3.71787981,94.0147665 C3.38903365,94.3449176 3.09281113,94.6868132 2.82790728,95.0417582 C1.8726875,96.3166896 1.32069574,97.7429945 1.12756387,99.298489 C1.0009842,100.304602 1.02447321,101.364217 1.1862864,102.47081 C1.28937706,103.197665 1.48250893,103.890591 1.76568201,104.552198 C1.79700069,104.62658 1.83092926,104.702266 1.86485783,104.776648 C1.99796223,105.066346 2.14803091,105.348214 2.31636882,105.622253 C2.3998853,105.760577 2.48862157,105.898901 2.58257761,106.03331 C2.70002266,106.03331 2.81746772,106.03331 2.93491277,106.020261 C3.24809959,103.893201 3.52213805,101.753091 3.86142376,99.6260302 C4.23985783,97.2379808 5.28381387,95.3066621 7.76320948,94.5367445 C8.02550343,94.454533 8.29040728,94.3905907 8.55531113,94.3462225 C8.60228915,94.3370879 8.64796223,94.3292582 8.6936353,94.3227335 C8.84761882,94.2992445 9.00160234,94.2822802 9.15428091,94.2705357 C11.2095694,94.1178571 13.2518084,94.9908654 14.5645831,96.6076923 C14.6024265,96.6559753 14.6415749,96.7055632 14.6794183,96.7551511 C14.7498853,96.8491071 14.8177424,96.9430632 14.8803798,97.0396291 C15.0017397,97.2157967 15.1113551,97.3971841 15.209226,97.5824863 C15.2483743,97.6542582 15.2849128,97.7273352 15.3201463,97.8004121 C16.2440474,99.7121566 16.087454,101.974931 14.7055172,103.971497 C13.7529073,105.34169 14.0399952,106.829327 13.7007095,108.343063 C13.7894457,108.323489 13.8768771,108.30261 13.9630034,108.280426 C15.2509842,107.94636 16.204899,107.314766 16.9630721,106.372596 Z M18.0044183,90.3335165 C19.1162315,89.9081044 19.2493359,89.2634615 18.3515337,88.4974588 C17.1522891,87.4743819 15.7024952,86.9889423 14.2070282,86.6196429 C14.8073029,87.0019918 15.4323716,87.3360577 16.0378661,87.7014423 C16.9630721,88.2599588 17.6677424,88.9346154 17.1914375,90.1612637 C17.1575089,90.2460852 17.1862177,90.3543956 17.1862177,90.5775412 C17.5241985,90.4783654 17.7708331,90.4222527 18.0044183,90.3335165 Z M24.9623853,57.9069368 C25.445215,55.5319368 25.9019457,53.1569368 26.3978249,50.7036401 C23.9575776,50.1164148 21.9218633,50.7558379 20.0688413,52.2434753 C18.2419183,53.7311126 16.8586765,55.5971841 15.6972754,57.6198489 C13.5832644,61.2867445 11.5345007,64.9927885 9.45963805,68.685783 C9.34219299,68.8945742 9.27694574,69.1555632 9.22474794,69.4035027 C8.37653365,73.5923764 7.51526992,77.7942995 6.66705563,81.9962225 C6.43216552,83.2098214 6.19727541,84.4234203 5.9362864,85.7414148 C10.7384842,84.5278159 15.0578523,85.2585852 19.0118359,88.1816621 C19.0901326,87.7118819 19.1292809,87.3856456 19.1814787,87.0594093 C19.7556545,83.3011676 20.2384842,79.5298764 20.9170556,75.7977335 C21.2954897,73.7620192 22.1045556,71.7915522 22.548237,69.7558379 C23.4095007,65.8149038 24.1663688,61.8609203 24.9623853,57.9069368 Z M43.6883468,120.948832 L43.6883468,120.935783 L43.6883468,101.648695 L43.6883468,101.635646 L22.3524952,101.635646 L22.3524952,101.648695 L22.3524952,120.935783 L22.3524952,120.948832 L43.6883468,120.948832 Z M45.3195282,151.797734 L45.3195282,151.784684 L45.3195282,141.358173 L45.3195282,141.345124 L22.3394457,141.345124 L22.3394457,141.358173 L22.3394457,151.784684 L22.3394457,151.797734 L45.3195282,151.797734 Z M45.371726,139.909684 C45.371726,134.755151 45.3847754,129.600618 45.3586765,124.433036 C45.3586765,124.132898 45.110737,123.806662 44.8888963,123.558723 C44.4582644,123.062843 43.9623853,122.619162 43.3621106,122.031937 L22.3263963,122.031937 L22.3263963,122.044986 C22.3237864,122.08022 22.3224815,122.112843 22.3211765,122.146772 C22.310737,122.337294 22.2976875,122.505632 22.2911628,122.667445 C22.2885529,122.726168 22.2872479,122.783585 22.2872479,122.841003 C22.2872479,128.36092 22.3002974,133.867788 22.2741985,139.387706 C22.2741985,139.455563 22.2755034,139.518201 22.2794183,139.576923 C22.3081271,140.155014 22.5090886,140.340316 23.2007095,140.340316 C30.2474128,140.314217 37.2941161,140.327266 44.3408194,140.340316 L45.3064787,140.340316 C45.3077837,140.325962 45.3103935,140.311607 45.3116985,140.298558 C45.3116985,140.294643 45.3130034,140.290728 45.3130034,140.286813 C45.348237,140.093681 45.371726,140.007555 45.371726,139.909684 Z M49.8737864,121.366415 C49.8698716,119.801786 49.8685666,118.237157 49.8659567,116.673832 C49.860737,111.98647 49.860737,107.300412 49.860737,102.614354 L49.860737,101.674794 L49.8476875,101.674794 L49.8476875,101.661745 L44.7714512,101.661745 C44.7714512,101.935783 44.7453523,102.170673 44.7453523,102.392514 C44.7453523,108.721497 44.7323029,115.050481 44.7192534,121.379464 C44.7192534,121.743544 44.9893771,122.206799 45.3625913,122.620467 C45.4630721,122.733997 45.5713826,122.843613 45.6836078,122.945398 C46.0972754,123.326442 46.5670556,123.61875 46.9246106,123.676168 C47.5157507,123.770124 47.9633468,123.600481 48.3665749,123.335577 C48.3691848,123.334272 48.3704897,123.332967 48.3730996,123.330357 C48.4527012,123.279464 48.5309979,123.223352 48.6079897,123.164629 C48.648443,123.13331 48.6888963,123.101992 48.7293496,123.069368 C48.7619732,123.043269 48.7959018,123.015865 48.8285254,122.988462 C48.9303111,122.90625 49.0320968,122.820124 49.1351875,122.735302 C49.1743359,122.703984 49.2134842,122.67136 49.2526326,122.640041 C49.2722067,122.624382 49.2930859,122.608723 49.31266,122.593063 C49.6258468,122.347734 49.7850501,122.081525 49.8450776,121.738324 C49.8646518,121.624794 49.8737864,121.500824 49.8737864,121.366415 Z M36.1066161,46.2537775 L59.2954897,46.2537775 L59.2954897,43.7613324 L36.1066161,43.7613324 L36.1066161,46.2537775 Z M65.5200776,36.6624313 L65.5200776,18.4323489 C65.5200776,17.2004808 65.2603935,16.1212912 64.774954,15.2326236 C64.7475501,15.1791209 64.7175364,15.1256181 64.6862177,15.0747253 C64.6535941,15.0186126 64.6196655,14.9638049 64.585737,14.9103022 C64.5100501,14.7915522 64.4304485,14.678022 64.3456271,14.5671016 C64.1198716,14.2708791 63.8641023,14.0033654 63.5809293,13.7645604 C63.5104622,13.7058379 63.4386902,13.6484203 63.3643084,13.5936126 C63.2520831,13.5087912 63.135943,13.4291896 63.015888,13.3521978 C62.897138,13.2778159 62.7757782,13.2073489 62.6491985,13.1421016 C62.6478935,13.1421016 62.6465886,13.1407967 62.6452837,13.1394918 C61.7566161,12.6723214 60.6852562,12.420467 59.4651326,12.4165522 L36.0283194,12.4165522 C32.2961765,12.4165522 29.934226,14.7524038 29.934226,18.4714973 C29.934226,24.4481456 29.9211765,30.424794 29.934226,36.4014423 C29.934226,38.7098901 30.8516023,40.4924451 32.4384155,41.5050824 C32.5649952,41.585989 32.6967946,41.6629808 32.8325089,41.7334478 C33.7146518,42.2006181 34.7742672,42.4524725 35.9761216,42.4563874 L47.7728249,42.4563874 C51.7790062,42.4563874 55.798237,42.4694368 59.8044183,42.4563874 C62.1441848,42.4381181 64.0193908,41.2388736 64.9263276,39.3623626 C64.9276326,39.3623626 64.9276326,39.3623626 64.9263276,39.3610577 C64.98766,39.2370879 65.0437727,39.1092033 65.0946655,38.9787088 C65.1129348,38.9343407 65.129899,38.8899725 65.1455584,38.8456044 C65.1625227,38.8012363 65.178182,38.7555632 65.1925364,38.7111951 C65.4065474,38.0822115 65.5200776,37.3945055 65.5200776,36.6624313 Z M72.5276326,121.040179 L72.5276326,121.027129 L72.5276326,101.648695 L72.5276326,101.635646 L50.9307919,101.635646 L50.9307919,101.648695 L50.9307919,121.027129 L50.9307919,121.040179 L72.5276326,121.040179 Z M72.5537315,140.209821 L72.5537315,122.097184 C65.3243359,122.097184 58.1340886,122.097184 51.165682,122.084135 C50.7089512,122.553915 50.4088139,122.958448 50.0173304,123.245536 C49.5371106,123.603091 49.3700776,123.995879 49.3531133,124.56614 C49.3518084,124.603984 49.3518084,124.641827 49.3518084,124.680975 C49.3779073,129.54842 49.3648578,134.428915 49.3648578,139.309409 L49.3648578,140.209821 L49.3648578,140.222871 C57.1684293,140.209821 64.8415062,140.209821 72.5537315,140.209821 Z M49.4170556,151.784684 L72.5667809,151.784684 L72.5667809,141.279876 L49.4170556,141.279876 L49.4170556,151.784684 Z M22.4177424,100.448146 L72.6711765,100.448146 L72.6711765,94.2366071 L22.4177424,94.2366071 L22.4177424,100.448146 Z M74.8895831,92.9708104 C74.8895831,91.4179258 75.1114238,89.8780907 74.8504348,88.4165522 C72.8930172,77.3897665 70.8573029,66.3760302 68.834638,55.362294 C68.5605996,53.8616071 68.3387589,52.321772 67.8950776,50.873283 C67.196932,48.6052885 65.7380034,47.523489 63.4765337,47.4021291 C63.326465,47.3929945 63.1724815,47.3890797 63.0145831,47.3890797 C61.3051051,47.3890797 59.5956271,47.3760302 57.886149,47.3760302 C49.029487,47.3499313 40.1741298,47.3368819 31.3174677,47.3238324 L31.3044183,47.3238324 C31.2600501,47.3238324 31.2143771,47.3251374 31.1700089,47.3277473 C29.6301738,47.4034341 27.7993359,48.7710165 27.5200776,50.064217 C26.0324402,57.2544643 24.4795556,64.4316621 23.0571655,71.6349588 C21.9610117,77.1679258 20.9823029,82.7139423 20.029693,88.2730082 C19.768704,89.7867445 19.7817534,91.3526786 19.6643084,92.9708104 L19.6773578,92.9708104 L74.8765337,92.9708104 L74.8895831,92.9708104 Z M89.8442534,99.1432005 C89.0873853,96.259272 86.3991985,94.9543269 83.5544183,95.9330357 C83.1081271,96.0857143 82.6905446,96.3036401 82.3081957,96.568544 C80.5399952,97.7925824 79.5521518,100.035783 80.2920556,101.687843 C80.5269457,99.2867445 81.5317534,97.4337225 83.9850501,96.78125 C86.386149,96.1418269 88.239171,97.2118819 89.8442534,99.1432005 Z M89.5180172,85.7283654 C88.50016,80.7304258 87.5214512,75.8760302 86.529693,71.0346841 C86.3600501,70.1864698 86.2426051,69.2860577 85.8380721,68.542239 C84.7549677,66.428228 83.5935666,64.3533654 82.3799677,62.3176511 C80.7748853,59.6294643 79.1698029,56.928228 77.3950776,54.3574863 C76.1814787,52.6088599 74.511149,51.251717 72.3579897,50.6905907 C71.2748853,50.4165522 70.165682,50.3774038 69.0564787,50.7427885 C69.0956271,51.0168269 69.1086765,51.251717 69.1478249,51.4735577 C69.9960391,55.9756181 70.8181545,60.5037775 71.6794183,65.0058379 C72.1100501,67.2242445 72.5928798,69.4426511 73.1148578,71.6480082 C73.584638,73.6315247 74.2632095,75.5628434 74.654693,77.5594093 C75.3463139,81.0436126 75.8682919,84.5408654 76.4816161,88.1555632 C80.4225501,85.2194368 84.7810666,84.5408654 89.5180172,85.7283654 Z M88.8524952,88.7819368 C89.4788688,88.3513049 90.2487864,87.9728709 90.0399952,87.2682005 C89.9225501,86.8375687 89.1526326,86.5635302 88.6306545,86.3155907 C88.3305172,86.1589973 87.9390337,86.1589973 87.5866985,86.1198489 C85.6945282,85.9110577 83.8284567,86.0807005 82.0145831,86.5243819 C81.9493359,86.5374313 81.8710391,86.5635302 81.8057919,86.5765797 C81.3882095,86.6940247 80.9836765,86.8114698 80.5791435,86.9289148 C79.4307919,87.3073489 78.3476875,87.9076236 77.290682,88.5209478 C76.9383468,88.729739 76.5599128,89.3039148 76.5860117,89.6692995 C76.6121106,90.0216346 77.173237,90.321772 77.4994732,90.6349588 C77.6169183,90.6088599 77.7343633,90.5958104 77.8518084,90.5697115 C77.1862864,89.251717 78.1519457,88.7949863 78.882715,88.2860577 C79.8353249,87.6205357 80.8401326,87.1638049 81.8840886,86.876717 C81.9493359,86.8636676 82.0276326,86.8375687 82.0928798,86.8245192 C83.4369732,86.4852335 84.8463139,86.4591346 86.3078523,86.6940247 C87.4953523,86.8897665 88.8002974,87.0463599 88.8524952,88.7819368 Z M92.5193908,106.216003 C93.6938413,104.180288 94.2027699,101.987981 93.798237,99.6651786 C93.7643084,99.464217 93.72516,99.2658654 93.6834018,99.0714286 C93.0531133,96.1444368 91.5289375,93.8516484 88.6045556,92.5793269 C88.3435666,92.4618819 88.0825776,92.03125 88.0434293,91.7180632 C87.9129348,90.7915522 87.8476875,89.8389423 87.8476875,88.8993819 C87.8476875,88.2730082 87.5475501,87.9598214 86.9994732,87.8293269 C84.1285941,87.1246566 81.4795556,87.5552885 79.1045556,89.3561126 C79.0523578,89.3978709 79.0027699,89.4526786 78.9597067,89.5179258 C78.9584018,89.5192308 78.9570968,89.5218407 78.9557919,89.5244505 C78.7991985,89.7410714 78.7078523,90.0868819 78.739171,90.3348214 C78.8696655,91.4962225 79.1306545,92.6445742 79.261149,93.8190247 C79.2768084,93.9717033 79.2063413,94.1883242 79.1019457,94.3644918 C79.0941161,94.3762363 79.0862864,94.3892857 79.0784567,94.4010302 C79.0119045,94.4989011 78.9336078,94.5785027 78.8566161,94.6150412 C78.1258468,94.9699863 77.6169183,95.5180632 77.2632782,96.1822802 C77.2136902,96.2749313 77.1667122,96.3688874 77.124954,96.4654533 C77.0949402,96.5267857 77.0688413,96.5881181 77.0427424,96.6507555 C75.7638963,99.7434753 75.7899952,102.823146 77.3428798,105.81147 C78.1258468,107.312157 79.3785941,108.330014 81.2055172,108.734547 C81.2042122,108.724107 81.2029073,108.714973 81.2029073,108.704533 C81.2081271,108.705838 81.2133468,108.707143 81.2185666,108.708448 C81.1533194,108.055975 81.0750227,107.533997 81.0619732,106.99897 C81.0489238,105.863668 80.5791435,104.924107 80.0049677,103.958448 C78.7965886,101.948832 78.7809293,99.7095467 79.8053111,97.8617445 C79.8288001,97.8173764 79.8535941,97.7743132 79.879693,97.73125 C80.1589512,97.2627747 80.5060666,96.8203984 80.9184293,96.4158654 C83.4239238,93.9495192 88.8133468,93.740728 90.5097754,98.0731456 C90.9534567,99.2084478 90.9665062,100.500343 91.1883468,101.726992 C91.4884842,103.305975 91.8147205,104.884959 92.1670556,106.633585 C92.4019457,106.359547 92.4802424,106.294299 92.5193908,106.216003 Z M89.4397205,91.9007555 C93.0283194,93.4927885 95.3772205,97.9296016 94.8291435,102.457761 C94.5942534,104.428228 93.8634842,106.202953 92.6498853,107.781937 C92.4932919,107.990728 92.1670556,108.199519 91.9321655,108.18647 C91.7886216,108.18647 91.5667809,107.808036 91.5015337,107.573146 C91.1752974,106.398695 90.9143084,105.198146 90.5880721,104.010646 C90.3009842,102.992788 90.0269457,101.974931 89.6485117,100.983173 C89.2178798,99.8348214 88.4871106,98.895261 87.4301051,98.229739 C84.93766,96.6899038 81.9101875,97.9948489 81.4273578,100.865728 C81.2707644,101.792239 81.3882095,102.797047 81.4926051,103.749657 C81.7013963,105.524382 82.0145831,107.273008 82.2625227,109.047734 C82.3538688,109.648008 82.0798304,109.895948 81.4534567,109.791552 C79.0262589,109.387019 77.2776326,108.029876 76.246726,105.837569 C74.8112864,102.731799 74.7590886,99.5477335 76.0901326,96.4028159 C76.4685666,95.5154533 77.3037315,94.810783 77.9170556,94.0147665 C78.0605996,93.8190247 78.1910941,93.5710852 78.2041435,93.3361951 C78.2954897,91.8616071 77.551671,91.0003434 75.9987864,90.700206 C75.9987864,91.4831731 75.9465886,92.3313874 76.0118359,93.1796016 C76.0640337,93.8973214 75.8291435,94.145261 75.1244732,94.0669643 C74.6938413,94.0147665 74.2632095,94.0539148 73.7412315,94.0539148 C73.4410941,113.64114 73.6759842,133.189217 73.5715886,152.776442 L48.386149,152.776442 L48.386149,124.667926 L46.3895831,124.667926 L46.3895831,152.763393 L21.360737,152.763393 L21.360737,94.001717 L18.8030446,94.001717 L18.8030446,91.0655907 C18.2549677,91.2221841 17.798237,91.3135302 17.3806545,91.4962225 C17.1718633,91.5875687 16.9630721,91.8224588 16.8978249,92.03125 C16.6368359,92.8403159 16.6759842,93.4666896 17.511149,94.0930632 C18.8030446,95.071772 19.246726,96.637706 19.5338139,98.1905907 C20.0166435,100.800481 19.8078523,103.332074 18.5681545,105.720124 C17.5372479,107.71669 15.8930172,108.969437 13.6615611,109.400069 C12.8263963,109.556662 12.6045556,109.37397 12.7089512,108.551854 C12.9438413,106.842376 13.2439787,105.132898 13.4527699,103.410371 C13.570215,102.509959 13.6615611,101.570398 13.5571655,100.683036 C13.3614238,99.0910027 12.4740611,97.9296016 10.9081271,97.4206731 C9.32914354,96.9117445 7.93285234,97.3945742 6.74535234,98.4776786 C5.68834684,99.4433379 5.16636882,100.709135 4.81403365,102.066277 C4.35730288,103.854052 3.88752266,105.641827 3.39164354,107.416552 C3.22200069,108.042926 2.76526992,108.082074 2.3476875,107.507898 C0.599061126,105.158997 -0.249153159,102.523008 0.116231456,99.5999313 C0.559912775,95.9852335 2.21719299,93.1274038 5.61005014,91.4831731 C5.75359409,91.4179258 5.9362864,91.248283 5.94933585,91.1308379 C5.9623853,90.321772 6.36691827,89.4474588 5.37516003,88.8080357 C4.52694574,88.2599588 4.53999519,87.3986951 4.7487864,86.4199863 C5.77969299,81.6569368 6.71925343,76.8677885 7.68491277,72.0916896 C7.85455563,71.2434753 7.97200069,70.3691621 8.2068908,69.5470467 C8.40263255,68.8554258 8.68972047,68.1638049 9.04205563,67.5243819 C10.8950776,64.1445742 12.761149,60.7647665 14.6794183,57.4371566 C15.9060666,55.3100962 17.3284567,53.3004808 19.2206271,51.6953984 C21.1780446,50.0250687 23.3964512,49.1899038 26.0193908,49.6205357 C26.2412315,49.6596841 26.5544183,49.4508929 26.7371106,49.2682005 C27.4548304,48.5635302 28.0420556,47.6631181 28.8772205,47.1280907 C29.6079897,46.6583104 30.573649,46.4886676 31.4610117,46.384272 C32.4658194,46.2668269 33.496726,46.3451236 34.5276326,46.3712225 C34.9582644,46.384272 35.1409567,46.2146291 35.1018084,45.7970467 L35.1018084,45.6404533 C35.0887589,44.9749313 35.2975501,44.1789148 35.0104622,43.6960852 C34.7625227,43.2915522 33.9143084,43.2654533 33.3401326,43.0566621 C30.7824402,42.1301511 29.0338139,39.7682005 29.0207644,37.0408654 C28.9816161,30.7118819 28.9685666,24.3698489 29.0207644,18.0408654 C29.0468633,14.321772 31.8133468,11.6074863 35.5324402,11.5030907 C36.1849128,11.4900412 36.8504348,11.5030907 37.5029073,11.5030907 L57.0901326,11.5030907 L59.5303798,11.5030907 C63.8105996,11.5161401 66.5640337,14.2695742 66.5770831,18.5628434 C66.5770831,24.3567995 66.485737,30.1638049 66.6162315,35.957761 C66.6945282,39.8073489 64.5413688,42.9783654 60.404693,43.5133929 L60.404693,46.4625687 C61.331204,46.4625687 62.2185666,46.4886676 63.1059293,46.4625687 C65.4548304,46.3581731 67.1773578,47.3629808 68.3518084,49.3725962 C68.456204,49.5552885 68.7824402,49.7771291 68.9520831,49.7379808 C72.4101875,48.9941621 75.0853249,50.3643544 77.3820282,52.7785027 C79.4829897,54.9838599 80.9575776,57.6198489 82.4191161,60.2427885 C83.9067534,62.8918269 85.3813413,65.5408654 86.8428798,68.2029533 C87.0255721,68.5291896 87.1430172,68.9076236 87.2213139,69.2730082 C88.3696655,74.8973214 89.426671,80.5477335 90.7055172,86.1328984 C91.0709018,87.7640797 90.5619732,88.6514423 89.3353249,89.4474588 C88.6567534,89.8389423 88.761149,91.6006181 89.4397205,91.9007555 Z" id="Fill-1" fill="#1A1919"></path>
                    <path d="M93.798237,99.6651786 C94.2027699,101.987981 93.6938413,104.180288 92.5193908,106.216003 C92.467193,106.294299 92.4019457,106.359547 92.1801051,106.607486 C91.8277699,104.85886 91.5015337,103.279876 91.2013963,101.700893 C90.9665062,100.487294 90.9665062,99.1823489 90.5228249,98.0470467 C88.8263963,93.7146291 83.4369732,93.9234203 80.9314787,96.3897665 C80.5112864,96.8021291 80.1602562,97.2523352 79.879693,97.73125 C79.8535941,97.7743132 79.8288001,97.8173764 79.8053111,97.8617445 C78.763965,99.7108516 78.7678798,101.955357 79.9919183,103.984547 C80.5660941,104.950206 81.0358743,105.889766 81.0489238,107.025069 C81.0619732,107.539217 81.13766,108.06511 81.2029073,108.704533 C79.3838139,108.298695 78.1362864,107.295192 77.3559293,105.785371 C75.8030446,102.797047 75.7769457,99.7043269 77.0557919,96.6246566 C77.077976,96.5711538 77.10016,96.5176511 77.124954,96.4654533 C77.1667122,96.3688874 77.2136902,96.2749313 77.2632782,96.1822802 C77.6169183,95.5298077 78.121932,94.9908654 78.8435666,94.6411401 C78.9257782,94.5980769 79.0079897,94.5093407 79.0784567,94.4010302 C79.0862864,94.3892857 79.0941161,94.3762363 79.1019457,94.3644918 C79.214171,94.1844093 79.2898578,93.9521291 79.2741985,93.7929258 C79.143704,92.6315247 78.882715,91.4831731 78.7522205,90.3087225 C78.7222067,90.0777473 78.8070282,89.7475962 78.9557919,89.5244505 C78.9570968,89.5218407 78.9584018,89.5192308 78.9597067,89.5179258 C79.00016,89.4631181 79.0445282,89.4161401 79.0915062,89.3822115 C81.4665062,87.5813874 84.1155446,87.1507555 86.9864238,87.8554258 C87.5475501,87.9859203 87.834638,88.2860577 87.834638,88.9254808 C87.834638,89.8650412 87.8998853,90.8176511 88.0303798,91.7441621 C88.0695282,92.0573489 88.3305172,92.4879808 88.5915062,92.6054258 C91.5263276,93.8646978 93.0518084,96.1561813 93.6834018,99.0714286 C93.72516,99.2658654 93.7643084,99.464217 93.798237,99.6651786" id="Fill-3" fill="#F6C838"></path>
                    <path d="M88.6045556,92.5793269 C91.5289375,93.8516484 93.0531133,96.1444368 93.6834018,99.0714286 C93.0518084,96.1561813 91.5263276,93.8646978 88.5915062,92.6054258 C88.3305172,92.4879808 88.0695282,92.0573489 88.0303798,91.7441621 C87.8998853,90.8176511 87.834638,89.8650412 87.834638,88.9254808 C87.834638,88.2860577 87.5475501,87.9859203 86.9864238,87.8554258 C84.1155446,87.1507555 81.4665062,87.5813874 79.0915062,89.3822115 C79.0445282,89.4161401 79.00016,89.4631181 78.9597067,89.5179258 C79.0027699,89.4526786 79.0523578,89.3978709 79.1045556,89.3561126 C81.4795556,87.5552885 84.1285941,87.1246566 86.9994732,87.8293269 C87.5475501,87.9598214 87.8476875,88.2730082 87.8476875,88.8993819 C87.8476875,89.8389423 87.9129348,90.7915522 88.0434293,91.7180632 C88.0825776,92.03125 88.3435666,92.4618819 88.6045556,92.5793269" id="Fill-5" fill="#1A1919"></path>
                    <path d="M90.0399952,87.2682005 C90.2487864,87.9728709 89.4788688,88.3513049 88.8524952,88.7819368 C88.8002974,87.0463599 87.4953523,86.8897665 86.3078523,86.6940247 C84.8463139,86.4591346 83.4369732,86.4852335 82.0928798,86.8245192 C82.0276326,86.8375687 81.9493359,86.8636676 81.8840886,86.876717 L81.8057919,86.5765797 C81.8710391,86.5635302 81.9493359,86.5374313 82.0145831,86.5243819 C83.8284567,86.0807005 85.6945282,85.9110577 87.5866985,86.1198489 C87.9390337,86.1589973 88.3305172,86.1589973 88.6306545,86.3155907 C89.1526326,86.5635302 89.9225501,86.8375687 90.0399952,87.2682005" id="Fill-7" fill="#595A51"></path>
                    <path d="M86.529693,71.0346841 C87.5214512,75.8760302 88.50016,80.7304258 89.5180172,85.7283654 C84.7810666,84.5408654 80.4225501,85.2194368 76.4816161,88.1555632 C75.8682919,84.5408654 75.3463139,81.0436126 74.654693,77.5594093 C74.2632095,75.5628434 73.584638,73.6315247 73.1148578,71.6480082 C72.5928798,69.4426511 72.1100501,67.2242445 71.6794183,65.0058379 C70.8181545,60.5037775 69.9960391,55.9756181 69.1478249,51.4735577 C69.1086765,51.251717 69.0956271,51.0168269 69.0564787,50.7427885 C70.165682,50.3774038 71.2748853,50.4165522 72.3579897,50.6905907 C74.511149,51.251717 76.1814787,52.6088599 77.3950776,54.3574863 C79.1698029,56.928228 80.7748853,59.6294643 82.3799677,62.3176511 C83.5935666,64.3533654 84.7549677,66.428228 85.8380721,68.542239 C86.2426051,69.2860577 86.3600501,70.1864698 86.529693,71.0346841" id="Fill-9" fill="#595A51"></path>
                    <path d="M83.5544183,95.9330357 C86.3991985,94.9543269 89.0873853,96.259272 89.8442534,99.1432005 C88.239171,97.2118819 86.386149,96.1418269 83.9850501,96.78125 C81.5317534,97.4337225 80.5269457,99.2867445 80.2920556,101.687843 C79.5625913,100.035783 80.54391,97.7925824 82.3081957,96.568544 C82.6905446,96.3036401 83.1081271,96.0857143 83.5544183,95.9330357" id="Fill-11" fill="#ECA946"></path>
                    <path d="M81.8057919,86.5765797 L81.8840886,86.876717 C80.8401326,87.1638049 79.8353249,87.6205357 78.882715,88.2860577 C78.1519457,88.7949863 77.1862864,89.251717 77.8518084,90.5697115 C77.7343633,90.5958104 77.6169183,90.6088599 77.4994732,90.6349588 C77.173237,90.321772 76.6121106,90.0216346 76.5860117,89.6692995 C76.5599128,89.3039148 76.9383468,88.729739 77.290682,88.5209478 C78.3476875,87.9076236 79.4307919,87.3073489 80.5791435,86.9289148 C80.9836765,86.8114698 81.3882095,86.6940247 81.8057919,86.5765797" id="Fill-13" fill="#595A51"></path>
                    <path d="M81.2185666,108.708448 C81.2133468,108.707143 81.2081271,108.705838 81.2029073,108.704533 C81.13766,108.06511 81.0619732,107.539217 81.0489238,107.025069 C81.0358743,105.889766 80.5660941,104.950206 79.9919183,103.984547 C78.7678798,101.955357 78.763965,99.7108516 79.8053111,97.8617445 C78.7809293,99.7095467 78.7965886,101.948832 80.0049677,103.958448 C80.5791435,104.924107 81.0489238,105.863668 81.0619732,106.99897 C81.0750227,107.533997 81.1533194,108.055975 81.2185666,108.708448" id="Fill-15" fill="#1A1919"></path>
                    <path d="M82.3081957,96.568544 C80.54391,97.7925824 79.5625913,100.035783 80.2920556,101.687843 C79.5521518,100.035783 80.5399952,97.7925824 82.3081957,96.568544" id="Fill-17" fill="#1A1919"></path>
                    <path d="M78.8566161,94.6150412 C78.9336078,94.5785027 79.0119045,94.4989011 79.0784567,94.4010302 C79.0079897,94.5093407 78.9257782,94.5980769 78.8435666,94.6411401 C78.121932,94.9908654 77.6169183,95.5298077 77.2632782,96.1822802 C77.6169183,95.5180632 78.1258468,94.9699863 78.8566161,94.6150412" id="Fill-19" fill="#1A1919"></path>
                    <path d="M74.8504348,88.4165522 C75.1114238,89.8780907 74.8895831,91.4179258 74.8895831,92.9708104 L74.8765337,92.9708104 C74.8765337,91.4048764 75.0983743,89.8650412 74.8373853,88.4165522 C72.8799677,77.3897665 70.8442534,66.3760302 68.8215886,55.362294 C68.5475501,53.8616071 68.3257095,52.3348214 67.8820282,50.873283 C67.1851875,48.6105082 65.7301738,47.5287088 63.4765337,47.4021291 C65.7380034,47.523489 67.196932,48.6052885 67.8950776,50.873283 C68.3387589,52.321772 68.5605996,53.8616071 68.834638,55.362294 C70.8573029,66.3760302 72.8930172,77.3897665 74.8504348,88.4165522" id="Fill-21" fill="#1A1919"></path>
                    <path d="M74.8373853,88.4165522 C75.0983743,89.8650412 74.8765337,91.4048764 74.8765337,92.9708104 L19.6773578,92.9708104 C19.7948029,91.3526786 19.7817534,89.7867445 20.0427424,88.2730082 C20.9953523,82.7139423 21.9871106,77.1679258 23.070215,71.6349588 C24.4926051,64.4316621 26.0454897,57.2544643 27.5331271,50.064217 C27.7980309,48.7749313 29.6314787,47.4112637 31.1700089,47.3277473 C31.2143771,47.3251374 31.2600501,47.3238324 31.3044183,47.3238324 L31.3174677,47.3238324 C40.1741298,47.3499313 49.029487,47.3629808 57.886149,47.3760302 C59.5956271,47.3760302 61.3051051,47.3890797 63.0145831,47.3890797 C63.1724815,47.3890797 63.326465,47.3929945 63.4765337,47.4021291 C65.7301738,47.5287088 67.1851875,48.6105082 67.8820282,50.873283 C68.3257095,52.3348214 68.5475501,53.8616071 68.8215886,55.362294 C70.8442534,66.3760302 72.8799677,77.3897665 74.8373853,88.4165522" id="Fill-23" fill="#595A51"></path>
                    <mask id="mask-2" fill="white">
                        <use xlink:href="#path-1"></use>
                    </mask>
                    <g id="Clip-26"></g>
                    <polygon id="Fill-25" fill="#959C9D" mask="url(#mask-2)" points="22.4177816 100.448146 72.6712157 100.448146 72.6712157 94.2366071 22.4177816 94.2366071"></polygon>
                    <polygon id="Fill-27" fill="#959C9D" mask="url(#mask-2)" points="49.4170948 151.784684 72.5668201 151.784684 72.5668201 141.279876 49.4170948 141.279876"></polygon>
                    <path d="M72.5537315,122.097184 L72.5537315,140.209821 L49.3648578,140.209821 L49.3648578,139.309409 C49.3648578,134.428915 49.3779073,129.54842 49.3518084,124.680975 C49.3518084,124.641827 49.3518084,124.603984 49.3531133,124.56614 C49.3726875,124.001099 49.5397205,123.600481 50.0173304,123.258585 C50.4088139,122.971497 50.7089512,122.566964 51.165682,122.097184 L72.5537315,122.097184 Z" id="Fill-28" fill="#959C9D" mask="url(#mask-2)"></path>
                    <path d="M72.5537315,122.097184 L51.165682,122.097184 C50.7089512,122.566964 50.4088139,122.971497 50.0173304,123.258585 C49.5397205,123.600481 49.3726875,124.001099 49.3531133,124.56614 C49.3700776,123.995879 49.5371106,123.603091 50.0173304,123.245536 C50.4088139,122.958448 50.7089512,122.553915 51.165682,122.084135 C58.1340886,122.097184 65.3243359,122.097184 72.5537315,122.097184" id="Fill-29" fill="#1A1919" mask="url(#mask-2)"></path>
                    <polygon id="Fill-31" fill="#959C9D" mask="url(#mask-2)" points="50.930831 121.027129 72.5276717 121.027129 72.5276717 101.648695 50.930831 101.648695"></polygon>
                    <path d="M65.5200776,18.4323489 L65.5200776,36.6624313 C65.5200776,37.3945055 65.4065474,38.0822115 65.1925364,38.7111951 C65.1768771,38.7568681 65.1612177,38.8012363 65.1455584,38.8456044 C65.129899,38.8899725 65.1129348,38.9343407 65.0946655,38.9787088 C65.0424677,39.1092033 64.9863551,39.235783 64.9263276,39.3610577 C64.9276326,39.3623626 64.9276326,39.3623626 64.9263276,39.3623626 C64.0167809,41.2336538 62.1402699,42.4250687 59.7913688,42.4433379 C55.7851875,42.4563874 51.7790062,42.4433379 47.7597754,42.4433379 L35.9630721,42.4433379 C34.7677424,42.4433379 33.7120419,42.1953984 32.8325089,41.7334478 C32.6967946,41.6629808 32.5649952,41.585989 32.4384155,41.5050824 C30.859432,40.4911401 29.9472754,38.7164148 29.9472754,36.4144918 C29.934226,30.4378434 29.9472754,24.4611951 29.9472754,18.4845467 C29.9472754,14.7654533 32.2961765,12.4296016 36.0413688,12.4296016 L59.478182,12.4296016 C60.6930859,12.4296016 61.759226,12.6775412 62.6452837,13.1394918 C62.6465886,13.1407967 62.6478935,13.1421016 62.6491985,13.1421016 C62.7757782,13.2086538 62.897138,13.2791209 63.015888,13.3521978 C63.135943,13.4291896 63.2520831,13.5087912 63.3643084,13.5936126 C63.4386902,13.6484203 63.5104622,13.7058379 63.5809293,13.7645604 C63.8641023,14.0033654 64.1198716,14.2708791 64.3456271,14.5671016 C64.4304485,14.678022 64.5100501,14.7915522 64.585737,14.9103022 C64.6196655,14.9638049 64.6535941,15.0186126 64.6862177,15.0747253 C64.7175364,15.1269231 64.7475501,15.1791209 64.774954,15.2326236 C65.2603935,16.1212912 65.5200776,17.2004808 65.5200776,18.4323489" id="Fill-32" fill="#F6C838" mask="url(#mask-2)"></path>
                    <path d="M62.6452837,13.1394787 C61.759226,12.6775282 60.6930859,12.4295886 59.478182,12.4295886 L36.0413688,12.4295886 C32.2961765,12.4295886 29.9472754,14.7654402 29.9472754,18.4845337 C29.9472754,24.461182 29.934226,30.4378304 29.9472754,36.4144787 C29.9472754,38.7164018 30.859432,40.4911271 32.4384155,41.5050694 C30.8516023,40.492432 29.934226,38.7098771 29.934226,36.4014293 C29.9211765,30.4247809 29.934226,24.4481326 29.934226,18.4714842 C29.934226,14.7523908 32.2961765,12.4165391 36.0283194,12.4165391 L59.4651326,12.4165391 C60.6852562,12.420454 61.7566161,12.6723084 62.6452837,13.1394787" id="Fill-35" fill="#1A1919" mask="url(#mask-2)"></path>
                    <polygon id="Fill-36" fill="#F6C838" mask="url(#mask-2)" points="36.1066552 46.2537775 59.2955288 46.2537775 59.2955288 43.7613324 36.1066552 43.7613324"></polygon>
                    <path d="M49.8659567,116.673832 C49.8685666,118.237157 49.8698716,119.801786 49.8737864,121.366415 C49.8737864,121.500824 49.8646518,121.624794 49.8450776,121.738324 C49.7837452,122.07761 49.6245419,122.339904 49.31266,122.593063 C49.2930859,122.608723 49.2722067,122.624382 49.2526326,122.640041 C49.2134842,122.67136 49.1743359,122.703984 49.1351875,122.735302 C49.0320968,122.820124 48.9303111,122.90625 48.8285254,122.988462 C48.7959018,123.015865 48.7619732,123.043269 48.7293496,123.069368 C48.6888963,123.101992 48.648443,123.13331 48.6079897,123.164629 C48.5309979,123.222047 48.4527012,123.278159 48.3730996,123.330357 C48.3704897,123.332967 48.3691848,123.334272 48.3665749,123.335577 C47.9620419,123.597871 47.5105309,123.763599 46.9115611,123.663118 C46.557921,123.605701 46.0933606,123.318613 45.6836078,122.945398 C45.5713826,122.843613 45.4630721,122.733997 45.3625913,122.620467 C44.9972067,122.209409 44.7323029,121.752679 44.7323029,121.392514 C44.7323029,115.06353 44.7453523,108.734547 44.7584018,102.405563 C44.7584018,102.183723 44.7714512,101.948832 44.7845007,101.674794 L49.8476875,101.674794 L49.8476875,102.601305 C49.8568221,107.297802 49.859432,111.98647 49.8659567,116.673832" id="Fill-37" fill="#959C9D" mask="url(#mask-2)"></path>
                    <path d="M49.8476875,101.661745 L49.8476875,101.674794 L44.7845007,101.674794 C44.7714512,101.948832 44.7584018,102.183723 44.7584018,102.405563 C44.7453523,108.734547 44.7323029,115.06353 44.7323029,121.392514 C44.7323029,121.752679 44.9972067,122.209409 45.3625913,122.620467 C44.9893771,122.206799 44.7192534,121.743544 44.7192534,121.379464 C44.7323029,115.050481 44.7453523,108.721497 44.7453523,102.392514 C44.7453523,102.170673 44.7714512,101.935783 44.7714512,101.661745 L49.8476875,101.661745 Z" id="Fill-38" fill="#1A1919" mask="url(#mask-2)"></path>
                    <path d="M49.31266,122.593063 C49.6245419,122.339904 49.7837452,122.07761 49.8450776,121.738324 C49.7850501,122.081525 49.6258468,122.347734 49.31266,122.593063" id="Fill-39" fill="#1A1919" mask="url(#mask-2)"></path>
                    <path d="M45.3456271,124.433036 C45.371726,129.587569 45.3586765,134.755151 45.3586765,139.909684 C45.3586765,140.00625 45.3364924,140.091071 45.3130034,140.286813 C45.3130034,140.290728 45.3116985,140.294643 45.3116985,140.298558 C45.3103935,140.307692 45.3077837,140.316827 45.3064787,140.327266 L44.3408194,140.327266 C37.2941161,140.327266 30.2474128,140.301168 23.2007095,140.327266 C22.5143084,140.327266 22.310737,140.144574 22.2794183,139.576923 C22.2755034,139.518201 22.2741985,139.455563 22.2741985,139.387706 C22.3002974,133.867788 22.2872479,128.36092 22.2872479,122.841003 C22.2872479,122.783585 22.2885529,122.726168 22.2911628,122.667445 C22.2976875,122.505632 22.3120419,122.338599 22.3211765,122.146772 C22.3224815,122.112843 22.3237864,122.08022 22.3263963,122.044986 L43.3621106,122.044986 C43.9623853,122.645261 44.445215,123.088942 44.8888963,123.571772 C45.0976875,123.806662 45.3456271,124.145948 45.3456271,124.433036" id="Fill-40" fill="#959C9D" mask="url(#mask-2)"></path>
                    <polygon id="Fill-42" fill="#959C9D" mask="url(#mask-2)" points="22.3394849 151.784684 45.3195673 151.784684 45.3195673 141.358173 22.3394849 141.358173"></polygon>
                    <path d="M45.3116985,140.298558 C45.3103935,140.311607 45.3077837,140.325962 45.3064787,140.340316 L44.3408194,140.340316 C37.2941161,140.327266 30.2474128,140.314217 23.2007095,140.340316 C22.5090886,140.340316 22.3081271,140.155014 22.2794183,139.576923 C22.310737,140.144574 22.5143084,140.327266 23.2007095,140.327266 C30.2474128,140.301168 37.2941161,140.327266 44.3408194,140.327266 L45.3064787,140.327266 C45.3077837,140.316827 45.3103935,140.307692 45.3116985,140.298558" id="Fill-43" fill="#1A1919" mask="url(#mask-2)"></path>
                    <polygon id="Fill-44" fill="#959C9D" mask="url(#mask-2)" points="22.3525343 120.935783 43.688386 120.935783 43.688386 101.648695 22.3525343 101.648695"></polygon>
                    <path d="M26.3978249,50.7036401 C25.9019457,53.1569368 25.445215,55.5319368 24.9623853,57.9069368 C24.1663688,61.8609203 23.4095007,65.8149038 22.548237,69.7558379 C22.1045556,71.7915522 21.2954897,73.7620192 20.9170556,75.7977335 C20.2384842,79.5298764 19.7556545,83.3011676 19.1814787,87.0594093 C19.1292809,87.3856456 19.0901326,87.7118819 19.0118359,88.1816621 C15.0578523,85.2585852 10.7384842,84.5278159 5.9362864,85.7414148 C6.19727541,84.4234203 6.43216552,83.2098214 6.66705563,81.9962225 C7.51526992,77.7942995 8.37653365,73.5923764 9.22474794,69.4035027 C9.27694574,69.1555632 9.34219299,68.8945742 9.45963805,68.685783 C11.5345007,64.9927885 13.5832644,61.2867445 15.6972754,57.6198489 C16.8586765,55.5971841 18.2419183,53.7311126 20.0688413,52.2434753 C21.9218633,50.7558379 23.9575776,50.1164148 26.3978249,50.7036401" id="Fill-47" fill="#595A51" mask="url(#mask-2)"></path>
                    <path d="M18.3515337,88.4974588 C19.2493359,89.2634615 19.1162315,89.9081044 18.0044183,90.3335165 C17.7708331,90.4222527 17.5241985,90.4783654 17.1862177,90.5775412 C17.1862177,90.3543956 17.1575089,90.2460852 17.1914375,90.1612637 C17.6677424,88.9346154 16.9630721,88.2599588 16.0378661,87.7014423 C15.4323716,87.3360577 14.8073029,87.0019918 14.2070282,86.6196429 C15.7024952,86.9889423 17.1522891,87.4743819 18.3515337,88.4974588" id="Fill-48" fill="#595A51" mask="url(#mask-2)"></path>
                    <path d="M17.5241985,95.59375 C19.4163688,98.5429258 19.1292809,103.645261 16.9500227,106.372596 C16.1918496,107.313462 15.2392397,107.94636 13.9630034,108.280426 C13.8768771,108.30261 13.7894457,108.323489 13.7007095,108.343063 C14.0399952,106.829327 13.7529073,105.34169 14.7055172,103.971497 C16.0991985,101.974931 16.2466573,99.7108516 15.3201463,97.8004121 C15.2849128,97.7273352 15.2483743,97.6542582 15.209226,97.5824863 C15.1113551,97.398489 15.0017397,97.2171016 14.8803798,97.0396291 C14.8177424,96.9430632 14.7498853,96.8491071 14.6794183,96.7551511 C14.6415749,96.7055632 14.6024265,96.6559753 14.5645831,96.6076923 C13.2622479,94.9804258 11.2134842,94.1126374 9.15428091,94.2705357 C9.00160234,94.2822802 8.84761882,94.2992445 8.6936353,94.3227335 C8.64796223,94.3292582 8.6009842,94.3370879 8.55531113,94.3462225 C8.29040728,94.3905907 8.02550343,94.454533 7.76320948,94.5367445 C5.28381387,95.3066621 4.23985783,97.2379808 3.86142376,99.6260302 C3.52213805,101.753091 3.23505014,103.893201 2.93491277,106.020261 C2.81746772,106.020261 2.70002266,106.03331 2.58257761,106.03331 C2.48992651,105.897596 2.40119025,105.760577 2.31636882,105.622253 C2.14933585,105.346909 1.99926717,105.065041 1.86485783,104.776648 C1.83092926,104.702266 1.79700069,104.62658 1.76568201,104.552198 C1.48772871,103.891896 1.29590179,103.195055 1.1862864,102.47081 C1.02447321,101.364217 1.0009842,100.304602 1.12756387,99.298489 C1.32200069,97.7442995 1.87399245,96.3166896 2.82790728,95.0417582 C3.09281113,94.6868132 3.38903365,94.3449176 3.71787981,94.0147665 C3.78312706,93.9482143 3.84967926,93.882967 3.9175364,93.8177198 C4.12241277,93.621978 4.33772871,93.431456 4.56609409,93.2448489 C5.01108036,92.8912088 5.57612157,92.6863324 6.0693908,92.3875 C6.13985783,92.3444368 6.20901992,92.3000687 6.27557212,92.2530907 C6.39562706,92.1708791 6.51568201,92.0599588 6.61746772,91.9333791 C6.6226875,91.9281593 6.62790728,91.9229396 6.63182212,91.9164148 C6.77275618,91.745467 6.87976168,91.5510302 6.90194574,91.365728 C7.0454897,90.3739698 7.0193908,89.3691621 7.1498853,88.3904533 C7.19816827,88.1098901 7.4539375,87.7027473 7.69926717,87.5866071 C7.71623146,87.5800824 7.73319574,87.5735577 7.75016003,87.5683379 C7.8101875,87.5500687 7.87021497,87.5331044 7.93024245,87.5174451 C10.4709705,86.8284341 12.8498853,87.090728 15.017399,88.4178571 C15.0709018,88.4504808 15.1244045,88.4844093 15.1779073,88.5183379 C15.2849128,88.5875 15.3919183,88.657967 15.4976188,88.7323489 C15.6568221,88.8432692 15.8147205,88.9594093 15.9713139,89.0820742 C15.9817534,89.0899038 15.992193,89.0990385 16.0013276,89.109478 C16.0117672,89.1186126 16.0209018,89.1290522 16.0300364,89.1407967 C16.0483056,89.1629808 16.0652699,89.1877747 16.0809293,89.2151786 C16.0848441,89.2203984 16.0887589,89.228228 16.0926738,89.2347527 C16.1044183,89.2582418 16.1161628,89.2817308 16.1266023,89.3065247 C16.2075089,89.4983516 16.2362177,89.750206 16.2192534,89.9433379 C16.2009842,90.084272 16.182715,90.2239011 16.1631408,90.3635302 C16.0822342,90.9168269 15.9895831,91.4701236 15.8930172,92.0234203 C15.8199402,92.4396978 15.7442534,92.8546703 15.6711765,93.2709478 C15.6411628,93.4458104 15.6372479,93.5919643 15.6659567,93.7211538 C15.7220694,93.9821429 15.9021518,94.1700549 16.2323029,94.3540522 C16.728182,94.6411401 17.2110117,95.0978709 17.5241985,95.59375" id="Fill-49" fill="#F6C838" mask="url(#mask-2)"></path>
                    <path d="M11.195215,95.4893544 C13.7529073,96.2331731 15.5145831,99.1040522 14.6663688,101.361607 C14.6520144,101.215453 14.6363551,101.071909 14.6167809,100.930975 C14.6076463,100.859203 14.5972067,100.790041 14.5854622,100.719574 C14.5632782,100.58125 14.5384842,100.444231 14.5097754,100.309821 C14.1313413,98.4972527 13.1996106,97.1361951 11.3387589,96.520261 C10.4252974,96.212294 9.58491277,96.1496566 8.80586058,96.2892857 C7.40043475,96.5385302 6.19336058,97.446772 5.12722047,98.7647665 C5.18724794,98.4894231 5.26945948,98.2284341 5.36733036,97.9817995 C6.23381387,95.8442995 8.5083331,94.8081731 10.9851188,95.4319368 C11.0555859,95.450206 11.1247479,95.4684753 11.195215,95.4893544" id="Fill-52" fill="#ECA946" mask="url(#mask-2)"></path>
                    <path d="M11.3387589,96.520261 C13.1996106,97.1361951 14.1313413,98.4972527 14.5097754,100.309821 C14.1274265,98.4998626 13.1878661,97.1479396 11.3387589,96.520261" id="Fill-55" fill="#1A1919" mask="url(#mask-2)"></path>
                    <path d="M10.9851188,95.4319368 C8.5083331,94.8081731 6.23381387,95.8442995 5.36733036,97.9817995 C6.23250893,95.83125 8.50702816,94.7951236 10.9851188,95.4319368" id="Fill-56" fill="#1A1919" mask="url(#mask-2)"></path>
                    <path d="M9.41135508,85.7375 C9.42831937,85.8131868 9.44528365,85.8875687 9.46355288,85.9632555 C8.18601168,86.4421703 6.32385508,86.0415522 5.98326442,88.2469093 C5.77316827,87.9141484 5.39081937,87.5748626 5.40517376,87.2512363 C5.41822321,86.9524038 5.80840179,86.4995879 6.11375893,86.4147665 C7.19425343,86.1198489 8.30867651,85.9528159 9.41135508,85.7375" id="Fill-57" fill="#595A51" mask="url(#mask-2)"></path>
                    <path d="M7.69926717,87.5866071 C7.4539375,87.7027473 7.19816827,88.1098901 7.1498853,88.3904533 C7.18642376,88.1085852 7.44088805,87.7014423 7.69926717,87.5866071" id="Fill-59" fill="#1A1919" mask="url(#mask-2)"></path>
                    <path d="M6.0693908,92.3875 C5.57612157,92.6863324 5.01108036,92.8912088 4.56609409,93.2448489 C5.0006408,92.8794643 5.57351168,92.6837225 6.0693908,92.3875" id="Fill-61" fill="#1A1919" mask="url(#mask-2)"></path>
                    <path d="M3.86142376,99.6260302 C3.52213805,101.753091 3.24809959,103.893201 2.93491277,106.020261 C3.23505014,103.893201 3.52213805,101.753091 3.86142376,99.6260302" id="Fill-63" fill="#1A1919" mask="url(#mask-2)"></path>
                    <path d="M2.82790728,95.0417582 C1.87399245,96.3166896 1.32200069,97.7442995 1.12756387,99.298489 C1.32069574,97.7429945 1.8726875,96.3166896 2.82790728,95.0417582" id="Fill-66" fill="#1A1919" mask="url(#mask-2)"></path>
                </g>
                <path d="M42.8780804,25.4421092 C42.9172287,25.4290598 42.9433276,25.4290598 42.982476,25.4290598 C43.0868716,25.4290598 43.1912672,25.4812576 43.2565144,25.5595543 C43.3217617,25.637851 43.3478606,25.7422466 43.3478606,25.8596916 C43.3478606,26.0945817 43.1782177,26.2903235 42.9694265,26.2903235 C42.7606353,26.2903235 42.5909924,26.0945817 42.5909924,25.8596916 C42.6040419,25.6639499 42.721487,25.494307 42.8780804,25.4421092 M41.6253331,26.6948565 C41.6253331,27.6474663 42.1603606,28.4173839 42.838932,28.4173839 C43.504454,28.4173839 44.0525309,27.6474663 44.0525309,26.6948565 C44.0525309,26.277274 44.0394815,25.4421092 43.882888,25.0636751 C43.8698386,25.0245268 43.8567891,24.9984279 43.8306902,24.972329 L43.8045913,24.9462301 C43.765443,24.9070817 43.7262946,24.8809828 43.6871463,24.8548839 C43.2826133,24.5808455 42.7606353,24.6721916 42.316954,24.7635378 C41.794976,24.8679334 41.2990968,25.1158729 40.7640694,25.1680707 C40.6596738,25.1811202 40.4769815,25.1550213 40.3334375,25.1811202 C40.2290419,25.1941696 40.1637946,25.2463674 40.1507452,25.3638125 C40.1376957,25.5856532 40.1637946,25.6509004 40.3856353,25.6769993 C40.5683276,25.7030982 40.7510199,25.6900488 40.9337122,25.6509004 C41.4165419,25.5726037 41.912421,25.4290598 42.316954,25.1289224 C41.912421,25.4029609 41.6253331,26.0032356 41.6253331,26.6948565" id="Fill-68" fill="#1A1919"></path>
                <path d="M42.982476,26.277274 C43.1912672,26.277274 43.36091,26.0815323 43.36091,25.8466422 C43.36091,25.7291971 43.3217617,25.6248015 43.2695639,25.5465048 C43.2043166,25.4682081 43.099921,25.4160103 42.9955254,25.4160103 C42.9563771,25.4160103 42.9302782,25.4160103 42.8911298,25.4290598 C42.7345364,25.4812576 42.6170913,25.6509004 42.6170913,25.8335927 C42.6040419,26.0945817 42.7736848,26.277274 42.982476,26.277274" id="Fill-70" fill="#FFFFFE"></path>
                <path d="M52.2606353,26.277274 C52.0518441,26.277274 51.8822012,26.0815323 51.8822012,25.8466422 C51.8822012,25.7291971 51.9213496,25.6248015 51.9735474,25.5465048 C52.0387946,25.4682081 52.1431902,25.4160103 52.2475859,25.4160103 C52.2867342,25.4160103 52.3128331,25.4160103 52.3519815,25.4290598 C52.5085749,25.4812576 52.6260199,25.6509004 52.6260199,25.8335927 C52.6260199,26.0945817 52.4563771,26.277274 52.2606353,26.277274 M54.9096738,25.1811202 C54.7661298,25.1550213 54.5834375,25.1811202 54.4790419,25.1680707 C53.9440144,25.1028235 53.4481353,24.8679334 52.9261573,24.7635378 C52.482476,24.6721916 51.9604979,24.5808455 51.555965,24.8548839 C51.5168166,24.8809828 51.4776683,24.9070817 51.4385199,24.9462301 L51.412421,24.972329 C51.3993716,24.9984279 51.3863221,25.0245268 51.3602232,25.0636751 C51.2036298,25.4421092 51.1905804,26.277274 51.1905804,26.6948565 C51.1905804,27.6474663 51.7386573,28.4173839 52.4041793,28.4173839 C53.0697012,28.4173839 53.6177782,27.6474663 53.6177782,26.6948565 C53.6177782,26.0032356 53.3306902,25.4029609 52.9131078,25.1289224 C53.3176408,25.4160103 53.8135199,25.5595543 54.2963496,25.6509004 C54.4790419,25.6769993 54.6617342,25.7030982 54.8444265,25.6769993 C55.0662672,25.637851 55.0923661,25.5726037 55.0793166,25.3638125 C55.0793166,25.2463674 55.0010199,25.1941696 54.9096738,25.1811202" id="Fill-72" fill="#1A1919"></path>
                <path d="M52.3650309,25.4421092 C52.3258826,25.4290598 52.2997837,25.4290598 52.2606353,25.4290598 C52.1562397,25.4290598 52.0518441,25.4812576 51.9865968,25.5595543 C51.9213496,25.637851 51.8952507,25.7422466 51.8952507,25.8596916 C51.8952507,26.0945817 52.0648935,26.2903235 52.2736848,26.2903235 C52.482476,26.2903235 52.6521188,26.0945817 52.6521188,25.8596916 C52.6260199,25.6639499 52.5216243,25.494307 52.3650309,25.4421092" id="Fill-74" fill="#FFFFFE"></path>
                <path d="M47.7194265,36.847329 C47.7194265,36.847329 46.5580254,36.2340048 46.1534924,36.2209554 C45.5662672,36.2079059 43.5827507,36.7820817 42.7606353,37.0169718 C43.9872837,37.3432081 46.544976,38.0087301 47.5758826,38.0217795 C48.658987,38.0478784 51.3732727,37.4476037 52.5607727,37.1605158 C51.8952507,36.9386751 50.0683276,36.3514499 49.5854979,36.3123015 C49.0635199,36.2731532 47.7194265,36.847329 47.7194265,36.847329" id="Fill-76" fill="#C03E39"></path>
                <path d="M42.7606353,37.0300213 C42.5387946,37.0952685 42.4083001,37.1344169 42.4083001,37.1344169 C42.4083001,37.1344169 45.1356353,38.7525488 45.8142067,39.0004883 C46.7276683,39.3528235 48.6198386,39.4180707 49.5463496,39.0918345 C50.1335749,38.8830433 52.7956628,37.251862 52.7956628,37.251862 C52.7956628,37.251862 52.7043166,37.225763 52.5607727,37.1735652 C51.3732727,37.4476037 48.658987,38.0478784 47.5758826,38.034829 C46.5580254,38.0217795 43.9872837,37.3562576 42.7606353,37.0300213" id="Fill-78" fill="#C03E39"></path>
                <path d="M31.3423661,92.9599663 C34.1610474,79.4276861 34.7352232,67.4091422 33.0648935,57.1914224 L31.3162672,57.1914224 L28.3409924,48.4874389 C27.9886573,48.8528235 27.7668166,49.244307 27.6885199,49.6096916 C27.2056902,51.9063949 26.7228606,54.2161477 26.2400309,56.512851 C25.2613221,61.1976037 24.243465,66.0389499 23.2908551,70.8019993 C23.5909924,76.295818 22.0511573,84.7388125 19.9762946,88.9407356 C19.8327507,89.880296 19.7936023,90.8329059 19.7414045,91.8377136 C19.7283551,92.2030982 19.7022562,92.5815323 19.6761573,92.9599663 L31.3423661,92.9599663 Z M46.9495089,61.784829 L35.0223111,47.130296 L32.1122837,47.130296 L33.482476,53.2635378 L38.2585749,53.2635378 L38.2585749,56.4476037 L46.9495089,61.784829 Z M47.2887946,64.942796 L47.2887946,62.9331806 L37.4495089,56.8782356 L37.4495089,54.0465048 L32.8300034,54.0465048 L31.2771188,47.1172466 L31.1335749,47.1172466 C30.4680529,47.1172466 29.6720364,47.4173839 28.9804155,47.913263 L31.8773935,56.3954059 L35.2572012,56.3954059 L35.9488221,59.6447191 L47.2887946,64.942796 Z M47.6933276,62.0719169 L47.6672287,62.0327685 L47.6933276,62.0719169 Z M47.7063771,65.5561202 L47.6933276,65.5300213 L47.6933276,65.5691696 L47.7063771,65.5561202 Z M47.6933276,65.1646367 L47.7194265,65.1515872 L47.6933276,65.1385378 L47.6933276,65.1646367 Z M47.7194265,62.6721916 L47.6933276,62.6199938 L47.6933276,62.71134 L47.7194265,62.6721916 Z M47.7194265,65.5822191 L47.7455254,65.5691696 L47.6933276,65.5691696 L47.7194265,65.5822191 Z M47.6933276,61.4455433 L59.346487,47.1694444 L58.3025309,47.1694444 L36.0401683,47.130296 L47.6933276,61.4455433 Z M61.9563771,53.2635378 L63.3135199,47.1955433 L61.3430529,47.1955433 L60.3773935,47.1955433 L48.3979979,61.8631257 L57.1802782,56.4606532 L57.1802782,53.2765872 L61.9563771,53.2765872 L61.9563771,53.2635378 Z M63.5614595,56.4084554 L66.8890694,48.3047466 C66.2104979,47.6653235 65.2970364,47.2999389 64.1356353,47.2216422 L62.6088496,54.0726037 L57.9893441,54.0726037 L57.9893441,56.9043345 L48.0848111,62.9853784 L48.0848111,64.9819444 L59.4769815,59.6577685 L60.1686023,56.4084554 L63.5614595,56.4084554 Z M75.3190144,91.8246641 C75.3712122,90.7546092 75.4103606,89.7498015 75.2407177,88.7710927 L75.2276683,88.6666971 C73.2441518,84.4125762 71.7826133,76.3480158 72.0305529,70.9846916 C71.4563771,67.8267246 70.8691518,64.681807 70.294976,61.52384 C69.890443,59.3445817 69.4989595,57.1783729 69.0944265,54.9991147 C69.0291793,54.6728784 68.9769815,54.3335927 68.9117342,54.0073565 C68.702943,52.8329059 68.4941518,51.6062576 68.1418166,50.4579059 C67.9591243,49.8837301 67.7372837,49.387851 67.4632452,48.983318 L64.096487,57.2044718 L62.5175034,57.2044718 C60.8341243,67.4221916 61.4213496,79.4407356 64.2400309,92.9730158 L75.2798661,92.9730158 C75.2798661,92.5815323 75.305965,92.2030982 75.3190144,91.8246641 Z M76.0236848,88.6405982 C76.2063771,89.6976037 76.1541793,90.806807 76.1150309,91.8638125 C76.088932,92.3596916 76.0758826,92.8686202 76.0758826,93.3644993 L75.9845364,93.7690323 L63.6006078,93.7690323 L63.5353606,93.4558455 C60.651432,79.7669718 60.0381078,67.578785 61.721487,57.2044718 L60.8341243,57.2044718 L60.1947012,60.2058455 L47.732476,66.0259004 L47.5367342,65.9345543 L35.2702507,60.2058455 L34.6308276,57.2044718 L33.8870089,57.2044718 C35.570388,67.5657356 34.9570639,79.7539224 32.0731353,93.4558455 L32.007888,93.7690323 L18.827943,93.7690323 L18.8540419,93.3384004 C18.8931902,92.8294718 18.9192891,92.3074938 18.945388,91.8116147 C18.9975859,90.7676587 19.0497837,89.7759004 19.1933276,88.7710927 L19.2063771,88.7058455 L19.232476,88.6536477 C21.2681902,84.5561202 22.794976,76.2175213 22.4948386,70.8019993 L22.4948386,70.7498015 L22.507888,70.6976037 C23.4604979,65.9084554 24.4783551,61.0410103 25.4701133,56.3432081 C25.952943,54.0465048 26.4357727,51.7367521 26.9186023,49.4400488 C27.0621463,48.7745268 27.5319265,48.0829059 28.2496463,47.4956806 C29.1370089,46.7649114 30.2331628,46.3212301 31.1727232,46.3212301 L31.6425034,46.3212301 L31.6555529,46.3212301 L35.0614595,46.3212301 L35.4137946,46.3212301 L60.2077507,46.3734279 L61.3691518,46.3734279 L63.5745089,46.3734279 L63.8485474,46.3734279 C65.5058276,46.4256257 66.7585749,46.9345543 67.6720364,47.9263125 C68.2070639,48.5135378 68.6376957,49.2834554 68.9247837,50.2230158 C69.2901683,51.4105158 69.5120089,52.663263 69.7208001,53.8638125 C69.7729979,54.1900488 69.8382452,54.5293345 69.890443,54.8555707 C70.294976,57.034829 70.6864595,59.2010378 71.0909924,61.380296 C71.6782177,64.5513125 72.2523935,67.722329 72.8396188,70.880296 L72.8526683,70.9194444 L72.8526683,70.9716422 C72.5916793,76.2436202 74.0401683,84.2168345 75.9975859,88.3665598 L76.0236848,88.4187576 L76.0236848,88.6405982 Z" id="Fill-80" fill="#1A1919"></path>
                <path d="M75.2407177,88.7841422 C75.4103606,89.7498015 75.3712122,90.7676587 75.3190144,91.8377136 C75.305965,92.2030982 75.2798661,92.5945817 75.2798661,92.9730158 L64.2400309,92.9730158 C61.4213496,79.453785 60.8471738,67.4221916 62.5175034,57.2044718 L64.096487,57.2044718 L67.4762946,48.9963674 C67.7503331,49.4139499 67.9721738,49.8967795 68.1548661,50.4709554 C68.5072012,51.619307 68.7159924,52.8329059 68.9247837,54.0204059 C68.9769815,54.3466422 69.0422287,54.6859279 69.107476,55.0121641 C69.5120089,57.1914224 69.9034924,59.3576312 70.3080254,61.5368894 C70.8822012,64.6948565 71.4694265,67.839774 72.0436023,70.9977411 C71.7956628,76.3610652 73.2572012,84.4256257 75.2407177,88.6797466 L75.2407177,88.7841422 Z" id="Fill-82" fill="#595A51"></path>
                <path d="M66.8890694,48.3047466 L63.5614595,56.4084554 L60.1686023,56.4084554 L59.4769815,59.6577685 L48.0848111,64.9819444 L48.0848111,62.9853784 L57.9762946,56.891285 L57.9762946,54.0595543 L62.5958001,54.0595543 L64.1225859,47.2085927 C65.2970364,47.2999389 66.2104979,47.652274 66.8890694,48.3047466" id="Fill-84" fill="#595A51"></path>
                <path d="M63.3135199,47.1824938 L61.9563771,53.2504883 L57.1802782,53.2504883 L57.1802782,56.4345543 L48.3979979,61.8370268 L60.3773935,47.1694444 L61.3430529,47.1694444 C62.0085749,47.1824938 62.6610474,47.1824938 63.3135199,47.1824938" id="Fill-86" fill="#CD8AAD"></path>
                <polygon id="Fill-88" fill="#F6C838" points="59.346487 47.1824938 47.6933276 61.4455433 36.0401683 47.130296 58.3155804 47.1694444"></polygon>
                <path d="M47.2887946,62.9462301 L47.2887946,64.942796 L35.9488221,59.6447191 L35.2572012,56.3954059 L31.890443,56.3954059 L28.993465,47.913263 C29.6850859,47.4173839 30.4811023,47.1172466 31.1466243,47.1172466 L31.2901683,47.1172466 L32.8430529,54.0465048 L37.4625584,54.0465048 L37.4625584,56.8782356 L47.2887946,62.9462301 Z" id="Fill-100" fill="#595A51"></path>
                <path d="M35.0092617,47.130296 L46.9364595,61.784829 L38.2455254,56.4345543 L38.2455254,53.2504883 L33.4694265,53.2504883 L32.0992342,47.1172466 C33.077943,47.130296 34.0436023,47.130296 35.0092617,47.130296" id="Fill-102" fill="#CD8AAD"></path>
                <path d="M33.0648935,57.2044718 C34.7482727,67.4091422 34.1610474,79.4407356 31.3423661,92.9730158 L19.6761573,92.9730158 C19.7022562,92.5945817 19.7153056,92.2161477 19.7414045,91.850763 C19.7936023,90.8459554 19.8327507,89.8933455 19.9762946,88.953785 C22.0511573,84.751862 23.5909924,76.3088674 23.2908551,70.8150488 C24.243465,66.0389499 25.2613221,61.1976037 26.2400309,56.5259004 C26.7228606,54.2291971 27.2056902,51.9194444 27.6885199,49.6227411 C27.7668166,49.2704059 27.9886573,48.8789224 28.3409924,48.5004883 L31.3162672,57.2175213 L33.0648935,57.2175213 L33.0648935,57.2044718 Z" id="Fill-104" fill="#595A51"></path>
                <path d="M68.0113221,63.9249389 L66.9804155,68.5835927 L63.9920913,63.0767246 C63.9920913,63.0114773 63.9920913,62.9462301 64.0051408,62.8809828 C64.0051408,62.7765872 64.0051408,62.6721916 64.0181902,62.567796 L64.0181902,62.045818 L64.0181902,61.8761751 L64.0181902,61.7978784 L64.0181902,61.6021367 L64.0181902,61.5629883 C64.0181902,61.4977411 64.0181902,61.4455433 64.0051408,61.380296 C64.0051408,61.2367521 63.9920913,61.0801587 63.9790419,60.9366147 C63.9790419,60.858318 63.9659924,60.7800213 63.9659924,60.714774 C63.952943,60.5581806 63.9398935,60.4146367 63.9268441,60.2580433 C63.9268441,60.1797466 63.9137946,60.1014499 63.9137946,60.0231532 C63.9007452,59.9448565 63.9007452,59.8665598 63.8876957,59.788263 C63.8746463,59.6316696 63.8615968,59.4881257 63.8354979,59.3315323 C63.8224485,59.2401861 63.8224485,59.1618894 63.809399,59.0705433 C63.7963496,58.9400488 63.7702507,58.8095543 63.7572012,58.6790598 C63.7572012,58.6529609 63.7441518,58.626862 63.7441518,58.600763 C63.7311023,58.5355158 63.7311023,58.4702685 63.7180529,58.4050213 C63.7050034,58.2745268 63.6789045,58.1309828 63.6528056,58.0004883 C63.6528056,57.9874389 63.6528056,57.96134 63.6397562,57.9482905 C63.6267067,57.8699938 63.6136573,57.8047466 63.6006078,57.7264499 C63.5875584,57.6481532 63.5745089,57.5829059 63.5614595,57.5046092 C63.54841,57.4263125 63.5353606,57.3610652 63.5223111,57.2827685 C63.4440144,56.8390872 63.3396188,56.4215048 63.2482727,56.0169718 C63.2221738,55.8864773 63.1830254,55.7559828 63.1438771,55.6385378 C63.1308276,55.6124389 63.1308276,55.5993894 63.1308276,55.5732905 C63.1047287,55.4558455 63.0655804,55.3514499 63.0394815,55.2340048 C62.9350859,53.8246641 62.8306902,52.7807081 62.7393441,52.141285 C62.6871463,51.7759004 62.5827507,51.214774 62.4261573,50.4579059 L62.4261573,50.4448565 C62.4392067,50.4448565 62.4392067,50.431807 62.4522562,50.431807 C62.7001957,50.2752136 62.9220364,50.0925213 63.1177782,49.8706806 C64.5662672,51.9063949 65.5188771,53.3940323 65.8712122,54.2161477 C66.7716243,56.3432081 67.8808276,63.1289224 68.0113221,63.9249389" id="Fill-106" fill="#8F3880"></path>
                <path d="M62.1912672,83.3555707 L67.8547287,83.7992521 C67.6198386,84.6344169 67.4501957,85.1172466 67.2153056,85.8349663 L62.4783551,85.3260378 L62.3348111,85.3129883 L56.0580254,84.7388125 L56.0580254,82.8727411 L62.0607727,83.3425213 L62.1912672,83.3555707 Z" id="Fill-108" fill="#595A51"></path>
                <path d="M64.6445639,93.6124389 L64.7489595,94.0952685 L49.2070639,94.0952685 L48.9460749,93.6254883 L48.7111848,93.2209554 L48.7372837,93.2209554 L48.6459375,93.064362 L49.5724485,93.064362 L49.6898935,93.2731532 L63.7441518,93.2731532 C63.7311023,93.2079059 63.7180529,93.1296092 63.7050034,93.064362 L64.5271188,93.064362 C64.5662672,93.2601037 64.6054155,93.4297466 64.6445639,93.6124389" id="Fill-110" fill="#1A1919"></path>
                <path d="M63.2221738,63.3638255 L63.169976,63.2594299 C63.1569265,63.5465179 63.1308276,63.8205563 63.1047287,64.0684959 C63.0655804,64.420831 62.8176408,65.0472047 61.9563771,66.1303091 L61.9433276,66.1955563 L61.5257452,66.6653365 L61.1995089,67.0176717 C61.17341,67.0568201 61.1342617,67.082919 61.1081628,67.1220673 C60.8863221,67.3700069 60.651432,67.6179464 60.4165419,67.865886 L60.1816518,68.1007761 L59.9467617,68.3356662 L59.7640694,68.5183585 C59.2812397,68.9881387 58.8375584,69.4187706 58.4721738,69.7450069 C58.7201133,68.2965179 59.0724485,65.9215179 58.8245089,64.8775618 C58.79841,64.7601168 58.7723111,64.6426717 58.7462122,64.5252266 C58.7331628,64.4730288 58.7201133,64.4077816 58.7070639,64.3555838 C58.680965,64.2511882 58.6679155,64.1467926 58.6418166,64.0293475 C58.6287672,63.9901992 58.6287672,63.9641003 58.6287672,63.9249519 C58.6026683,63.7422596 58.5635199,63.5465179 58.537421,63.3507761 C58.5243716,63.2724794 58.5113221,63.1941827 58.4982727,63.115886 C58.4591243,62.8287981 58.419976,62.5156113 58.3677782,62.189375 C58.3547287,62.0327816 58.3286298,61.8761882 58.3155804,61.7065453 C58.3025309,61.5630014 58.276432,61.406408 58.2633826,61.2498146 C58.2503331,61.1584684 58.2372837,61.0671223 58.2372837,60.9627266 L58.2242342,60.8191827 L58.1850859,60.3885508 C58.1198386,59.670831 58.0545913,58.9531113 57.9893441,58.2484409 C57.8979979,57.2827816 57.8197012,56.3823695 57.7414045,55.6385508 C57.4543166,53.1461058 58.5243716,51.6845673 59.607476,50.8755014 C59.6596738,50.836353 59.6988221,50.7972047 59.7510199,50.7711058 C59.8032177,50.7841552 59.868465,50.7972047 59.9206628,50.8233036 C59.9467617,50.8233036 59.9598111,50.836353 59.98591,50.836353 C60.0250584,50.8494025 60.0511573,50.8494025 60.0903056,50.8624519 C60.129454,50.8755014 60.1555529,50.8755014 60.1947012,50.8755014 C60.2338496,50.8755014 60.2599485,50.8885508 60.2990968,50.8885508 C60.3382452,50.8885508 60.3643441,50.9016003 60.4034924,50.9016003 L60.4295913,50.9016003 L60.4556902,50.9016003 C60.4948386,50.9016003 60.5209375,50.9016003 60.5600859,50.9146497 L60.5861848,50.9146497 L60.7166793,50.9146497 C60.8471738,50.9146497 60.9646188,50.9016003 61.0951133,50.8885508 L61.0951133,50.9146497 C61.1342617,51.1886882 61.1864595,51.4627266 61.2386573,51.7498146 C61.2517067,51.8542102 61.2778056,51.9586058 61.3039045,52.0630014 C61.4735474,52.9634135 61.6823386,53.8507761 61.9172287,54.398853 C62.0346738,54.6859409 62.1521188,55.0121772 62.2565144,55.3645124 L62.2565144,55.325364 C62.2565144,55.3514629 62.2695639,55.3906113 62.2695639,55.4167102 C62.36091,55.7168475 62.4522562,56.0430838 62.5305529,56.3693201 C62.621899,56.773853 62.7132452,57.1914354 62.7915419,57.6220673 C62.8045913,57.6873146 62.8176408,57.7395124 62.8176408,57.8047596 L62.8176408,57.8178091 C63.0786298,59.3445948 63.2221738,60.9888255 63.2091243,62.450364 C63.2091243,62.6852541 63.1960749,62.9201442 63.1830254,63.1419849 C63.169976,63.233331 63.1960749,63.2985783 63.2221738,63.3638255" id="Fill-112" fill="#8F3880"></path>
                <path d="M60.8080254,45.4077685 C61.434399,45.4077685 63.0916793,45.8905982 63.1569265,47.9524114 C62.8437397,50.3013125 60.3251957,50.2491147 59.5552782,49.7793345 C58.7070639,49.2704059 57.9110474,47.4043345 59.1898935,46.0732905 C59.4769815,45.7862026 59.8554155,45.5904609 60.246899,45.4860652 C60.3121463,45.4730158 60.3773935,45.4599663 60.4426408,45.4469169 C60.5600859,45.420818 60.6905804,45.4077685 60.8080254,45.4077685" id="Fill-120" fill="#8F3880"></path>
                <polygon id="Fill-132" fill="#F6C838" points="47.8760199 91.7072191 48.658987 93.0774114 47.0930529 93.0774114"></polygon>
                <path d="M47.0800034,93.0774114 L46.9886573,93.2340048 L47.0408551,93.2340048 L46.805965,93.6385378 L46.5319265,94.108318 L31.2118716,94.108318 L31.3162672,93.6254883 C31.3554155,93.442796 31.3945639,93.2601037 31.4337122,93.0774114 L32.2558276,93.0774114 C32.2427782,93.1557081 32.2297287,93.2209554 32.2166793,93.2992521 L46.0360474,93.2992521 L46.1665419,93.0774114 C46.4666793,93.0774114 46.7798661,93.0774114 47.0800034,93.0774114" id="Fill-134" fill="#1A1919"></path>
                <path d="M44.6397562,78.3445817 C44.6397562,77.9661477 44.3265694,77.6529609 43.9481353,77.6529609 C43.5697012,77.6529609 43.2565144,77.9661477 43.2565144,78.3445817 C43.2565144,78.5403235 43.3348111,78.7099663 43.4653056,78.8404609 C43.5958001,78.9709554 43.765443,79.0362026 43.9481353,79.0362026 C44.0525309,79.0362026 44.1569265,79.0101037 44.2482727,78.9709554 C44.287421,78.9579059 44.3135199,78.931807 44.3526683,78.9057081 C44.3657177,78.8926587 44.3787672,78.8796092 44.4048661,78.8665598 C44.54841,78.7491147 44.6397562,78.5533729 44.6397562,78.3445817 M45.4488221,78.3445817 C45.4488221,78.788263 45.2530804,79.1797466 44.952943,79.453785 C44.9137946,79.4929334 44.8615968,79.5320817 44.8224485,79.5581806 C44.5745089,79.7408729 44.2743716,79.8452685 43.9481353,79.8452685 C43.5827507,79.8452685 43.2565144,79.714774 42.9955254,79.5059828 C42.6562397,79.2319444 42.4474485,78.814362 42.4474485,78.3445817 C42.4474485,77.5224663 43.1260199,76.8438949 43.9481353,76.8438949 C44.7702507,76.8438949 45.4488221,77.5224663 45.4488221,78.3445817" id="Fill-136" fill="#1A1919"></path>
                <path d="M44.6397562,68.7923839 C44.6397562,68.4139499 44.3265694,68.100763 43.9481353,68.100763 C43.5697012,68.100763 43.2565144,68.4139499 43.2565144,68.7923839 C43.2565144,69.170818 43.5697012,69.4840048 43.9481353,69.4840048 C44.3265694,69.4840048 44.6397562,69.170818 44.6397562,68.7923839 M43.9481353,67.2916971 C44.7702507,67.2916971 45.4488221,67.9702685 45.4488221,68.7923839 C45.4488221,69.6144993 44.7702507,70.2930707 43.9481353,70.2930707 C43.1260199,70.2930707 42.4474485,69.6144993 42.4474485,68.7923839 C42.4474485,67.9572191 43.1260199,67.2916971 43.9481353,67.2916971" id="Fill-138" fill="#1A1919"></path>
                <path d="M26.8533551,83.8123015 L38.754454,82.7813949 C38.6631078,83.4469169 38.7022562,84.2298839 38.61091,84.869307 L27.4405804,85.7566696 L26.8533551,83.8123015 Z" id="Fill-144" fill="#595A51"></path>
                <g id="Group-150" transform="translate(25.707418, 44.579533)">
                    <path d="M13.048237,38.2022665 L1.14713805,39.2331731 L1.73436332,41.1905907 L12.904693,40.303228 C12.9960391,39.6507555 12.9568908,38.854739 13.048237,38.2022665 Z M32.5571655,5.2393544 C32.5180172,5.18715659 32.4658194,5.13495879 32.426671,5.06971154 C32.4005721,5.04361264 32.3744732,5.00446429 32.3614238,4.96531593 C32.3353249,4.92616758 32.309226,4.88701923 32.2961765,4.84787088 L32.3157507,4.86744505 C32.2974815,4.84787088 32.2805172,4.8282967 32.2700776,4.80872253 C32.2570282,4.78262363 32.2439787,4.75652473 32.2178798,4.73042582 C31.9829897,4.31284341 31.8655446,3.84306319 31.8655446,3.37328297 L31.8655446,3.09924451 C31.8263963,3.11229396 31.8002974,3.11229396 31.761149,3.12534341 C31.6176051,3.15144231 31.4740611,3.17754121 31.3044183,3.21668956 C28.8902699,3.67342033 23.448649,4.62603022 21.2302424,4.46943681 C18.698649,4.28674451 12.4349128,2.18578297 10.2817534,1.44196429 L10.3052424,1.44196429 C10.2399952,1.41586538 10.1747479,1.38976648 10.1095007,1.37671703 L10.1095007,1.44196429 L10.0990611,1.44196429 L10.0990611,2.30322802 C10.4774952,2.79910714 12.121726,4.95226648 13.022138,5.63083791 C14.3792809,6.66174451 17.0152699,8.18853022 18.3593633,8.22767857 C21.3215886,8.30597527 30.0255721,5.94402473 32.5571655,5.2393544 Z M37.4637589,3.37328297 C37.3985117,1.31146978 35.7412315,0.82864011 35.1148578,0.82864011 C34.9974128,0.82864011 34.8669183,0.84168956 34.7494732,0.854739011 C34.684226,0.867788462 34.6189787,0.880837912 34.5537315,0.893887363 C34.1622479,0.998282967 33.7968633,1.19402473 33.496726,1.48111264 C32.2178798,2.82520604 33.0138963,4.67822802 33.8621106,5.18715659 C34.6189787,5.66998626 37.1505721,5.72218407 37.4637589,3.37328297 Z M37.4898578,17.8973214 C37.5029073,16.435783 37.3593633,14.7915522 37.0983743,13.2647665 L37.0983743,13.1081731 C37.0983743,13.0559753 37.0983743,13.0168269 37.0853249,12.9646291 C37.0853249,12.990728 37.0722754,13.0298764 37.0722754,13.0559753 C36.9939787,12.6253434 36.9026326,12.207761 36.8112864,11.803228 C36.7329897,11.4639423 36.6416435,11.1507555 36.5502974,10.8506181 C36.5372479,10.8245192 36.5372479,10.7984203 36.5372479,10.759272 L36.5372479,10.7984203 C36.4328523,10.4460852 36.3154073,10.1198489 36.1979622,9.83276099 C35.9761216,9.28468407 35.7673304,8.39732143 35.584638,7.49690934 C35.5585391,7.39251374 35.5454897,7.28811813 35.5193908,7.18372253 C35.467193,6.89663462 35.4149952,6.62259615 35.3758468,6.34855769 L35.3758468,6.32245879 C35.2453523,6.33550824 35.1279073,6.34855769 34.9974128,6.34855769 L34.8669183,6.34855769 L34.8408194,6.34855769 C34.801671,6.34855769 34.7755721,6.34855769 34.7364238,6.33550824 L34.7103249,6.33550824 L34.684226,6.33550824 C34.6450776,6.33550824 34.6189787,6.33550824 34.5798304,6.32245879 C34.540682,6.32245879 34.5145831,6.30940934 34.4754348,6.30940934 C34.4362864,6.30940934 34.4101875,6.29635989 34.3710391,6.29635989 C34.3318908,6.29635989 34.3057919,6.28331044 34.2666435,6.27026099 C34.2405446,6.27026099 34.2274952,6.25721154 34.2013963,6.25721154 C34.1491985,6.24416209 34.0839512,6.23111264 34.0317534,6.20501374 C33.9795556,6.24416209 33.9404073,6.27026099 33.8882095,6.30940934 C32.8181545,7.11847527 31.7350501,8.56696429 32.022138,11.0724588 C32.1134842,11.8162775 32.1917809,12.729739 32.2700776,13.6823489 C32.3353249,14.3870192 32.4005721,15.104739 32.4658194,15.8224588 L32.5049677,16.2530907 L32.5180172,16.3966346 C32.5310666,16.4879808 32.5441161,16.5923764 32.5441161,16.6837225 C32.5571655,16.8403159 32.5832644,16.9969093 32.5963139,17.1404533 C32.6093633,17.3100962 32.6354622,17.4666896 32.6485117,17.623283 C32.68766,17.9495192 32.7268084,18.262706 32.7790062,18.549794 C32.7920556,18.6280907 32.8051051,18.7063874 32.8181545,18.7846841 C32.8442534,18.9804258 32.8834018,19.1761676 32.9095007,19.3588599 C32.9095007,19.3980082 32.9225501,19.4241071 32.9225501,19.4632555 C32.948649,19.5807005 32.9616985,19.6850962 32.9877974,19.7894918 C33.0008468,19.8416896 33.0138963,19.9069368 33.0269457,19.9591346 C33.0530446,20.0765797 33.0791435,20.2070742 33.1052424,20.3114698 C33.353182,21.3554258 33.0008468,23.7304258 32.7529073,25.1789148 C33.1182919,24.8396291 33.5750227,24.4220467 34.0448029,23.9522665 C34.1100501,23.9000687 34.1622479,23.8348214 34.2274952,23.7695742 C34.3057919,23.6912775 34.3840886,23.6129808 34.4623853,23.5346841 C34.540682,23.4563874 34.6189787,23.3780907 34.6972754,23.299794 C34.9321655,23.0518544 35.1670556,22.8039148 35.3888963,22.5559753 C35.4149952,22.5168269 35.4541435,22.490728 35.4802424,22.4515797 L35.8064787,22.0992445 L36.2240611,21.6294643 L36.2371106,21.564217 C37.0983743,20.4811126 37.3463139,19.854739 37.3854622,19.5024038 C37.4246106,19.2414148 37.4507095,18.9804258 37.4637589,18.6933379 L37.4911628,18.7468407 C37.4715886,18.6946429 37.4637589,18.6385302 37.4637589,18.5889423 C37.4768084,18.3671016 37.4768084,18.1322115 37.4898578,17.8973214 Z M42.1485117,39.2331731 L36.4850501,38.7894918 L36.3415062,38.7764423 L30.3387589,38.3066621 L30.3387589,40.1727335 L36.6155446,40.7469093 L36.7590886,40.7599588 L41.4960391,41.2688874 C41.7439787,40.5511676 41.9136216,40.0683379 42.1485117,39.2331731 Z M41.2741985,24.0175137 L42.3051051,19.3588599 C42.1746106,18.5628434 41.0654073,11.7771291 40.1519457,9.65006868 C39.7996106,8.84100275 38.8600501,7.34031593 37.3985117,5.30460165 C37.2027699,5.51339286 36.9809293,5.70913462 36.7329897,5.86572802 C36.7199402,5.86572802 36.7199402,5.87877747 36.7068908,5.87877747 L36.7068908,5.89182692 C36.8634842,6.64869505 36.9678798,7.20982143 37.0200776,7.57520604 C37.1114238,8.22767857 37.2158194,9.25858516 37.320215,10.6679258 C37.3593633,10.7723214 37.3854622,10.8897665 37.4115611,11.0072115 C37.4246106,11.0333104 37.4246106,11.0463599 37.4246106,11.0724588 C37.4637589,11.2029533 37.4898578,11.3203984 37.5290062,11.4508929 C37.6334018,11.8554258 37.7247479,12.2860577 37.8030446,12.7166896 C37.8160941,12.7949863 37.8291435,12.8602335 37.842193,12.9385302 C37.8552424,13.0168269 37.8682919,13.0820742 37.8813413,13.1603709 C37.8943908,13.2386676 37.9074402,13.3039148 37.9204897,13.3822115 C37.9204897,13.395261 37.9204897,13.4213599 37.9335391,13.4344093 C37.959638,13.5649038 37.9726875,13.6953984 37.9987864,13.8389423 C38.0118359,13.9041896 38.0248853,13.9694368 38.0248853,14.0346841 C38.0248853,14.060783 38.0379348,14.0868819 38.0379348,14.1129808 C38.0509842,14.2434753 38.0770831,14.3739698 38.0901326,14.5044643 C38.103182,14.5958104 38.1162315,14.6741071 38.1162315,14.7654533 C38.1292809,14.9220467 38.1553798,15.0655907 38.1684293,15.2221841 C38.1814787,15.3004808 38.1814787,15.3787775 38.1945282,15.4570742 C38.2075776,15.5353709 38.2075776,15.6136676 38.2075776,15.6919643 C38.2206271,15.8485577 38.2336765,15.9921016 38.246726,16.1486951 C38.246726,16.2269918 38.2597754,16.3052885 38.2597754,16.3705357 C38.2728249,16.5271291 38.2728249,16.6706731 38.2858743,16.814217 C38.2858743,16.8794643 38.2858743,16.9316621 38.2989238,16.9969093 L38.2989238,18.001717 C38.2989238,18.1061126 38.2989238,18.2105082 38.2858743,18.3149038 C38.2858743,18.3801511 38.2858743,18.4453984 38.2728249,18.5106456 L41.2741985,24.0175137 Z M43.2316161,38.5024038 L42.1615611,42.0518544 L37.581204,41.634272 C37.9335391,43.865728 38.3511216,46.1754808 38.8339512,48.498283 L38.0118359,48.498283 C37.5290062,46.1493819 37.1114238,43.8135302 36.7590886,41.5559753 L29.5557919,40.9035027 L29.5557919,37.4323489 L36.2632095,37.9543269 C35.6368359,32.9955357 35.3497479,28.2324863 35.4149952,23.7565247 C35.1540062,24.0175137 34.9060666,24.2785027 34.6581271,24.5264423 C34.5798304,24.604739 34.5145831,24.6699863 34.4362864,24.748283 C33.9926051,25.1789148 33.5880721,25.5573489 33.2487864,25.8574863 C33.209638,25.8966346 33.1704897,25.9227335 33.1313413,25.9618819 C33.0399952,26.0401786 32.9616985,26.1184753 32.8834018,26.1837225 C32.831204,26.2228709 32.7920556,26.2620192 32.7529073,26.3011676 C32.68766,26.3664148 32.6224128,26.4186126 32.570215,26.457761 C32.5571655,26.4708104 32.5571655,26.4708104 32.5441161,26.4838599 L32.5310666,26.4969093 C32.5180172,26.5099588 32.5049677,26.5230082 32.4919183,26.5360577 C32.4527699,26.5621566 32.4397205,26.5882555 32.4397205,26.5882555 C32.3614238,26.6535027 32.2700776,26.6796016 32.1787315,26.6796016 C32.1134842,26.6796016 32.0351875,26.6665522 31.9699402,26.6274038 C31.8263963,26.5360577 31.7480996,26.3664148 31.7872479,26.196772 C32.0351875,24.9962225 32.6354622,21.6164148 32.3614238,20.5072115 C32.3353249,20.4028159 32.309226,20.2984203 32.2831271,20.1809753 C32.2700776,20.1287775 32.2570282,20.0635302 32.2439787,20.0113324 C32.1787315,19.6981456 32.1134842,19.3588599 32.0612864,18.9673764 C32.0351875,18.8238324 32.022138,18.667239 31.9960391,18.5106456 C31.9829897,18.4323489 31.9699402,18.3410027 31.9568908,18.262706 C31.9438413,18.2105082 31.9438413,18.1583104 31.9307919,18.1061126 C31.9307919,18.0800137 31.9177424,18.0539148 31.9177424,18.0278159 C31.904693,17.9756181 31.904693,17.9103709 31.8916435,17.8581731 C31.8785941,17.7668269 31.8655446,17.6754808 31.8524952,17.5841346 C31.8394457,17.4405907 31.8133468,17.2970467 31.8002974,17.1404533 C31.8002974,17.1143544 31.7872479,17.0882555 31.7872479,17.0491071 L22.5743359,21.3554258 L22.5743359,46.2276786 L23.8662315,48.498283 L22.9397205,48.498283 L22.1567534,47.1280907 L21.3737864,48.498283 L20.4472754,48.498283 L21.7652699,46.1885302 L21.7652699,21.3423764 L9.61623146,15.6658654 L8.97680838,12.6383929 L8.2329897,12.6383929 C9.4465886,20.1287775 9.4726875,28.5978709 8.32433585,37.8629808 L13.7790062,37.4323489 L13.7790062,40.9035027 L7.82845673,41.4385302 C7.47612157,43.7352335 7.0454897,46.1102335 6.54961058,48.498283 L5.72749519,48.498283 C6.21032486,46.1363324 6.64095673,43.7874313 6.9932919,41.5168269 L1.1601875,42.0518544 L0.0901325549,38.5024038 L7.51526992,37.9151786 C8.70276992,28.4804258 8.66362157,19.854739 7.37172596,12.2991071 L7.29342926,11.8293269 L9.64233036,11.8293269 L10.3470007,15.104739 L22.2089512,20.6507555 L22.2220007,20.6507555 L31.7220007,16.2139423 C31.643704,15.3918269 31.5654073,14.5697115 31.50016,13.7736951 C31.4218633,12.8210852 31.3305172,11.9206731 31.2522205,11.1768544 C30.9520831,8.52781593 31.9829897,6.89663462 33.1313413,5.91792582 C32.8442534,5.99622253 32.3875227,6.12671703 31.6176051,6.33550824 C30.5866985,6.6095467 28.9946655,7.04017857 27.2851875,7.45776099 C23.0180172,8.50171703 20.0688413,9.03674451 18.5029073,9.03674451 L18.3332644,9.03674451 C16.6498853,8.9845467 13.7007095,7.15762363 12.5393084,6.28331044 C11.4301051,5.4481456 9.45963805,2.79910714 9.3682919,2.68166209 C9.31609409,2.61641484 9.28999519,2.52506868 9.28999519,2.44677198 L9.28999519,1.44196429 L9.30043475,1.44196429 L9.30043475,0.802541209 C9.30043475,0.672046703 9.36568201,0.554601648 9.47007761,0.476304945 C9.57447321,0.398008242 9.71801717,0.384958791 9.83546223,0.424107143 C9.87461058,0.437156593 11.1534567,0.893887363 12.8629348,1.44196429 L12.8394457,1.44196429 C15.5928798,2.34237637 19.4946655,3.52987637 21.2824402,3.66037088 C23.3051051,3.80391484 28.3552424,2.92960165 30.860737,2.47287088 C30.9520831,2.45982143 31.0303798,2.44677198 31.1086765,2.42067308 C31.5523578,2.34237637 31.8916435,2.27712912 32.0873853,2.23798077 C32.1395831,2.10748626 32.2048304,1.99004121 32.2831271,1.87259615 C32.3483743,1.74210165 32.4136216,1.61160714 32.4919183,1.48111264 C33.0399952,0.619848901 34.018704,0.0456730769 35.1148578,0.0456730769 C36.2240611,0.0456730769 37.1897205,0.619848901 37.7508468,1.49416209 C38.0509842,1.97699176 38.2336765,2.55116758 38.2336765,3.16449176 C38.2336765,3.67342033 38.1162315,4.15625 37.8943908,4.58688187 L37.8943908,4.59993132 C38.696932,5.71565934 39.3494045,6.67218407 39.8505034,7.46037088 C40.3502974,8.25116758 40.7000227,8.87362637 40.8957644,9.32383242 C41.9005721,11.6727335 43.0750227,18.9934753 43.114171,19.3066621 C43.1272205,19.3588599 43.1272205,19.4110577 43.114171,19.4632555 L41.8353249,25.2572115 C41.7961765,25.4268544 41.665682,25.5442995 41.4960391,25.5703984 L41.4438413,25.5703984 C41.3002974,25.5703984 41.1567534,25.4921016 41.0915062,25.3616071 L38.1292809,19.9199863 C37.9204897,20.6638049 37.2810666,21.6425137 36.2110117,22.8691621 C36.1940474,23.5581731 36.1849128,24.2550137 36.1849128,24.9596841 C36.1849128,29.0950549 36.4798304,33.4809753 37.059226,38.0195742 L43.2316161,38.5024038 Z" id="Fill-146" fill="#1A1919"></path>
                    <path d="M32.426671,5.06971154 C32.4658194,5.13495879 32.5180172,5.18715659 32.5571655,5.2393544 C30.0255721,5.94402473 21.3215886,8.30597527 18.3593633,8.22767857 C17.0152699,8.18853022 14.3792809,6.66174451 13.022138,5.63083791 C12.121726,4.95226648 10.4774952,2.79910714 10.0990611,2.30322802 L10.0990611,1.44196429 L10.1095007,1.44196429 L10.1095007,1.37671703 C10.1747479,1.38976648 10.2399952,1.41586538 10.3052424,1.44196429 L10.2817534,1.44196429 C12.4349128,2.18578297 18.698649,4.28674451 21.2302424,4.46943681 C23.448649,4.62603022 28.8902699,3.67342033 31.3044183,3.21668956 C31.4740611,3.17754121 31.6176051,3.15144231 31.761149,3.12534341 C31.8002974,3.11229396 31.8263963,3.11229396 31.8655446,3.09924451 L31.8655446,3.37328297 C31.8655446,3.84306319 31.9829897,4.31284341 32.2178798,4.73042582 C32.2439787,4.75652473 32.2570282,4.78262363 32.2700776,4.80872253 C32.2805172,4.8282967 32.2974815,4.84787088 32.3157507,4.86744505 L32.2961765,4.84787088 C32.309226,4.88701923 32.3353249,4.92616758 32.3614238,4.96531593 C32.3744732,5.00446429 32.4005721,5.04361264 32.426671,5.06971154" id="Fill-148" fill="#8F377D"></path>
                </g>
                <path d="M22.6122837,71.9112157 C22.6905804,77.1179464 21.3595364,84.1255014 19.6631078,88.1447321 C20.5896188,82.7161607 21.5552782,77.3006387 22.6122837,71.9112157" id="Fill-151" fill="#1A1919"></path>
                <path d="M22.5731353,70.8411477 C22.5861848,71.1934828 22.5992342,71.545818 22.6122837,71.9112026 C21.5552782,77.3136751 20.5896188,82.7291971 19.6631078,88.1447191 C19.5326133,88.4709554 19.3890694,88.7710927 19.2455254,89.0581806 C19.2585749,88.9668345 19.2716243,88.8885378 19.2846738,88.7971916 C20.276432,83.0684828 21.2812397,77.339774 22.4165419,71.6371641 C22.4687397,71.3761751 22.5209375,71.1021367 22.5731353,70.8411477" id="Fill-153" fill="#1A1919"></path>
                <path d="M63.6397562,13.2147871 L63.2091243,45.6426717 L63.9398935,60.7930838 L71.7304155,60.7930838 C71.7304155,60.7930838 74.4055529,57.1261882 74.9927782,50.5362157 C76.1150309,37.9304464 74.8361848,24.0066827 71.2345364,11.8967926 C70.5429155,9.60008929 69.7077507,7.26423764 68.1026683,5.47646291 C63.6006078,0.465473901 54.9618716,0.609017857 48.8155804,0.530721154 C41.2208001,0.439375 27.8973111,0.843907967 24.3217617,8.63442995 C20.8897562,16.1117651 20.0545913,24.4242651 19.8458001,32.5540728 C19.8066518,34.2766003 20.3547287,50.7319574 19.232476,51.0581937 L23.3300034,49.8576442 C23.3300034,49.8576442 22.6253331,60.1928091 23.3300034,60.7800343 C25.5875584,62.6852541 32.2166793,60.7800343 32.2166793,60.7800343 L32.2166793,17.2731662 C32.2166793,17.2731662 39.6157177,18.2779739 43.7132452,17.3123146 C47.1583001,16.4901992 58.419976,12.9276992 63.6397562,13.2147871" id="Fill-155" fill="#46341F"></path>
                <path d="M23.6068997,60.5011154 C25.2670508,61.852125 29.8497569,61.0073036 31.8253132,60.4820632 L31.8253132,16.8249959 L32.269386,16.8852843 C32.3425934,16.8952019 39.644283,17.8690824 43.6234519,16.9312184 C44.3479574,16.7583132 45.4528544,16.454522 46.732092,16.1027088 C51.5025797,14.7905865 59.4846676,12.593842 63.6612747,12.8240343 L64.0361854,12.844522 L63.6007253,45.6358338 L64.3129643,60.4015481 L71.5225247,60.4015481 C72.0224492,59.6330659 74.1004437,56.139728 74.6028475,50.5014519 C75.7309725,37.8304354 74.366522,23.8003187 70.8593516,12.0084437 C70.2289327,9.91544231 69.4213022,7.5310467 67.8113915,5.7379217 C63.6300865,1.08396566 55.5605673,0.996142857 49.6684794,0.932070055 C49.3777376,0.928807692 49.0915632,0.925806319 48.8106085,0.922282967 C45.2102651,0.878697802 39.8782596,0.944336538 35.1474423,2.00878022 C29.7056909,3.23307967 26.1832527,5.517125 24.6776071,8.79762637 C21.1027102,16.5863214 20.4267486,25.1825165 20.2371401,32.5640687 C20.2295714,32.8939588 20.2444478,33.7937184 20.2650659,35.0390275 C20.3077376,37.6211223 20.3723324,41.5234299 20.3141319,44.8655247 C20.2818997,46.7124135 20.2146951,48.1701676 20.1144753,49.1980728 C20.0627995,49.728272 20.0042074,50.1335879 19.9373942,50.4437734 L23.7587953,49.3241305 L23.7205604,49.8843434 C23.398239,54.6112459 23.2697019,59.8425096 23.6068997,60.5011154 M26.6337198,62.019158 C25.0108901,62.019158 23.8188228,61.7049272 23.0774835,61.0793365 C22.8595577,60.8976882 22.4919547,60.5912871 22.674386,55.0857239 C22.7375453,53.1818091 22.8470302,51.2982514 22.9034038,50.3905316 L19.3454712,51.4331827 C19.3441662,51.4334437 19.3429918,51.4338352 19.3418173,51.4342266 L19.122456,50.6825783 C19.0659519,50.6991511 19.0325453,50.7296868 19.0245852,50.7401264 C19.1254574,50.6102843 19.4609588,49.7734231 19.5374286,44.4583819 C19.5841456,41.2172898 19.5228132,37.5070701 19.4822294,35.0519464 C19.4614808,33.7977637 19.4464739,32.8916099 19.4544341,32.545147 C19.646,25.0829492 20.3320096,16.3882308 23.9660206,8.47099863 C25.5788022,4.95678159 29.2830192,2.52566896 34.975581,1.24486538 C39.7866525,0.162543956 45.1810343,0.0957307692 48.8202651,0.139315934 C49.1009588,0.142839286 49.3867418,0.145971154 49.6769615,0.149103022 C55.7142898,0.214872253 63.9825522,0.304782967 68.393919,5.21476923 C70.1114876,7.12794918 70.9543516,9.60878022 71.6094341,11.7838626 C75.1440082,23.6682582 76.5192898,37.80525 75.3828132,50.570875 C74.7925865,57.1929492 72.1585549,60.8705453 72.0467212,61.0238764 L71.9294066,61.1845151 L63.5669272,61.1845151 L62.8176277,45.6495357 L62.8177582,45.6375302 L63.2431703,13.5919945 C63.1665701,13.5906896 63.0887953,13.5899066 63.0097157,13.5899066 C58.8200591,13.5899066 51.4375934,15.6204011 46.9397088,16.857489 C45.6535549,17.2112596 44.5429162,17.5167473 43.8040563,17.6930453 C40.2155879,18.5387802 34.2848736,17.9191923 32.6082802,17.7173173 L32.6082802,61.0747692 L32.3248462,61.1563283 C32.2559451,61.1761635 30.6154986,61.6439863 28.6676071,61.8830522 C27.9282253,61.9738764 27.2499148,62.019158 26.6337198,62.019158" id="Fill-157" fill="#1A1919"></path>
                <path d="M38.9746635,14.4709663 C36.4777816,14.4709663 34.0697665,14.0321133 33.9200893,14.0041875 C33.7075137,13.9647782 33.5671016,13.7605543 33.606511,13.5479787 C33.6459203,13.3352727 33.8504052,13.1949911 34.0627198,13.2342699 C34.116092,13.244318 39.4170398,14.2094554 42.2884409,13.2858152 C42.8195536,13.1133015 43.6335783,12.8082054 44.5764011,12.4549567 C48.3129808,11.0546202 53.9586951,8.93669437 57.0529808,9.17067102 C57.2685577,9.18685234 57.4302404,9.37463393 57.4140591,9.59034135 C57.3978777,9.80591827 57.2094437,9.96681799 56.9943887,9.95128915 C54.0740522,9.73532074 48.3004533,11.8955268 44.851092,13.1880749 C43.8996566,13.5445859 43.0779327,13.8526834 42.5292033,14.0308084 C41.5057349,14.360046 40.2287157,14.4709663 38.9746635,14.4709663" id="Fill-159" fill="#5C4127"></path>
                <path d="M47.5367342,38.3219169 L47.4845364,38.3219169 C46.1143441,38.295818 42.1081628,37.1735652 41.9385199,37.1213674 C41.8341243,37.0952685 41.7688771,36.9778235 41.8080254,36.8734279 C41.8341243,36.7690323 41.9515694,36.703785 42.055965,36.7429334 C42.0951133,36.7559828 46.1795913,37.9043345 47.4975859,37.9304334 C48.8547287,37.9565323 52.9522562,36.9517246 52.9914045,36.9517246 C53.0958001,36.9256257 53.2001957,36.9908729 53.2262946,37.0952685 C53.2523935,37.1996641 53.1871463,37.3040598 53.0827507,37.3301587 C52.9000584,37.369307 48.9852232,38.3219169 47.5367342,38.3219169" id="Fill-161" fill="#1A1919"></path>
            </g>
        </g>
    </g>
</svg>