<?xml version="1.0" encoding="UTF-8"?>
<svg width="95px" height="150px" viewBox="0 0 95 150" version="1.1" xmlns="http://www.w3.org/2000/svg" xmlns:xlink="http://www.w3.org/1999/xlink">
    <!-- Generator: sketchtool 49.2 (51160) - http://www.bohemiancoding.com/sketch -->
    <title>B9CFAFE1-CB59-4B80-9A67-49C64E0923C2@1x</title>
    <desc>Created with sketchtool.</desc>
    <defs></defs>
    <g id="Web" stroke="none" stroke-width="1" fill="none" fill-rule="evenodd">
        <g id="About-Yevhen" transform="translate(-240.000000, -363.000000)" fill-rule="nonzero">
            <g id="lego_boy" transform="translate(240.000000, 363.000000)">
                <path d="M92.2074176,103.986135 C91.8550824,102.244367 91.5288462,100.671577 91.2287088,99.0987868 C90.9938187,97.889948 90.9938187,96.5901213 90.5501374,95.4592721 C88.8537088,91.1438475 83.4642857,91.3518198 80.9587912,93.8084922 C78.896978,95.8232236 78.4663462,98.7738302 80.0322802,101.347487 C80.606456,102.309359 81.0762363,103.245234 81.0892857,104.376083 C81.1023352,104.909012 81.1806319,105.428943 81.2458791,106.078856 C79.418956,105.67591 78.1662088,104.675043 77.3832418,103.167244 C75.8303571,100.190641 75.8042582,97.110052 77.0831044,94.042461 C77.4354396,93.1845754 77.9965659,92.4696707 78.8839286,92.0407279 C79.1057692,91.9237435 79.3276099,91.4818024 79.301511,91.2218371 C79.1710165,90.0649913 78.9100275,88.9211438 78.779533,87.7512998 C78.7403846,87.4393414 78.896978,86.9844021 79.1318681,86.8024263 C81.5068681,85.0086655 84.1559066,84.5797227 87.0267857,85.2816291 C87.5748626,85.4116118 87.875,85.7235702 87.875,86.347487 C87.875,87.2833622 87.9402473,88.2322357 88.0707418,89.1551127 C88.1098901,89.4670711 88.3708791,89.8960139 88.6318681,90.0129983 C91.7637363,91.3388215 93.290522,93.847487 93.8385989,97.0450607 C94.2431319,99.3587522 93.7342033,101.542461 92.5597527,103.570191 C92.5075549,103.674177 92.4292582,103.739168 92.2074176,103.986135 Z" id="XMLID_119_" fill="#FDCE12"></path>
                <path d="M88.657967,83.7608319 C89.1799451,84.0207972 89.9368132,84.2937608 90.0673077,84.7227036 C90.2760989,85.4246101 89.5061813,85.8015598 88.8798077,86.2305026 C88.8276099,84.5017331 87.5226648,84.3457539 86.3351648,84.1507799 C84.8736264,83.9168111 83.4642857,83.9428076 82.1201923,84.2807626 L82.0549451,83.9818024 C83.8688187,83.5398614 85.7348901,83.3708839 87.6270604,83.5788562 C87.9663462,83.617851 88.3578297,83.617851 88.657967,83.7608319 Z" id="XMLID_118_" fill="#F37D12"></path>
                <path d="M86.5570055,68.5528596 C87.5487637,73.3752166 88.5274725,78.2105719 89.5453297,83.1889081 C84.8083791,82.0060659 80.4498626,82.6819757 76.5089286,85.6065858 C75.8956044,82.0060659 75.3736264,78.5225303 74.6820055,75.0519931 C74.290522,73.0632582 73.6119505,71.1395147 73.1421703,69.1637782 C72.6201923,66.9670711 72.1373626,64.7573657 71.7067308,62.5476603 C70.8324176,58.0632582 70.0233516,53.5528596 69.1751374,49.0684575 C69.135989,48.847487 69.1229396,48.6135182 69.0837912,48.3405546 C70.1929945,47.9766031 71.3021978,48.0155979 72.3983516,48.2885615 C74.551511,48.847487 76.2218407,50.1993068 77.4354396,51.9410745 C79.2101648,54.5017331 80.8152473,57.1923744 82.4203297,59.8700173 C83.6339286,61.897747 84.7953297,63.9644714 85.8784341,66.0701906 C86.2699176,66.8110919 86.3873626,67.7079723 86.5570055,68.5528596 Z" id="XMLID_117_" fill="#F37D12"></path>
                <path d="M83.5817308,93.3535529 C86.426511,92.3786828 89.1146978,93.6785095 89.8715659,96.5511265 C88.2664835,94.627383 86.4134615,93.5615251 84.0123626,94.1984402 C81.5590659,94.8483536 80.5542582,96.6941075 80.3193681,99.0857886 C79.418956,97.0840555 81.0762363,94.2114385 83.5817308,93.3535529 Z" id="XMLID_116_" fill="#FEA621"></path>
                <path d="M82.0418956,83.9818024 L82.1071429,84.2807626 C80.9848901,84.5537262 79.9148352,85.034662 78.896978,85.7365685 C78.1662088,86.2435009 77.2005495,86.6984402 77.8660714,88.0112652 C77.7486264,88.0372617 77.6311813,88.05026 77.5137363,88.0762565 C77.1875,87.7642981 76.6263736,87.465338 76.6002747,87.1143847 C76.5741758,86.7504333 76.9526099,86.1785095 77.3049451,85.9705373 C78.3489011,85.3596187 79.4450549,84.7616984 80.5934066,84.3847487 C81.0762363,84.2417678 81.5590659,84.0987868 82.0418956,83.9818024 Z" id="XMLID_115_" fill="#F37D12"></path>
                <rect id="XMLID_114_" fill="#1669AA" x="22.4450549" y="91.6637782" width="50.2534341" height="6.18717504"></rect>
                <rect id="XMLID_113_" fill="#1669AA" x="49.4443681" y="138.52253" width="23.1497253" height="10.4636049"></rect>
                <path d="M72.581044,119.415078 L72.581044,137.456672 L49.3921703,137.456672 L49.3921703,136.546794 C49.3921703,131.685442 49.4052198,126.837088 49.3791209,121.975737 C49.3791209,121.35182 49.5357143,120.935875 50.0446429,120.558925 C50.4361264,120.272964 50.7362637,119.870017 51.1929945,119.40208 L72.581044,119.40208 L72.581044,119.415078 Z" id="XMLID_112_" fill="#1669AA"></path>
                <rect id="XMLID_111_" fill="#1669AA" x="50.9581044" y="99.0467938" width="21.5837912" height="19.3154246"></rect>
                <path d="M68.1181319,83.5398614 C68.3138736,83.617851 68.4182692,83.8388215 68.3399725,84.0467938 C68.2747253,84.202773 68.1311813,84.2937608 67.9745879,84.2937608 C67.9223901,84.2937608 67.8832418,84.2807626 67.831044,84.2677643 C65.1298077,83.2019064 62.1675824,79.3024263 61.9587912,76.5337955 C61.9457418,76.312825 62.1023352,76.1308492 62.3241758,76.117851 C62.5460165,76.1048527 62.7287088,76.2608319 62.7417582,76.4818024 C62.9244505,78.9514731 65.6909341,82.5779896 68.1181319,83.5398614 Z" id="XMLID_110_" fill="#000000"></path>
                <path d="M34.2417582,17.6516464 C34.5940934,19.4194107 35.3248626,24.2677643 34.4505495,25.5415945 C33.2369505,27.322357 31.3708791,28.7911612 29.948489,29.7400347 C29.5961538,29.9740035 29.2699176,30.1819757 28.9828297,30.3639515 C28.8653846,30.4289428 28.760989,30.4939341 28.6696429,30.5589255 C28.760989,29.6490468 28.904533,27.9722704 28.9697802,25.7235702 C29.0089286,24.4757366 29.0089286,23.0329289 28.9697802,21.4601386 C28.8914835,18.0805893 28.5782967,14.0381282 27.8214286,9.64471404 C27.7692308,9.35875217 27.8475275,9.08578856 28.0693681,8.79982669 C29.7266484,6.61611785 38.1304945,5.23830156 41.2232143,4.88734835 C41.2884615,4.87435009 41.3537088,4.86135182 41.4059066,4.82235702 C42.9065934,3.7694974 47.1607143,1.01386482 48.831044,0.870883882 C49.1572802,0.844887348 49.5226648,0.831889081 49.9141484,0.831889081 C55.5123626,0.831889081 66.8784341,3.5745234 67.3873626,6.79809359 C67.7788462,9.2287695 66.8914835,25.6455806 66.6826923,29.5450607 C66.6304945,29.4930676 66.5782967,29.4540728 66.5260989,29.4020797 C66.2259615,29.1161179 65.8866758,28.7781629 65.5343407,28.4272097 C64.5164835,27.3873484 63.459478,26.1915078 63.2115385,25.5025997 C62.415522,23.3448873 63.3681319,16.0918544 63.3811813,16.0138648 C63.4072802,15.8318891 63.2898352,15.6499133 63.1201923,15.5979203 C62.5199176,15.4029463 61.9196429,15.2209705 61.3063187,15.0519931 C62.5590659,14.415078 63.5116758,13.102253 64.125,12.0363951 C64.3207418,11.6984402 64.4773352,11.3734835 64.6078297,11.1135182 C64.790522,10.7235702 64.8949176,10.4506066 64.907967,10.4116118 C64.9862637,10.2166378 64.8818681,9.98266898 64.6861264,9.90467938 C64.4903846,9.82668977 64.2554945,9.93067591 64.1771978,10.1386482 C64.1771978,10.1516464 64.1119505,10.3206239 63.981456,10.5935875 C63.8770604,10.8275563 63.720467,11.1395147 63.5377747,11.4774697 C62.8331044,12.7642981 61.5673077,14.5450607 59.9361264,14.6490468 C59.9100275,14.6490468 59.8839286,14.6490468 59.8708791,14.6620451 C59.1531593,14.4800693 58.4354396,14.3240901 57.7177198,14.1811092 C59.114011,13.440208 60.4581044,11.8804159 61.4759615,10.4506066 C61.6847527,10.1646447 61.8674451,9.87868284 62.0501374,9.6187175 C62.8070055,8.46187175 63.2898352,7.52599653 63.3550824,7.4220104 C63.459478,7.2270364 63.3811813,6.99306759 63.1854396,6.90207972 C62.9896978,6.79809359 62.7548077,6.87608319 62.6634615,7.07105719 C62.3633242,7.6559792 61.8674451,8.51386482 61.2541209,9.4237435 C61.0583791,9.70970537 60.8626374,10.0086655 60.6407967,10.2946274 C59.3097527,12.1013865 57.6263736,13.8561525 56.1517857,13.8561525 L56.0995879,13.8561525 C56.0604396,13.8561525 56.0212912,13.8561525 55.9821429,13.8691508 C55.0817308,13.7261698 54.1682692,13.5961872 53.2548077,13.492201 C54.2596154,12.7642981 55.2513736,11.4124783 56.0082418,10.2166378 C56.217033,9.87868284 56.4127747,9.55372617 56.5824176,9.25476603 C56.9608516,8.59185442 57.2087912,8.08492201 57.3001374,7.91594454 C57.3914835,7.72097054 57.3131868,7.48700173 57.1174451,7.39601386 C56.9217033,7.305026 56.6868132,7.3830156 56.595467,7.5779896 C56.3475275,8.08492201 56.0343407,8.66984402 55.6820055,9.25476603 C55.4862637,9.5797227 55.290522,9.90467938 55.0817308,10.2166378 C54.0116758,11.8414211 52.7589286,13.297227 51.8715659,13.245234 C51.7671703,13.245234 51.6627747,13.2712305 51.5975275,13.3362218 C51.0494505,13.297227 50.2925824,13.2322357 49.4313187,13.2192374 C50.4491758,12.4523397 51.3365385,11.0225303 51.7932692,10.2166378 C51.9498626,9.93067591 52.0542582,9.72270364 52.0934066,9.64471404 C52.1586538,9.51473137 52.1456044,9.37175043 52.0673077,9.25476603 C52.0281593,9.20277296 51.9759615,9.1507799 51.9237637,9.12478336 C51.7410714,9.03379549 51.5322802,9.09878683 51.4278846,9.25476603 C51.4148352,9.2677643 51.4148352,9.28076256 51.4017857,9.29376083 C51.2582418,9.56672444 51.0885989,9.89168111 50.8928571,10.2036395 C50.1490385,11.4384749 49.0659341,12.8292894 48.2438187,12.9332756 C48.0872253,12.9592721 47.9567308,13.0632582 47.9175824,13.2062392 C43.4938187,13.3362218 38.9656593,14.7010399 34.4766484,17.2616984 C34.2809066,17.3266898 34.2156593,17.4956672 34.2417582,17.6516464 Z" id="XMLID_109_" fill="#B07442"></path>
                <path d="M40.4402473,19.8093588 C41.2884615,19.4584055 45.4251374,19.7833622 45.4642857,19.7833622 C45.4903846,19.7833622 45.5034341,19.7833622 45.5164835,19.770364 C45.529533,19.7573657 45.5425824,19.7313692 45.529533,19.7183709 L45.3337912,18.5485269 C45.3337912,18.5095321 45.2946429,18.4835355 45.2554945,18.4965338 L41.157967,19.1334489 C41.1449176,19.1334489 41.1318681,19.1334489 41.1318681,19.1464471 C40.2836538,19.7183709 40.2967033,19.7313692 40.3228022,19.7963605 C40.3358516,19.8093588 40.3489011,19.8353553 40.375,19.8353553 C40.4010989,19.822357 40.4271978,19.822357 40.4402473,19.8093588 Z M49.5096154,34.5233969 C51.1277473,34.5233969 52.6023352,34.3024263 53.3331044,33.6265165 C53.7767857,33.2235702 54.4423077,32.2487002 54.9251374,31.4688042 C55.9821429,29.7530329 55.8516484,29.5840555 55.7472527,29.4540728 C55.7211538,29.415078 55.5645604,29.2461005 55.290522,29.415078 C52.393544,31.2998267 42.228022,30.8448873 42.1236264,30.8448873 C42.0322802,30.8448873 41.9539835,30.8838821 41.9017857,30.9488735 C41.8495879,31.0138648 41.8365385,31.1048527 41.8756868,31.1958406 L42.7891484,33.5875217 C42.8152473,33.6655113 42.893544,33.7305026 42.9718407,33.7435009 C43.1806319,33.7954939 46.573489,34.5233969 49.5096154,34.5233969 Z M51.5714286,14.0901213 C55.3296703,14.3760832 59.0357143,15.1039861 62.5721154,16.2218371 C62.3894231,17.7036395 61.7239011,23.669844 62.4807692,25.7495667 C62.8461538,26.737435 64.4120879,28.3882149 65.5473901,29.5060659 C65.5473901,31.117851 65.5473901,32.7166378 65.5473901,34.3284229 C65.5473901,37.6559792 63.1593407,40.0606586 59.8186813,40.0866551 C55.8125,40.0996534 51.8063187,40.0866551 47.7870879,40.0866551 C43.8592033,40.0866551 39.9182692,40.0866551 35.9903846,40.0866551 C32.3104396,40.0866551 29.9615385,37.7469671 29.9615385,34.0684575 C29.9615385,32.9376083 29.9615385,31.8197574 29.9615385,30.6889081 C30.2747253,30.4939341 30.6009615,30.2599653 30.9663462,30.0129983 C32.3365385,29.02513 33.9677198,27.6473137 35.103022,25.9835355 C36.2122253,24.3587522 35.3248626,19.1594454 35.0638736,17.7816291 C39.4223901,15.3379549 43.793956,14.0381282 48.0741758,13.9471404 C49.470467,13.9211438 50.7362637,14.02513 51.5714286,14.0901213 Z M51.1799451,18.9904679 C51.2190934,18.9774697 54.5206044,18.2755633 56.3475275,19.2114385 C56.3736264,19.2244367 56.3866758,19.2244367 56.3997253,19.2244367 C56.4258242,19.2244367 56.4519231,19.2114385 56.4519231,19.1984402 C56.4910714,19.1334489 56.5041209,19.1204506 55.4993132,18.3405546 C55.4862637,18.3405546 55.4862637,18.3275563 55.4732143,18.3275563 L51.5453297,17.7426343 C51.5192308,17.7426343 51.4800824,17.7556326 51.4800824,17.7816291 L51.1146978,18.9124783 C51.1016484,18.9384749 51.1146978,18.9644714 51.1277473,18.9774697 C51.1277473,18.9774697 51.1538462,18.9904679 51.1799451,18.9904679 Z M53.8550824,23.3188908 C53.959478,22.889948 53.8289835,22.3440208 53.6201923,21.9670711 C53.3592033,21.4861352 52.6284341,21.3171577 52.1586538,21.5511265 C52.106456,21.5771231 52.0542582,21.6031196 52.0151099,21.6421144 C51.8193681,21.7980936 51.6888736,22.0190641 51.6236264,22.2530329 C51.4931319,22.6299827 51.4148352,23.084922 51.584478,23.4618718 C51.8846154,24.1117851 52.7589286,24.4367418 53.3853022,24.0337955 C53.6201923,23.864818 53.7898352,23.6048527 53.8550824,23.3188908 Z M45.2424451,23.4618718 C45.4120879,23.084922 45.3337912,22.6299827 45.2032967,22.2530329 C45.125,22.0190641 44.9945055,21.7980936 44.8118132,21.6421144 C44.7726648,21.6031196 44.720467,21.5771231 44.6682692,21.5511265 C44.1854396,21.3041594 43.4546703,21.4861352 43.2067308,21.9670711 C42.9979396,22.3440208 42.8674451,22.889948 42.9718407,23.3188908 C43.0370879,23.6048527 43.2067308,23.864818 43.4416209,24.0337955 C44.0549451,24.44974 44.9423077,24.1117851 45.2424451,23.4618718 Z" id="XMLID_101_" fill="#FDCE12"></path>
                <path d="M56.0212912,52.0320624 C57.926511,51.9800693 59.8056319,52.0320624 60.4842033,52.3700173 C60.6799451,52.4740035 60.8887363,52.5129983 61.084478,52.5129983 C61.1105769,52.5129983 61.1497253,52.5129983 61.1888736,52.5129983 C60.1840659,57.1923744 60.7712912,59.6750433 61.2410714,61.6767764 C61.4498626,62.5866551 61.6325549,63.3665511 61.6325549,64.1984402 C61.6325549,64.3414211 61.75,64.4584055 61.893544,64.4584055 C62.0370879,64.4584055 62.154533,64.3414211 62.154533,64.1984402 C62.154533,63.3015598 61.9587912,62.4956672 61.7369505,61.559792 C61.2671703,59.5840555 60.6929945,57.127383 61.7239011,52.4350087 C61.7369505,52.3960139 61.7369505,52.3700173 61.7239011,52.3310225 C63.342033,51.3431542 63.9423077,46.3518198 64.0858516,45.0779896 C64.0989011,45.0779896 64.1119505,45.0779896 64.125,45.0779896 C64.1510989,45.0779896 64.1902473,45.0909879 64.2293956,45.0909879 C64.2554945,45.0909879 64.2815934,45.1039861 64.3076923,45.1039861 C64.3598901,45.1169844 64.3990385,45.1169844 64.4512363,45.1299827 C64.5034341,45.1429809 64.5686813,45.1559792 64.6208791,45.1689775 C64.7383242,45.194974 64.8427198,45.2209705 64.9471154,45.2599653 C64.9732143,45.2729636 64.9993132,45.2729636 65.0254121,45.2859619 C65.051511,45.2989601 65.0776099,45.2989601 65.1037088,45.3119584 C65.1559066,45.3249567 65.2081044,45.3509532 65.2603022,45.3639515 C65.3125,45.3769497 65.3646978,45.4029463 65.4038462,45.4289428 C65.4429945,45.4419411 65.4821429,45.4549393 65.5212912,45.4809359 C65.5604396,45.4939341 65.5995879,45.5199307 65.6387363,45.5329289 C65.6648352,45.5459272 65.6909341,45.5589255 65.7039835,45.5719237 C65.7953297,45.6239168 65.8866758,45.6759099 65.978022,45.7279029 C66.0041209,45.7409012 66.0302198,45.7538995 66.0432692,45.779896 C66.0693681,45.7928943 66.095467,45.8188908 66.1215659,45.8318891 C66.1607143,45.8578856 66.1998626,45.8838821 66.239011,45.9098787 C66.2651099,45.9228769 66.2781593,45.9488735 66.3042582,45.9618718 C66.3303571,45.97487 66.356456,46.0008666 66.3825549,46.0268631 C66.4086538,46.0528596 66.4347527,46.0788562 66.4608516,46.0918544 C66.4608516,46.0918544 66.4608516,46.0918544 66.4608516,46.0918544 C66.4739011,46.0918544 66.4869505,46.1048527 66.4869505,46.117851 C66.4869505,46.117851 66.4869505,46.117851 66.4869505,46.117851 C66.5130495,46.1438475 66.5521978,46.169844 66.5782967,46.2088388 C66.6174451,46.2478336 66.6565934,46.2868284 66.6957418,46.3258232 C66.7087912,46.3388215 66.7087912,46.3388215 66.7218407,46.3518198 C66.7479396,46.3908146 66.7870879,46.4168111 66.8131868,46.4558059 C66.8523352,46.4948007 66.8914835,46.5337955 66.9175824,46.5857886 C66.9306319,46.5987868 66.9436813,46.6117851 66.9436813,46.6247834 C66.9828297,46.6767764 67.021978,46.7287695 67.0611264,46.7807626 C67.0872253,46.8197574 67.1133242,46.8587522 67.1394231,46.897747 C67.165522,46.9367418 67.1916209,46.9627383 67.2046703,47.0017331 C67.2307692,47.0407279 67.2568681,47.0797227 67.282967,47.1187175 C67.3090659,47.1577123 67.3351648,47.1967071 67.3482143,47.2487002 C67.3612637,47.2746967 67.3743132,47.287695 67.3873626,47.3136915 C67.4395604,47.4046794 67.4917582,47.4956672 67.5309066,47.5866551 C67.543956,47.6126516 67.5570055,47.6256499 67.5570055,47.6516464 C67.5831044,47.7036395 67.6092033,47.7556326 67.6222527,47.8076256 C67.6353022,47.8336222 67.6483516,47.8596187 67.6614011,47.8856153 C67.6744505,47.9116118 67.6875,47.9376083 67.7005495,47.9766031 C67.7135989,48.0155979 67.7266484,48.0545927 67.7527473,48.0935875 C67.7527473,48.1065858 67.7527473,48.1065858 67.7657967,48.1195841 C67.7918956,48.1715771 67.8049451,48.2365685 67.831044,48.2885615 C67.8571429,48.3535529 67.8701923,48.4185442 67.8962912,48.4835355 C68.3399725,49.9263432 68.5618132,51.4601386 68.8358516,52.9549393 C70.8585165,63.9254766 72.9072802,74.8960139 74.8516484,85.8795494 C75.1126374,87.3353553 74.8907967,88.8691508 74.8907967,90.4159445 L56.2692308,90.4159445 C55.5776099,85.9705373 55.8385989,62.1057192 56.0212912,52.0320624 Z M68.3399725,84.0467938 C68.4182692,83.8518198 68.3269231,83.617851 68.1181319,83.5398614 C65.6909341,82.5779896 62.9244505,78.9514731 62.7417582,76.4688042 C62.7287088,76.2478336 62.5460165,76.0918544 62.3241758,76.1048527 C62.1023352,76.117851 61.9457418,76.312825 61.9587912,76.5207972 C62.1675824,79.2894281 65.1298077,83.1889081 67.831044,84.254766 C67.8832418,84.2677643 67.9223901,84.2807626 67.9745879,84.2807626 C68.1311813,84.2937608 68.2747253,84.202773 68.3399725,84.0467938 Z" id="XMLID_98_" fill="#F37D12"></path>
                <path d="M63.3159341,45 C63.0679945,47.3786828 62.3502747,51.0961872 61.3063187,51.6681109 C61.1497253,51.7590988 61.0192308,51.7461005 60.8365385,51.6681109 C59.5707418,51.0441941 55.5906593,51.2131716 53.2417582,51.382149 C54.2857143,50.8882149 55.4471154,50.3032929 55.8777473,49.965338 C57.3523352,48.8344887 60.4320055,45.3249567 60.5625,45.1819757 C60.6146978,45.1299827 60.6407967,45.0649913 60.6538462,45 C60.7451923,45 60.8365385,45 60.9409341,45 C61.6456044,45 62.3502747,45 63.0549451,45 C63.1201923,45 63.1854396,45 63.2506868,45 C63.2767857,45 63.2898352,45 63.3159341,45 Z M61.4498626,50.3292894 C61.489011,50.1863085 61.3976648,50.0563258 61.2541209,50.017331 C61.1497253,49.9913345 58.7616758,49.4064125 57.2479396,49.6013865 C57.1043956,49.6143847 57,49.7573657 57.0260989,49.8873484 C57.0391484,50.0303293 57.1826923,50.1343154 57.3131868,50.1083189 C58.7225275,49.9263432 61.0975275,50.5112652 61.1236264,50.5112652 C61.1497253,50.5112652 61.1627747,50.5242634 61.1888736,50.5242634 C61.3063187,50.5242634 61.4107143,50.4462738 61.4498626,50.3292894 Z" id="XMLID_95_" fill="#F37D12"></path>
                <path d="M61.7369505,52.4350087 C60.706044,57.127383 61.2802198,59.5840555 61.75,61.559792 C61.9718407,62.4956672 62.1675824,63.3015598 62.1675824,64.1984402 C62.1675824,64.3414211 62.0501374,64.4584055 61.9065934,64.4584055 C61.7630495,64.4584055 61.6456044,64.3414211 61.6456044,64.1984402 C61.6456044,63.3535529 61.4629121,62.5736568 61.2541209,61.6767764 C60.7843407,59.6750433 60.1971154,57.1923744 61.2019231,52.5129983 C61.3715659,52.5 61.5412088,52.4480069 61.6978022,52.3570191 C61.7108516,52.3440208 61.7369505,52.3440208 61.75,52.3310225 C61.7369505,52.3570191 61.7369505,52.3960139 61.7369505,52.4350087 Z" id="XMLID_94_" fill="#FFFFFF"></path>
                <path d="M61.2541209,50.0043328 C61.3976648,50.0433276 61.4759615,50.1733102 61.4498626,50.3162912 C61.4237637,50.4332756 61.3193681,50.5112652 61.2019231,50.5112652 C61.1758242,50.5112652 61.1627747,50.5112652 61.1366758,50.4982669 C61.1105769,50.4982669 58.7355769,49.9133449 57.3262363,50.0953206 C57.1826923,50.1213172 57.0521978,50.017331 57.0391484,49.8743501 C57.0130495,49.7313692 57.1174451,49.6013865 57.260989,49.5883882 C58.7616758,49.3934142 61.1497253,49.9913345 61.2541209,50.0043328 Z" id="XMLID_93_" fill="#000000"></path>
                <rect id="XMLID_92_" fill="#FDCE12" x="36.1339286" y="41.3864818" width="23.1888736" height="2.48266898"></rect>
                <path d="M55.7472527,29.4670711 C55.8516484,29.5970537 55.9821429,29.7660312 54.9251374,31.4818024 C54.4423077,32.2487002 53.7767857,33.2235702 53.3331044,33.6395147 C52.6023352,34.3154246 51.1277473,34.5363951 49.5096154,34.5363951 C46.573489,34.5363951 43.1936813,33.8084922 42.9718407,33.7694974 C42.8804945,33.7564991 42.8152473,33.6915078 42.7891484,33.6135182 L41.8756868,31.2218371 C41.8495879,31.1438475 41.8626374,31.0528596 41.9017857,30.97487 C41.9539835,30.9098787 42.0322802,30.8708839 42.1236264,30.8708839 C42.228022,30.8708839 52.3804945,31.3388215 55.290522,29.4410745 C55.551511,29.2461005 55.7081044,29.4280763 55.7472527,29.4670711 Z M43.2197802,33.2755633 C43.7156593,33.3795494 45.4642857,33.7175043 47.3825549,33.8994801 C50.2925824,34.1724437 52.2239011,33.9514731 52.9807692,33.2495667 C53.5549451,32.7166378 54.6641484,30.9878683 55.1078297,30.1299827 C51.9759615,31.6377816 44.3550824,31.4558059 42.5020604,31.3908146 L43.2197802,33.2755633 Z" id="XMLID_87_" fill="#000000"></path>
                <path d="M55.2383242,52.0580589 C55.1600275,56.6854419 54.7032967,84.592721 55.4993132,90.4029463 L51.8193681,90.4029463 C53.0851648,74.3240901 51.7802198,55.3206239 51.5583791,52.305026 C51.584478,52.305026 51.5975275,52.305026 51.6236264,52.305026 C52.4326923,52.2270364 53.8028846,52.1230503 55.2383242,52.0580589 Z M54.1421703,86.0615251 C54.1421703,86.0485269 54.1291209,84.3327556 54.1421703,82.6559792 C54.1421703,82.4350087 53.9725275,82.2660312 53.7506868,82.2660312 C53.5288462,82.2660312 53.3592033,82.4350087 53.3592033,82.6559792 C53.3461538,84.3457539 53.3592033,86.0615251 53.3592033,86.0745234 C53.3592033,86.2824957 53.5288462,86.4644714 53.7506868,86.4644714 C53.9725275,86.4514731 54.1421703,86.2824957 54.1421703,86.0615251 Z M53.9725275,76.9627383 C53.9855769,76.8847487 54.1421703,75.0389948 53.9725275,73.4662045 C53.9464286,73.245234 53.7506868,73.102253 53.5418956,73.1152513 C53.3331044,73.1412478 53.176511,73.3362218 53.1895604,73.5441941 C53.3461538,75.0259965 53.1895604,76.8717504 53.1895604,76.8847487 C53.176511,77.1057192 53.3331044,77.287695 53.5418956,77.3136915 C53.5549451,77.3136915 53.5679945,77.3136915 53.581044,77.3136915 C53.7767857,77.3266898 53.9464286,77.1707106 53.9725275,76.9627383 Z M53.8811813,67.7339688 C53.8811813,67.6559792 53.9725275,65.797227 53.8811813,64.2764298 C53.8681319,64.0554593 53.6854396,63.8994801 53.4635989,63.9124783 C53.2417582,63.9254766 53.0851648,64.1074523 53.0982143,64.3284229 C53.176511,65.8102253 53.0982143,67.6819757 53.0982143,67.7079723 C53.0851648,67.9159445 53.2548077,68.0979203 53.4766484,68.1109185 C53.4766484,68.1109185 53.4896978,68.1109185 53.4896978,68.1109185 C53.698489,68.1109185 53.8681319,67.9419411 53.8811813,67.7339688 Z M53.8811813,55.1516464 C53.9203297,54.9436742 53.7767857,54.7357019 53.5679945,54.6967071 C53.3592033,54.6577123 53.1504121,54.8006932 53.1112637,55.0086655 C52.8372253,56.4384749 53.0982143,58.4662045 53.1112637,58.5441941 C53.1373626,58.7391681 53.3070055,58.882149 53.5027473,58.882149 C53.5157967,58.882149 53.5288462,58.882149 53.5549451,58.882149 C53.7767857,58.8561525 53.9203297,58.6611785 53.8942308,58.440208 C53.8811813,58.4272097 53.6332418,56.4644714 53.8811813,55.1516464 Z" id="XMLID_81_" fill="#F37D12"></path>
                <path d="M54.1421703,82.6559792 C54.1291209,84.3457539 54.1421703,86.0485269 54.1421703,86.0615251 C54.1421703,86.2824957 53.9725275,86.4514731 53.7506868,86.4514731 C53.5288462,86.4514731 53.3592033,86.2824957 53.3592033,86.0615251 C53.3592033,86.0485269 53.3461538,84.3327556 53.3592033,82.6429809 C53.3592033,82.4220104 53.5288462,82.2530329 53.7506868,82.2530329 C53.9725275,82.2530329 54.1421703,82.4350087 54.1421703,82.6559792 Z" id="XMLID_80_" fill="#000000"></path>
                <path d="M53.9725275,73.4792028 C54.1421703,75.0389948 53.9855769,76.897747 53.9725275,76.9757366 C53.959478,77.1837088 53.7898352,77.3266898 53.581044,77.3266898 C53.5679945,77.3266898 53.5549451,77.3266898 53.5418956,77.3266898 C53.3200549,77.3136915 53.1634615,77.1187175 53.1895604,76.897747 C53.1895604,76.8847487 53.3461538,75.0389948 53.1895604,73.5571924 C53.1634615,73.3492201 53.3200549,73.1542461 53.5418956,73.1282496 C53.7506868,73.102253 53.9464286,73.2582322 53.9725275,73.4792028 Z" id="XMLID_79_" fill="#000000"></path>
                <path d="M53.8811813,64.2764298 C53.9725275,65.797227 53.8811813,67.6559792 53.8811813,67.7339688 C53.8681319,67.9419411 53.698489,68.1109185 53.4896978,68.1109185 C53.4896978,68.1109185 53.4766484,68.1109185 53.4766484,68.1109185 C53.2548077,68.0979203 53.0982143,67.9159445 53.0982143,67.7079723 C53.0982143,67.6819757 53.176511,65.8102253 53.0982143,64.3284229 C53.0851648,64.1074523 53.2548077,63.9254766 53.4635989,63.9124783 C53.6854396,63.8994801 53.8681319,64.0684575 53.8811813,64.2764298 Z" id="XMLID_78_" fill="#000000"></path>
                <path d="M53.5679945,54.6967071 C53.7767857,54.7357019 53.9203297,54.9436742 53.8811813,55.1516464 C53.6332418,56.4644714 53.8811813,58.4272097 53.8811813,58.440208 C53.9072802,58.6481802 53.7637363,58.8431542 53.5418956,58.882149 C53.5288462,58.882149 53.5027473,58.882149 53.4896978,58.882149 C53.293956,58.882149 53.1243132,58.7391681 53.0982143,58.5441941 C53.0851648,58.4532062 52.8372253,56.4384749 53.0982143,55.0086655 C53.1504121,54.8006932 53.3461538,54.6577123 53.5679945,54.6967071 Z" id="XMLID_77_" fill="#000000"></path>
                <path d="M52.6936813,21.7850953 C52.8633242,21.8370884 52.9807692,22.0190641 52.9807692,22.2270364 C52.9807692,22.4740035 52.7980769,22.6819757 52.5762363,22.6819757 C52.3543956,22.6819757 52.1717033,22.4740035 52.1717033,22.2270364 C52.1717033,22.110052 52.2108516,21.9930676 52.2760989,21.915078 C52.3543956,21.8240901 52.4587912,21.7720971 52.5762363,21.7720971 C52.6284341,21.7720971 52.6675824,21.7720971 52.6936813,21.7850953 Z" id="XMLID_76_" fill="#FFFFFF"></path>
                <path d="M52.6936813,21.7850953 C52.654533,21.7720971 52.6284341,21.7720971 52.5892857,21.7720971 C52.4718407,21.7720971 52.3674451,21.8240901 52.2891484,21.915078 C52.2239011,21.9930676 52.1847527,22.110052 52.1847527,22.2270364 C52.1847527,22.4740035 52.3674451,22.6819757 52.5892857,22.6819757 C52.8111264,22.6819757 52.9938187,22.4740035 52.9938187,22.2270364 C52.9938187,22.0190641 52.8633242,21.8370884 52.6936813,21.7850953 Z M52.1586538,21.5641248 C52.6414835,21.3171577 53.3722527,21.4991334 53.6201923,21.9800693 C53.8289835,22.3570191 53.959478,22.9029463 53.8550824,23.3318891 C53.7898352,23.617851 53.6201923,23.8778163 53.3722527,24.0467938 C52.7589286,24.4627383 51.8715659,24.1247834 51.5714286,23.47487 C51.4017857,23.0979203 51.4800824,22.6429809 51.6105769,22.2660312 C51.6888736,22.0320624 51.8193681,21.8110919 52.0020604,21.6551127 C52.0542582,21.6161179 52.106456,21.5901213 52.1586538,21.5641248 Z" id="XMLID_73_" fill="#000000"></path>
                <path d="M56.3475275,19.1984402 C54.5206044,18.262565 51.2190934,18.9774697 51.1799451,18.9774697 C51.1538462,18.9774697 51.1407967,18.9774697 51.1146978,18.9514731 C51.1016484,18.9384749 51.0885989,18.9124783 51.1016484,18.8864818 L51.467033,17.7556326 C51.4800824,17.729636 51.5061813,17.7036395 51.5322802,17.7166378 L55.4601648,18.3275563 C55.4732143,18.3275563 55.4862637,18.3405546 55.4862637,18.3405546 C56.4910714,19.1204506 56.478022,19.1334489 56.4388736,19.1984402 C56.4258242,19.2114385 56.4127747,19.2244367 56.3866758,19.2244367 C56.3866758,19.2114385 56.3605769,19.2114385 56.3475275,19.1984402 Z" id="XMLID_71_" fill="#000000"></path>
                <path d="M49.9010989,118.687175 C49.9010989,119.220104 49.7575549,119.584055 49.3399725,119.909012 C48.6222527,120.467938 48.021978,121.156846 46.9388736,120.97487 C46.1298077,120.844887 44.7465659,119.519064 44.7465659,118.700173 C44.7596154,112.396014 44.7726648,106.091854 44.7726648,99.787695 C44.7726648,99.5667244 44.7857143,99.3327556 44.7987637,99.059792 L49.875,99.059792 L49.875,99.9956672 C49.8880495,106.234835 49.8880495,112.461005 49.9010989,118.687175 Z" id="XMLID_69_" fill="#1669AA"></path>
                <path d="M43.3894231,119.350087 C43.9896978,119.948007 44.4725275,120.389948 44.9162088,120.870884 C45.125,121.117851 45.385989,121.442808 45.385989,121.741768 C45.4120879,126.876083 45.3990385,132.023397 45.3990385,137.157712 C45.3990385,137.261698 45.3729396,137.352686 45.3468407,137.586655 L44.3811813,137.586655 C37.334478,137.573657 30.2877747,137.560659 23.2410714,137.586655 C22.4842033,137.586655 22.3145604,137.365685 22.3145604,136.65078 C22.3406593,131.152513 22.3276099,125.667244 22.3276099,120.168977 C22.3276099,119.92201 22.3537088,119.675043 22.3667582,119.363085 L43.3894231,119.363085 L43.3894231,119.350087 Z" id="XMLID_68_" fill="#1669AA"></path>
                <rect id="XMLID_67_" fill="#1669AA" x="22.3667582" y="138.60052" width="22.9800824" height="10.3986135"></rect>
                <path d="M44.5247253,21.9020797 C44.5899725,21.9800693 44.6291209,22.0970537 44.6291209,22.2140381 C44.6291209,22.4610052 44.4464286,22.6689775 44.2245879,22.6689775 C44.0027473,22.6689775 43.8200549,22.4610052 43.8200549,22.2140381 C43.8200549,22.0060659 43.9375,21.8370884 44.1071429,21.7720971 C44.1462912,21.7590988 44.1723901,21.7590988 44.2245879,21.7590988 C44.342033,21.7720971 44.4464286,21.8110919 44.5247253,21.9020797 Z" id="XMLID_66_" fill="#FFFFFF"></path>
                <path d="M44.2245879,21.7720971 C44.1854396,21.7720971 44.1462912,21.7850953 44.1071429,21.7850953 C43.9375,21.8370884 43.8200549,22.0190641 43.8200549,22.2270364 C43.8200549,22.4740035 44.0027473,22.6819757 44.2245879,22.6819757 C44.4464286,22.6819757 44.6291209,22.4740035 44.6291209,22.2270364 C44.6291209,22.110052 44.5899725,21.9930676 44.5247253,21.915078 C44.4464286,21.8110919 44.342033,21.7720971 44.2245879,21.7720971 Z M43.1936813,21.9670711 C43.4546703,21.4861352 44.1723901,21.3171577 44.6552198,21.5511265 C44.7074176,21.5771231 44.7596154,21.6031196 44.7987637,21.6421144 C44.9945055,21.7980936 45.125,22.0190641 45.1902473,22.2530329 C45.3207418,22.6299827 45.3990385,23.084922 45.2293956,23.4618718 C44.9292582,24.1117851 44.0549451,24.4367418 43.4285714,24.0337955 C43.1806319,23.864818 43.0240385,23.6048527 42.9587912,23.3188908 C42.8674451,22.889948 42.9979396,22.3440208 43.1936813,21.9670711 Z" id="XMLID_63_" fill="#000000"></path>
                <rect id="XMLID_62_" fill="#1669AA" x="22.3798077" y="99.0337955" width="21.3358516" height="19.2244367"></rect>
                <path d="M43.271978,52.0320624 C43.2850275,52.0320624 43.2850275,52.0320624 43.2980769,52.0320624 C43.0762363,55.0606586 41.7712912,74.3240901 43.0370879,90.4029463 L39.3049451,90.4029463 C39.448489,89.5190641 39.5659341,87.9332756 39.6442308,85.8795494 C39.709478,85.8925477 39.7747253,85.8925477 39.8399725,85.8925477 C40.6620879,85.8925477 41.3406593,85.2166378 41.3406593,84.397747 C41.3406593,83.5788562 40.6620879,82.9029463 39.8399725,82.9029463 C39.8008242,82.9029463 39.7616758,82.9029463 39.7225275,82.9029463 C39.7616758,81.0181976 39.7877747,78.9254766 39.8008242,76.7287695 C39.853022,76.7287695 39.9052198,76.7417678 39.9574176,76.7417678 C40.779533,76.7417678 41.4581044,76.0658579 41.4581044,75.2469671 C41.4581044,74.4280763 40.779533,73.7521664 39.9574176,73.7521664 C39.9052198,73.7521664 39.853022,73.7521664 39.8138736,73.7521664 C39.8138736,71.6854419 39.8138736,69.5797227 39.8008242,67.5259965 C39.9313187,67.5649913 40.0618132,67.5779896 40.2053571,67.5779896 C41.0274725,67.5779896 41.706044,66.9020797 41.706044,66.0831889 C41.706044,65.2642981 41.0274725,64.5883882 40.2053571,64.5883882 C40.0618132,64.5883882 39.9182692,64.6143847 39.7747253,64.6533795 C39.7616758,62.4046794 39.7355769,60.2729636 39.709478,58.3882149 C39.8008242,58.4012132 39.9052198,58.4142114 39.9965659,58.4142114 C40.8317308,58.4142114 41.4972527,57.7383016 41.4972527,56.9194107 C41.4972527,56.1005199 40.8186813,55.4246101 39.9965659,55.4246101 C39.8791209,55.4246101 39.7747253,55.4376083 39.6703297,55.4636049 C39.6442308,53.7868284 39.6311813,52.5 39.6050824,51.7850953 C40.5315934,51.8240901 41.5364011,51.8890815 42.5934066,51.9800693 C42.9979396,52.0190641 43.2328297,52.0450607 43.2328297,52.0450607 C43.2458791,52.0320624 43.2589286,52.0320624 43.271978,52.0320624 Z" id="XMLID_61_" fill="#F37D12"></path>
                <path d="M42.489011,31.3908146 C44.342033,31.4558059 51.9629121,31.6247834 55.0947802,30.1299827 C54.6510989,31.0008666 53.5549451,32.7166378 52.9677198,33.2495667 C52.2108516,33.9514731 50.279533,34.1724437 47.3695055,33.8994801 C45.4642857,33.7175043 43.7026099,33.3795494 43.2067308,33.2755633 L42.489011,31.3908146 Z" id="XMLID_60_" fill="#FFFFFF"></path>
                <path d="M45.4642857,19.7963605 C45.4251374,19.7963605 41.301511,19.4584055 40.4402473,19.822357 C40.4141484,19.8353553 40.4010989,19.8353553 40.3880495,19.8353553 C40.3619505,19.8353553 40.3358516,19.822357 40.3358516,19.7963605 C40.2967033,19.7313692 40.2967033,19.7183709 41.1449176,19.1464471 C41.157967,19.1464471 41.157967,19.1334489 41.1710165,19.1334489 L45.268544,18.4965338 C45.3076923,18.4965338 45.3337912,18.5095321 45.3468407,18.5485269 L45.5425824,19.7183709 C45.5425824,19.7443674 45.5425824,19.7573657 45.529533,19.770364 C45.5034341,19.7833622 45.4903846,19.7963605 45.4642857,19.7963605 Z" id="XMLID_59_" fill="#000000"></path>
                <path d="M40.2053571,65.3682842 C40.5968407,65.3682842 40.9230769,65.6932409 40.9230769,66.0831889 C40.9230769,66.4731369 40.5968407,66.7980936 40.2053571,66.7980936 C40.0487637,66.7980936 39.9052198,66.7461005 39.7877747,66.6681109 C39.6050824,66.5381282 39.4876374,66.330156 39.4876374,66.0831889 C39.4876374,65.8492201 39.6050824,65.6282496 39.7877747,65.4982669 C39.8921703,65.4202773 40.0487637,65.3682842 40.2053571,65.3682842 Z" id="XMLID_58_" fill="#FFFFFF"></path>
                <path d="M40.6751374,75.2469671 C40.6751374,75.6369151 40.3489011,75.9618718 39.9574176,75.9618718 C39.9052198,75.9618718 39.853022,75.9618718 39.8138736,75.9488735 C39.7747253,75.9358752 39.7225275,75.9228769 39.6703297,75.9098787 C39.6572802,75.8968804 39.6311813,75.8968804 39.6181319,75.8838821 C39.6050824,75.8838821 39.592033,75.8708839 39.5789835,75.8578856 C39.5659341,75.8448873 39.5528846,75.8448873 39.5398352,75.8318891 C39.5267857,75.8188908 39.5137363,75.8058925 39.4876374,75.7928943 C39.4745879,75.779896 39.4615385,75.7668977 39.448489,75.7538995 C39.3962912,75.7019064 39.3571429,75.6499133 39.3179945,75.584922 C39.3179945,75.5719237 39.3049451,75.5589255 39.3049451,75.5459272 C39.2918956,75.5069324 39.2788462,75.4679376 39.2657967,75.4289428 C39.2657967,75.4159445 39.2527473,75.4029463 39.2527473,75.3769497 C39.2527473,75.3639515 39.2527473,75.3379549 39.2396978,75.3249567 C39.2396978,75.2989601 39.2396978,75.2729636 39.2396978,75.2469671 C39.2396978,75.2209705 39.2396978,75.194974 39.2396978,75.1689775 C39.2396978,75.1559792 39.2396978,75.1299827 39.2527473,75.1169844 C39.2527473,75.1039861 39.2527473,75.0909879 39.2657967,75.0649913 C39.2788462,75.0259965 39.2918956,74.9870017 39.3049451,74.9480069 C39.3049451,74.9350087 39.3179945,74.9090121 39.331044,74.8960139 C39.3571429,74.8310225 39.3962912,74.7790295 39.448489,74.7400347 C39.4615385,74.7270364 39.4745879,74.7140381 39.4876374,74.7010399 C39.5006868,74.6880416 39.5137363,74.6750433 39.5267857,74.6750433 C39.5267857,74.6750433 39.5267857,74.6750433 39.5398352,74.6620451 C39.5528846,74.6490468 39.5659341,74.6490468 39.5789835,74.6360485 C39.592033,74.6230503 39.6050824,74.6230503 39.6181319,74.610052 C39.6311813,74.5970537 39.6442308,74.5970537 39.6703297,74.5840555 C39.6703297,74.5840555 39.6833791,74.5840555 39.6833791,74.5710572 C39.6964286,74.5710572 39.709478,74.5580589 39.7225275,74.5580589 C39.7486264,74.5450607 39.7747253,74.5450607 39.8008242,74.5320624 C39.853022,74.5190641 39.8921703,74.5190641 39.9443681,74.5190641 C40.3489011,74.5320624 40.6751374,74.8440208 40.6751374,75.2469671 Z" id="XMLID_57_" fill="#FFFFFF"></path>
                <path d="M39.9965659,56.2045061 C40.3880495,56.2045061 40.7142857,56.5294627 40.7142857,56.9194107 C40.7142857,57.3093588 40.3880495,57.6343154 39.9965659,57.6343154 C39.970467,57.6343154 39.9443681,57.6343154 39.9182692,57.6343154 C39.9052198,57.6343154 39.8791209,57.6343154 39.8660714,57.6213172 C39.853022,57.6213172 39.853022,57.6213172 39.8399725,57.6213172 C39.8269231,57.6213172 39.8138736,57.6213172 39.8008242,57.6083189 C39.7877747,57.6083189 39.7747253,57.5953206 39.7486264,57.5953206 C39.7486264,57.5953206 39.7355769,57.5953206 39.7355769,57.5953206 C39.709478,57.5953206 39.6964286,57.5823224 39.6703297,57.5693241 C39.6703297,57.5693241 39.6703297,57.5693241 39.6703297,57.5693241 C39.6703297,57.5693241 39.6703297,57.5693241 39.6703297,57.5693241 C39.6703297,57.5693241 39.6703297,57.5693241 39.6703297,57.5693241 C39.6703297,57.5693241 39.6572802,57.5563258 39.6572802,57.5563258 C39.6442308,57.5563258 39.6442308,57.5563258 39.6311813,57.5433276 C39.6050824,57.5303293 39.592033,57.517331 39.5659341,57.5043328 C39.5398352,57.4913345 39.5267857,57.4783362 39.5006868,57.4523397 C39.4876374,57.4393414 39.4745879,57.4263432 39.4615385,57.4133449 C39.4615385,57.4133449 39.448489,57.4003466 39.448489,57.3873484 C39.4354396,57.3743501 39.4223901,57.3613518 39.4093407,57.3353553 C39.3962912,57.322357 39.3832418,57.3093588 39.3701923,57.2833622 C39.3701923,57.2833622 39.3701923,57.2833622 39.3701923,57.2833622 C39.3571429,57.270364 39.3571429,57.2573657 39.3440934,57.2313692 C39.331044,57.2183709 39.3179945,57.1923744 39.3179945,57.1793761 C39.3049451,57.1533795 39.2918956,57.127383 39.2918956,57.1013865 C39.2918956,57.0753899 39.2788462,57.0623917 39.2788462,57.0363951 C39.2788462,57.0363951 39.2788462,57.0233969 39.2788462,57.0233969 C39.2788462,57.0103986 39.2788462,56.9974003 39.2788462,56.9714038 C39.2788462,56.9584055 39.2788462,56.9584055 39.2788462,56.9454073 C39.2788462,56.9194107 39.2788462,56.9064125 39.2788462,56.8804159 C39.2788462,56.8544194 39.2788462,56.8284229 39.2788462,56.8154246 C39.2788462,56.8024263 39.2788462,56.7894281 39.2788462,56.7634315 C39.2788462,56.7634315 39.2788462,56.7634315 39.2788462,56.7634315 C39.2788462,56.7504333 39.2788462,56.7504333 39.2788462,56.737435 C39.2788462,56.737435 39.2788462,56.737435 39.2788462,56.7244367 C39.2788462,56.7114385 39.2918956,56.6854419 39.2918956,56.6724437 C39.2918956,56.6594454 39.3049451,56.6334489 39.3049451,56.6204506 C39.3049451,56.6074523 39.3049451,56.5944541 39.3179945,56.5944541 C39.3571429,56.5164645 39.3962912,56.4514731 39.448489,56.3994801 C39.4615385,56.3864818 39.4745879,56.3734835 39.4876374,56.3734835 C39.4876374,56.3734835 39.4876374,56.3734835 39.4876374,56.3734835 C39.4876374,56.3734835 39.4876374,56.3734835 39.4876374,56.3734835 C39.5006868,56.3604853 39.5137363,56.347487 39.5267857,56.347487 C39.5398352,56.3344887 39.5528846,56.3214905 39.5659341,56.3214905 C39.5789835,56.3084922 39.592033,56.3084922 39.6050824,56.2954939 C39.6181319,56.2824957 39.6311813,56.2824957 39.6442308,56.2694974 C39.6572802,56.2564991 39.6703297,56.2564991 39.6833791,56.2564991 C39.6964286,56.2564991 39.709478,56.2435009 39.7225275,56.2435009 C39.7486264,56.2305026 39.7616758,56.2305026 39.7877747,56.2305026 C39.8008242,56.2305026 39.8138736,56.2305026 39.8138736,56.2175043 C39.8269231,56.2175043 39.8269231,56.2175043 39.8399725,56.2175043 C39.853022,56.2175043 39.8660714,56.2175043 39.8660714,56.2175043 C39.8660714,56.2175043 39.8791209,56.2175043 39.8921703,56.2175043 C39.9443681,56.2045061 39.970467,56.2045061 39.9965659,56.2045061 Z" id="XMLID_56_" fill="#FFFFFF"></path>
                <path d="M40.5576923,84.397747 C40.5576923,84.787695 40.231456,85.1126516 39.8399725,85.1126516 C39.8138736,85.1126516 39.7877747,85.1126516 39.7616758,85.1126516 C39.7486264,85.1126516 39.7355769,85.1126516 39.7225275,85.1126516 C39.709478,85.1126516 39.709478,85.1126516 39.709478,85.1126516 C39.6964286,85.1126516 39.6833791,85.1126516 39.6703297,85.0996534 C39.6442308,85.0996534 39.6311813,85.0866551 39.6181319,85.0866551 C39.592033,85.0866551 39.5789835,85.0736568 39.5659341,85.0606586 C39.5137363,85.034662 39.4615385,85.0086655 39.4093407,84.9696707 C39.3962912,84.9566724 39.3832418,84.9436742 39.3701923,84.9436742 C39.3571429,84.9306759 39.3440934,84.9176776 39.331044,84.9046794 C39.2788462,84.839688 39.2266484,84.7746967 39.2005495,84.7097054 C39.2005495,84.6967071 39.1875,84.6837088 39.1875,84.6707106 C39.1875,84.6577123 39.1744505,84.644714 39.1744505,84.6317158 C39.1744505,84.6187175 39.1614011,84.6057192 39.1614011,84.5797227 C39.1614011,84.5667244 39.1614011,84.5667244 39.1614011,84.5537262 C39.1614011,84.5407279 39.1614011,84.5147314 39.1483516,84.4887348 C39.1483516,84.4627383 39.1483516,84.4367418 39.1483516,84.4237435 C39.1483516,84.4107452 39.1483516,84.3717504 39.1483516,84.3457539 C39.1483516,84.3197574 39.1614011,84.2937608 39.1614011,84.254766 C39.1614011,84.2417678 39.1744505,84.2157712 39.1744505,84.202773 C39.1744505,84.1897747 39.1875,84.1637782 39.2005495,84.1507799 C39.2005495,84.1507799 39.2005495,84.1377816 39.2005495,84.1377816 C39.2135989,84.0987868 39.2396978,84.059792 39.2527473,84.0337955 C39.2918956,83.9688042 39.331044,83.9168111 39.3832418,83.8778163 C39.3962912,83.864818 39.4093407,83.8518198 39.4354396,83.8388215 C39.448489,83.8258232 39.4615385,83.812825 39.4876374,83.812825 C39.4876374,83.812825 39.4876374,83.812825 39.5006868,83.812825 C39.5137363,83.7998267 39.5267857,83.7998267 39.5398352,83.7868284 C39.5659341,83.7738302 39.592033,83.7608319 39.6311813,83.7478336 C39.6442308,83.7478336 39.6572802,83.7348354 39.6703297,83.7348354 C39.6703297,83.7348354 39.6833791,83.7348354 39.6833791,83.7348354 C39.6964286,83.7348354 39.709478,83.7218371 39.7355769,83.7218371 C39.7616758,83.7218371 39.7747253,83.7088388 39.8008242,83.7088388 C39.8269231,83.7088388 39.853022,83.7088388 39.8791209,83.7088388 C40.231456,83.6828423 40.5576923,84.007799 40.5576923,84.397747 Z" id="XMLID_55_" fill="#FFFFFF"></path>
                <path d="M36.8907967,48.847487 C37.0343407,48.8734835 37.1387363,49.0034662 37.1126374,49.1334489 C37.0995879,49.2764298 36.9690934,49.3804159 36.8255495,49.3544194 C35.4162088,49.1724437 33.0412088,49.7573657 33.0151099,49.7573657 C32.989011,49.7573657 32.9759615,49.770364 32.9498626,49.770364 C32.8324176,49.770364 32.728022,49.6923744 32.7019231,49.5753899 C32.6627747,49.432409 32.7541209,49.2894281 32.8976648,49.2634315 C32.989011,49.237435 35.3901099,48.6395147 36.8907967,48.847487 Z" id="XMLID_54_" fill="#000000"></path>
                <path d="M47.6696429,46.8327556 C45.4642857,46.8457539 40.2836538,45.6759099 37.334478,44.9480069 L37.4127747,44.9480069 C37.0212912,44.8570191 36.6559066,44.7790295 36.3427198,44.7010399 C36.3296703,44.7010399 36.3166209,44.7010399 36.3166209,44.6880416 C36.2644231,44.6750433 36.2252747,44.6620451 36.1730769,44.6490468 C35.5467033,44.4930676 35.1682692,44.3890815 35.1682692,44.3890815 L59.0487637,44.4670711 C58.7616758,44.5450607 58.4223901,44.6360485 58.0309066,44.7270364 C57.7438187,44.805026 57.4306319,44.8830156 57.0913462,44.9610052 L57.1696429,44.9610052 C54.4945055,45.6759099 49.7053571,46.8197574 47.6696429,46.8327556 Z" id="XMLID_51_" fill="#FDCE12"></path>
                <path d="M39.448489,49.0814558 C38.5089286,48.3535529 36.7864011,46.5207972 35.7554945,45.3769497 C38.4436813,46.0008666 45.1641484,47.5216638 47.6304945,47.534662 L47.6696429,47.534662 C50.4230769,47.534662 57.3001374,45.7668977 59.5446429,45.1689775 C58.6181319,46.1958406 56.5041209,48.5095321 55.4210165,49.3544194 C54.768544,49.8483536 52.0020604,51.135182 50.9842033,51.5771231 C50.8406593,51.6421144 50.7623626,51.7720971 50.7493132,51.915078 C50.7101648,51.9670711 50.7232143,52.0060659 50.7623626,52.0710572 C50.8276099,52.8769497 51.206044,57.9462738 51.4278846,64.8743501 C51.4931319,68.5008666 51.5453297,72.0103986 51.5975275,75.8318891 L51.5975275,75.8578856 C51.584478,80.6412478 51.4278846,85.6585789 51.0494505,90.4159445 L43.8331044,90.4159445 C42.4629121,73.05026 44.1071429,51.915078 44.1201923,51.6941075 C44.1332418,51.52513 44.0418956,51.3691508 43.8853022,51.3041594 C42.8674451,50.8492201 40.0879121,49.5753899 39.448489,49.0814558 Z" id="XMLID_50_" fill="#73BCD7"></path>
                <path d="M35.4423077,46.1958406 C35.6380495,46.4168111 35.8598901,46.6377816 36.0817308,46.8847487 C35.8337912,46.6377816 35.625,46.4168111 35.4423077,46.1958406 Z" id="XMLID_49_" fill="#73BCD7"></path>
                <path d="M34.3070055,52.1230503 C35.220467,56.5814558 34.6071429,58.7131716 34.1112637,60.4289428 C33.8633242,61.2608319 33.654533,61.9887348 33.654533,62.8466205 C33.654533,62.9896014 33.5370879,63.1065858 33.393544,63.1065858 C33.25,63.1065858 33.1325549,62.9896014 33.1325549,62.8466205 C33.1325549,61.9107452 33.3674451,61.117851 33.6023352,60.2859619 C34.0851648,58.6221837 34.6854396,56.5684575 33.7980769,52.2530329 C33.9677198,52.2400347 34.1373626,52.2010399 34.3070055,52.1230503 Z" id="XMLID_48_" fill="#FFFFFF"></path>
                <path d="M61.084478,52.5129983 C60.8887363,52.5129983 60.6799451,52.4610052 60.4842033,52.3700173 C59.8056319,52.0320624 57.926511,51.9800693 56.0212912,52.0320624 C55.8385989,62.1057192 55.5776099,85.9705373 56.2692308,90.4159445 L74.9038462,90.4159445 C74.9038462,88.8561525 75.1256868,87.322357 74.8646978,85.8795494 C72.9072802,74.8960139 70.8715659,63.9254766 68.8489011,52.9549393 C68.5748626,51.4601386 68.353022,49.9393414 67.9093407,48.4835355 C67.8832418,48.4185442 67.8701923,48.3535529 67.8440934,48.2885615 C67.8179945,48.2365685 67.8049451,48.1715771 67.7788462,48.1195841 C67.7788462,48.1065858 67.7788462,48.1065858 67.7657967,48.0935875 C67.7527473,48.0545927 67.7396978,48.0155979 67.7135989,47.9766031 C67.7005495,47.9506066 67.6875,47.9246101 67.6744505,47.8856153 C67.6614011,47.8596187 67.6483516,47.8336222 67.6353022,47.8076256 C67.6092033,47.7556326 67.5831044,47.7036395 67.5700549,47.6516464 C67.5570055,47.6386482 67.5570055,47.6126516 67.543956,47.5866551 C67.5048077,47.4956672 67.4526099,47.3916811 67.4004121,47.3136915 C67.3873626,47.287695 67.3743132,47.2746967 67.3612637,47.2487002 C67.3351648,47.2097054 67.3090659,47.1707106 67.2960165,47.1187175 C67.2699176,47.0797227 67.2438187,47.0407279 67.2177198,47.0017331 C67.1916209,46.9627383 67.1785714,46.9367418 67.1524725,46.897747 C67.1263736,46.8587522 67.1002747,46.8197574 67.0741758,46.7807626 C67.0350275,46.7287695 66.9958791,46.6767764 66.9567308,46.6247834 C66.9436813,46.6117851 66.9306319,46.5987868 66.9306319,46.5857886 C66.8914835,46.5467938 66.8653846,46.507799 66.8262363,46.4558059 C66.8001374,46.4168111 66.760989,46.3908146 66.7348901,46.3518198 C66.7218407,46.3388215 66.7218407,46.3388215 66.7087912,46.3258232 C66.6696429,46.2868284 66.6304945,46.2478336 66.5913462,46.2088388 C66.5652473,46.1828423 66.5260989,46.1438475 66.5,46.117851 C66.5,46.117851 66.5,46.117851 66.5,46.117851 C66.4869505,46.1048527 66.4739011,46.0918544 66.4739011,46.0918544 C66.4739011,46.0918544 66.4739011,46.0918544 66.4739011,46.0918544 C66.4478022,46.0658579 66.4217033,46.0398614 66.3956044,46.0268631 C66.3695055,46.0008666 66.3434066,45.9878683 66.3173077,45.9618718 C66.2912088,45.9488735 66.2781593,45.9228769 66.2520604,45.9098787 C66.2129121,45.8838821 66.1737637,45.8578856 66.1346154,45.8318891 C66.1085165,45.8188908 66.0824176,45.7928943 66.0563187,45.779896 C66.0302198,45.7668977 66.0041209,45.7538995 65.9910714,45.7279029 C65.8997253,45.6759099 65.8083791,45.6109185 65.717033,45.5719237 C65.6909341,45.5589255 65.6648352,45.5459272 65.6517857,45.5329289 C65.6126374,45.5199307 65.573489,45.4939341 65.5343407,45.4809359 C65.4951923,45.4679376 65.456044,45.4419411 65.4168956,45.4289428 C65.3646978,45.4029463 65.3255495,45.389948 65.2733516,45.3639515 C65.2211538,45.3379549 65.168956,45.3249567 65.1167582,45.3119584 C65.0906593,45.2989601 65.0645604,45.2989601 65.0384615,45.2859619 C65.0123626,45.2729636 64.9862637,45.2729636 64.9601648,45.2599653 C64.8557692,45.2209705 64.7383242,45.194974 64.6339286,45.1689775 C64.5817308,45.1559792 64.5164835,45.1429809 64.4642857,45.1299827 C64.4120879,45.1169844 64.3729396,45.1169844 64.3207418,45.1039861 C64.2946429,45.1039861 64.268544,45.0909879 64.2424451,45.0909879 C64.2163462,45.0909879 64.1771978,45.0779896 64.1380495,45.0779896 C64.125,45.0779896 64.1119505,45.0779896 64.0989011,45.0779896 C63.9684066,46.3518198 63.3550824,51.3431542 61.7369505,52.3310225 C61.7239011,52.3440208 61.6978022,52.3570191 61.6847527,52.3570191 C61.5281593,52.4480069 61.3585165,52.5 61.1888736,52.5129983 C61.1497253,52.5129983 61.1105769,52.5129983 61.084478,52.5129983 Z M53.2417582,51.382149 C55.5906593,51.2131716 59.5707418,51.0311958 60.8365385,51.6681109 C61.0061813,51.7590988 61.1497253,51.7590988 61.3063187,51.6681109 C62.3502747,51.0961872 63.0679945,47.3786828 63.3159341,45 C63.2898352,45 63.2767857,45 63.2506868,45 C63.1854396,45 63.1201923,45 63.0549451,45 C62.3502747,45 61.6456044,45 60.9409341,45 C60.8495879,45 60.7582418,45 60.6538462,45 C60.6407967,45.0649913 60.6146978,45.1299827 60.5625,45.1819757 C60.4320055,45.3249567 57.3523352,48.847487 55.8777473,49.965338 C55.4471154,50.3032929 54.2857143,50.8882149 53.2417582,51.382149 Z M50.0446429,120.571924 C49.5357143,120.935875 49.3791209,121.364818 49.3791209,121.988735 C49.4052198,126.837088 49.3921703,131.69844 49.3921703,136.559792 L49.3921703,137.469671 L72.581044,137.469671 L72.581044,119.428076 L51.1929945,119.428076 C50.7362637,119.883016 50.4361264,120.285962 50.0446429,120.571924 Z M46.9519231,120.97487 C48.0350275,121.143847 48.6353022,120.467938 49.353022,119.909012 C49.7706044,119.571057 49.9141484,119.220104 49.9141484,118.687175 C49.8880495,112.461005 49.9010989,106.234835 49.9010989,100.008666 L49.9010989,99.0727903 L44.8248626,99.0727903 C44.8118132,99.3457539 44.7987637,99.5797227 44.7987637,99.8006932 C44.7857143,106.104853 44.7726648,112.409012 44.7726648,118.713172 C44.7465659,119.519064 46.1298077,120.844887 46.9519231,120.97487 Z M39.8399725,85.1126516 C40.231456,85.1126516 40.5576923,84.787695 40.5576923,84.397747 C40.5576923,84.007799 40.231456,83.6828423 39.8399725,83.6828423 C39.8138736,83.6828423 39.7877747,83.6828423 39.7616758,83.6828423 C39.7355769,83.6828423 39.7225275,83.6828423 39.6964286,83.6958406 C39.6833791,83.6958406 39.6703297,83.6958406 39.6442308,83.7088388 C39.6442308,83.7088388 39.6311813,83.7088388 39.6311813,83.7088388 C39.6181319,83.7088388 39.6050824,83.7088388 39.592033,83.7218371 C39.5659341,83.7348354 39.5267857,83.7478336 39.5006868,83.7608319 C39.4876374,83.7608319 39.4745879,83.7738302 39.4615385,83.7868284 C39.4615385,83.7868284 39.4615385,83.7868284 39.448489,83.7868284 C39.4354396,83.7998267 39.4223901,83.7998267 39.3962912,83.812825 C39.3832418,83.8258232 39.3701923,83.8388215 39.3440934,83.8518198 C39.2918956,83.8908146 39.2396978,83.9428076 39.2135989,84.007799 C39.1875,84.0467938 39.1744505,84.0727903 39.1614011,84.1117851 C39.1614011,84.1117851 39.1614011,84.1247834 39.1614011,84.1247834 C39.1483516,84.1377816 39.1483516,84.1637782 39.1353022,84.1767764 C39.1222527,84.1897747 39.1222527,84.2157712 39.1222527,84.2287695 C39.1092033,84.254766 39.1092033,84.2807626 39.1092033,84.3197574 C39.1092033,84.3457539 39.1092033,84.3717504 39.1092033,84.397747 C39.1092033,84.4237435 39.1092033,84.44974 39.1092033,84.4627383 C39.1092033,84.4887348 39.1092033,84.5017331 39.1222527,84.5277296 C39.1222527,84.5407279 39.1222527,84.5407279 39.1222527,84.5537262 C39.1222527,84.5667244 39.1222527,84.5797227 39.1353022,84.6057192 C39.1353022,84.6187175 39.1483516,84.6317158 39.1483516,84.644714 C39.1483516,84.6577123 39.1614011,84.6707106 39.1614011,84.6837088 C39.1875,84.7616984 39.2396978,84.8266898 39.2918956,84.8786828 C39.3049451,84.8916811 39.3179945,84.9046794 39.331044,84.9176776 C39.3440934,84.9306759 39.3571429,84.9436742 39.3701923,84.9436742 C39.4223901,84.982669 39.4745879,85.0086655 39.5267857,85.034662 C39.5398352,85.0476603 39.5659341,85.0476603 39.5789835,85.0606586 C39.592033,85.0736568 39.6181319,85.0736568 39.6311813,85.0736568 C39.6442308,85.0736568 39.6572802,85.0866551 39.6703297,85.0866551 C39.6703297,85.0866551 39.6833791,85.0866551 39.6833791,85.0866551 C39.6964286,85.0866551 39.709478,85.0866551 39.7225275,85.0866551 C39.7877747,85.1126516 39.8138736,85.1126516 39.8399725,85.1126516 Z M39.8008242,75.9488735 C39.853022,75.9618718 39.9052198,75.9618718 39.9443681,75.9618718 C40.3358516,75.9618718 40.6620879,75.6369151 40.6620879,75.2469671 C40.6620879,74.8570191 40.3358516,74.5320624 39.9443681,74.5320624 C39.8921703,74.5320624 39.8399725,74.5320624 39.8008242,74.5450607 C39.7747253,74.5580589 39.7486264,74.5580589 39.7225275,74.5710572 C39.709478,74.5710572 39.6964286,74.5840555 39.6833791,74.5840555 C39.6833791,74.5840555 39.6703297,74.5840555 39.6703297,74.5970537 C39.6572802,74.610052 39.6442308,74.610052 39.6181319,74.6230503 C39.6050824,74.6230503 39.592033,74.6360485 39.5789835,74.6490468 C39.5659341,74.6620451 39.5528846,74.6620451 39.5398352,74.6750433 C39.5398352,74.6750433 39.5398352,74.6750433 39.5267857,74.6880416 C39.5137363,74.7010399 39.5006868,74.7010399 39.4876374,74.7140381 C39.4745879,74.7270364 39.4615385,74.7400347 39.448489,74.7530329 C39.3962912,74.805026 39.3571429,74.8570191 39.331044,74.9090121 C39.3179945,74.9220104 39.3179945,74.9350087 39.3049451,74.9610052 C39.2918956,75 39.2788462,75.0389948 39.2657967,75.0779896 C39.2657967,75.0909879 39.2527473,75.1039861 39.2527473,75.1299827 C39.2527473,75.1429809 39.2527473,75.1689775 39.2396978,75.1819757 C39.2396978,75.2079723 39.2396978,75.2339688 39.2396978,75.2599653 C39.2396978,75.2859619 39.2396978,75.3119584 39.2396978,75.3379549 C39.2396978,75.3509532 39.2396978,75.3769497 39.2527473,75.389948 C39.2527473,75.4029463 39.2527473,75.4159445 39.2657967,75.4419411 C39.2788462,75.4809359 39.2918956,75.5199307 39.3049451,75.5589255 C39.3049451,75.5719237 39.3179945,75.584922 39.3179945,75.5979203 C39.3440934,75.6629116 39.3962912,75.7279029 39.448489,75.7668977 C39.4615385,75.779896 39.4745879,75.7928943 39.4876374,75.8058925 C39.5006868,75.8188908 39.5137363,75.8318891 39.5398352,75.8448873 C39.5528846,75.8578856 39.5659341,75.8708839 39.5789835,75.8708839 C39.592033,75.8838821 39.6050824,75.8838821 39.6181319,75.8968804 C39.6311813,75.9098787 39.6572802,75.9098787 39.6703297,75.9228769 C39.709478,75.9228769 39.7616758,75.9358752 39.8008242,75.9488735 Z M39.9965659,57.6343154 C40.3880495,57.6343154 40.7142857,57.3093588 40.7142857,56.9194107 C40.7142857,56.5294627 40.3880495,56.2045061 39.9965659,56.2045061 C39.970467,56.2045061 39.9443681,56.2045061 39.9313187,56.2045061 C39.9182692,56.2045061 39.9182692,56.2045061 39.9052198,56.2045061 C39.8921703,56.2045061 39.8791209,56.2045061 39.8791209,56.2045061 C39.8660714,56.2045061 39.8660714,56.2045061 39.853022,56.2045061 C39.8399725,56.2045061 39.8269231,56.2045061 39.8269231,56.2175043 C39.8008242,56.2175043 39.7877747,56.2305026 39.7616758,56.2305026 C39.7486264,56.2305026 39.7355769,56.2435009 39.7225275,56.2435009 C39.709478,56.2435009 39.6964286,56.2564991 39.6833791,56.2564991 C39.6703297,56.2694974 39.6572802,56.2694974 39.6442308,56.2824957 C39.6311813,56.2954939 39.6181319,56.2954939 39.6050824,56.3084922 C39.592033,56.3214905 39.5789835,56.3214905 39.5659341,56.3344887 C39.5528846,56.347487 39.5398352,56.347487 39.5267857,56.3604853 C39.5267857,56.3604853 39.5267857,56.3604853 39.5267857,56.3604853 C39.5267857,56.3604853 39.5267857,56.3604853 39.5267857,56.3604853 C39.5137363,56.3734835 39.5006868,56.3864818 39.4876374,56.3864818 C39.4354396,56.4514731 39.3832418,56.5164645 39.3571429,56.5814558 C39.3571429,56.5944541 39.3440934,56.5944541 39.3440934,56.6074523 C39.3440934,56.6204506 39.331044,56.6464471 39.331044,56.6594454 C39.331044,56.6724437 39.3179945,56.6984402 39.3179945,56.7114385 C39.3179945,56.7114385 39.3179945,56.7114385 39.3179945,56.7244367 C39.3179945,56.737435 39.3179945,56.737435 39.3179945,56.7504333 C39.3179945,56.7504333 39.3179945,56.7504333 39.3179945,56.7504333 C39.3179945,56.7634315 39.3179945,56.7764298 39.3179945,56.8024263 C39.3179945,56.8284229 39.3179945,56.8544194 39.3179945,56.8674177 C39.3179945,56.8934142 39.3179945,56.9064125 39.3179945,56.932409 C39.3179945,56.9454073 39.3179945,56.9454073 39.3179945,56.9584055 C39.3179945,56.9714038 39.3179945,56.9844021 39.3179945,57.0103986 C39.3179945,57.0103986 39.3179945,57.0233969 39.3179945,57.0233969 C39.3179945,57.0493934 39.331044,57.0623917 39.331044,57.0883882 C39.3440934,57.1143847 39.3440934,57.1403813 39.3571429,57.1663778 C39.3701923,57.1793761 39.3701923,57.2053726 39.3832418,57.2183709 C39.3962912,57.2313692 39.3962912,57.2573657 39.4093407,57.270364 C39.4093407,57.270364 39.4093407,57.270364 39.4093407,57.270364 C39.4223901,57.2833622 39.4354396,57.2963605 39.448489,57.322357 C39.4615385,57.3353553 39.4745879,57.3483536 39.4876374,57.3743501 C39.4876374,57.3743501 39.5006868,57.3873484 39.5006868,57.4003466 C39.5137363,57.4133449 39.5267857,57.4263432 39.5398352,57.4393414 C39.5659341,57.4523397 39.5789835,57.465338 39.6050824,57.4913345 C39.6311813,57.5043328 39.6442308,57.517331 39.6703297,57.5303293 C39.6703297,57.5303293 39.6833791,57.5433276 39.6964286,57.5433276 C39.6964286,57.5433276 39.709478,57.5433276 39.709478,57.5563258 C39.709478,57.5563258 39.709478,57.5563258 39.709478,57.5563258 C39.709478,57.5563258 39.709478,57.5563258 39.709478,57.5563258 C39.709478,57.5563258 39.709478,57.5563258 39.709478,57.5563258 C39.7355769,57.5693241 39.7486264,57.5693241 39.7747253,57.5823224 C39.7747253,57.5823224 39.7877747,57.5823224 39.7877747,57.5823224 C39.8008242,57.5823224 39.8138736,57.5953206 39.8399725,57.5953206 C39.853022,57.5953206 39.8660714,57.5953206 39.8791209,57.6083189 C39.8921703,57.6083189 39.8921703,57.6083189 39.9052198,57.6083189 C39.9182692,57.6083189 39.9443681,57.6213172 39.9574176,57.6213172 C39.9443681,57.6343154 39.970467,57.6343154 39.9965659,57.6343154 Z M39.7877747,66.6681109 C39.9052198,66.7461005 40.0487637,66.7980936 40.2053571,66.7980936 C40.5968407,66.7980936 40.9230769,66.4731369 40.9230769,66.0831889 C40.9230769,65.6932409 40.5968407,65.3682842 40.2053571,65.3682842 C40.0487637,65.3682842 39.9052198,65.4202773 39.7877747,65.4982669 C39.6050824,65.6282496 39.4876374,65.8362218 39.4876374,66.0831889 C39.4876374,66.330156 39.6050824,66.5381282 39.7877747,66.6681109 Z M43.2328297,52.0320624 C43.2328297,52.0320624 42.9979396,52.0060659 42.5934066,51.9670711 C41.5364011,51.8760832 40.5315934,51.8110919 39.6050824,51.7720971 C39.6181319,52.4870017 39.6442308,53.7738302 39.6703297,55.4506066 C39.7747253,55.4246101 39.8921703,55.4116118 39.9965659,55.4116118 C40.8317308,55.4116118 41.4972527,56.0875217 41.4972527,56.9064125 C41.4972527,57.7253033 40.8186813,58.4012132 39.9965659,58.4012132 C39.8921703,58.4012132 39.8008242,58.3882149 39.709478,58.3752166 C39.7355769,60.2469671 39.7616758,62.3786828 39.7747253,64.6403813 C39.9052198,64.6013865 40.0487637,64.5753899 40.2053571,64.5753899 C41.0274725,64.5753899 41.706044,65.2512998 41.706044,66.0701906 C41.706044,66.8890815 41.0274725,67.5649913 40.2053571,67.5649913 C40.0618132,67.5649913 39.9313187,67.5389948 39.8008242,67.5129983 C39.8138736,69.5667244 39.8138736,71.6724437 39.8138736,73.7391681 C39.8660714,73.7391681 39.9052198,73.7391681 39.9574176,73.7391681 C40.779533,73.7391681 41.4581044,74.415078 41.4581044,75.2339688 C41.4581044,76.0658579 40.779533,76.7287695 39.9574176,76.7287695 C39.9052198,76.7287695 39.853022,76.7287695 39.8008242,76.7157712 C39.7877747,78.9124783 39.7616758,81.0051993 39.7225275,82.889948 C39.7616758,82.889948 39.8008242,82.889948 39.8399725,82.889948 C40.6620879,82.889948 41.3406593,83.5658579 41.3406593,84.3847487 C41.3406593,85.2036395 40.6620879,85.8795494 39.8399725,85.8795494 C39.7747253,85.8795494 39.709478,85.8795494 39.6442308,85.8665511 C39.5659341,87.9202773 39.4615385,89.5060659 39.3049451,90.389948 L43.0370879,90.389948 C41.7712912,74.3110919 43.0762363,55.0476603 43.2980769,52.0190641 C43.2850275,52.0190641 43.2850275,52.0190641 43.271978,52.0190641 C43.2589286,52.0320624 43.2458791,52.0320624 43.2328297,52.0320624 Z M14.2239011,84.2287695 C14.8241758,84.6057192 15.4505495,84.9436742 16.0508242,85.3076256 C16.9773352,85.8665511 17.6820055,86.542461 17.1991758,87.7642981 C17.1600275,87.8422877 17.1991758,87.9592721 17.1991758,88.1802426 C17.5384615,88.0762565 17.7864011,88.0242634 18.0212912,87.9332756 C19.1304945,87.5043328 19.260989,86.8674177 18.3736264,86.1005199 C17.1600275,85.0866551 15.7115385,84.592721 14.2239011,84.2287695 Z M5.9635989,83.2019064 C10.7657967,81.9930676 15.0851648,82.7209705 19.0391484,85.6325823 C19.1043956,85.1646447 19.1565934,84.839688 19.2087912,84.5147314 C19.7699176,80.7712305 20.2527473,77.0147314 20.9443681,73.297227 C21.3228022,71.2564991 22.1318681,69.3067591 22.5755495,67.2790295 C23.4498626,63.3535529 24.1936813,59.415078 24.9896978,55.4766031 C25.4725275,53.1109185 25.9292582,50.745234 26.4251374,48.3015598 C23.9848901,47.7166378 21.9361264,48.3535529 20.1222527,49.822357 C18.2822802,51.3041594 16.9120879,53.1759099 15.7506868,55.177643 C13.6366758,58.830156 11.5879121,62.5216638 9.51304945,66.2001733 C9.3956044,66.4211438 9.33035714,66.6681109 9.27815934,66.915078 C8.4168956,71.1005199 7.56868132,75.2859619 6.72046703,79.4584055 C6.45947802,80.6802426 6.22458791,81.8890815 5.9635989,83.2019064 Z M51.5453297,52.305026 C51.7671703,55.3336222 53.0721154,74.3370884 51.8063187,90.4029463 L55.4862637,90.4029463 C54.6902473,84.5797227 55.146978,56.6724437 55.2252747,52.0580589 C53.7898352,52.1230503 52.4196429,52.2270364 51.5975275,52.305026 C51.5975275,52.305026 51.5714286,52.305026 51.5453297,52.305026 Z M22.3145604,136.637782 C22.3145604,137.352686 22.4842033,137.573657 23.2410714,137.573657 C30.2877747,137.54766 37.334478,137.573657 44.3811813,137.573657 L45.3468407,137.573657 C45.3729396,137.352686 45.3990385,137.2487 45.3990385,137.144714 C45.3990385,132.010399 45.4120879,126.876083 45.385989,121.728769 C45.385989,121.429809 45.1380495,121.104853 44.9162088,120.857886 C44.4855769,120.363951 43.9896978,119.92201 43.3894231,119.337088 L22.3667582,119.337088 C22.3537088,119.649047 22.3276099,119.896014 22.3276099,120.142981 C22.3276099,125.654246 22.3406593,131.139515 22.3145604,136.637782 Z M9.4739011,83.5788562 C9.46085165,83.5008666 9.43475275,83.4358752 9.4217033,83.3578856 C8.3125,83.5788562 7.2032967,83.7348354 6.12019231,84.0337955 C5.82005495,84.1117851 5.42857143,84.5667244 5.41552198,84.8656846 C5.40247253,85.1906412 5.78090659,85.5285962 5.9896978,85.8535529 C6.34203297,83.6568458 8.19505495,84.059792 9.4739011,83.5788562 Z M7.80357143,91.9627383 C10.3482143,91.169844 13.1277473,92.092721 14.7197802,94.1724437 C16.2987637,96.2521664 16.3901099,98.9948007 14.7458791,101.360485 C13.7932692,102.725303 14.0803571,104.207106 13.7410714,105.714905 C15.1634615,105.402946 16.1943681,104.753033 16.9903846,103.752166 C19.1696429,101.035529 19.4567308,95.9532062 17.5645604,93.0155979 C17.2513736,92.5216638 16.768544,92.0667244 16.2596154,91.7807626 C15.7637363,91.4948007 15.6071429,91.2218371 15.698489,90.7019064 C15.8942308,89.5970537 16.103022,88.5051993 16.2465659,87.3873484 C16.2857143,87.1143847 16.1943681,86.6854419 15.9986264,86.5294627 C13.5322802,84.6057192 10.7657967,84.1507799 7.77747253,85.0216638 C7.51648352,85.0996534 7.2293956,85.5415945 7.1771978,85.8405546 C7.0467033,86.8154246 7.0728022,87.8162912 6.92925824,88.8041594 C6.87706044,89.1291161 6.58997253,89.4930676 6.30288462,89.6880416 C5.76785714,90.0649913 5.10233516,90.2729636 4.59340659,90.6759099 C1.65728022,93.067591 0.678571429,96.2131716 1.2135989,99.8656846 C1.39629121,101.152513 1.86607143,102.335355 2.60989011,103.414211 C2.72733516,103.414211 2.84478022,103.414211 2.96222527,103.401213 C3.26236264,101.282496 3.54945055,99.1507799 3.88873626,97.0320624 C4.26717033,94.6663778 5.31112637,92.729636 7.80357143,91.9627383 Z M5.16758242,96.1741768 C6.83791209,94.1334489 8.82142857,93.0805893 11.3791209,93.9384749 C13.5714286,94.6793761 14.4718407,96.4341421 14.7067308,98.7608319 C15.5549451,96.5121317 13.7932692,93.652513 11.2355769,92.9116118 C8.37774725,92.0797227 5.75480769,93.4445407 5.16758242,96.1741768 Z M28.9828297,21.4471404 C28.9828297,22.8639515 28.9828297,24.2937608 28.9828297,25.7105719 C28.9175824,27.9592721 28.7740385,29.6360485 28.6826923,30.5459272 C28.7740385,30.4939341 28.8784341,30.4289428 28.9958791,30.3509532 C29.2699176,30.1819757 29.5961538,29.9740035 29.9615385,29.7270364 C31.3708791,28.7781629 33.25,27.2963605 34.4635989,25.5285962 C35.3379121,24.254766 34.6071429,19.4064125 34.2548077,17.6386482 C34.2287088,17.4696707 34.293956,17.3136915 34.4505495,17.2227036 C38.9395604,14.6620451 43.4546703,13.2842288 47.8914835,13.1672444 C47.9306319,13.0242634 48.0611264,12.907279 48.2177198,12.8942808 C49.0398352,12.7902946 50.1229396,11.3994801 50.8667582,10.1646447 C51.0625,9.83968804 51.2321429,9.52772964 51.3756868,9.25476603 C51.3887363,9.24176776 51.3887363,9.2287695 51.4017857,9.21577123 C51.5061813,9.05979203 51.728022,8.99480069 51.8976648,9.08578856 C51.9629121,9.1117851 52.0151099,9.16377816 52.0412088,9.21577123 C52.1195055,9.33275563 52.1325549,9.47573657 52.0673077,9.60571924 C52.0281593,9.68370884 51.9237637,9.89168111 51.7671703,10.177643 C51.3104396,10.9835355 50.4100275,12.4263432 49.4052198,13.1802426 C50.2664835,13.2062392 51.0233516,13.2582322 51.5714286,13.297227 C51.6497253,13.2322357 51.7410714,13.1932409 51.845467,13.2062392 C52.7328297,13.2582322 53.9855769,11.8024263 55.0556319,10.177643 C55.2644231,9.86568458 55.4601648,9.5407279 55.6559066,9.21577123 C56.0082418,8.63084922 56.3214286,8.04592721 56.5693681,7.5389948 C56.6607143,7.3440208 56.8956044,7.2660312 57.0913462,7.35701906 C57.2870879,7.44800693 57.3653846,7.68197574 57.2740385,7.87694974 C57.1957418,8.04592721 56.9347527,8.55285962 56.5563187,9.21577123 C56.3866758,9.51473137 56.1909341,9.83968804 55.9821429,10.177643 C55.2252747,11.3734835 54.2465659,12.7253033 53.2287088,13.4532062 C54.1421703,13.5571924 55.0556319,13.6741768 55.956044,13.830156 C55.9951923,13.8171577 56.0343407,13.8171577 56.073489,13.8171577 L56.1256868,13.8171577 C57.6002747,13.8171577 59.2836538,12.0623917 60.6146978,10.2556326 C60.823489,9.96967071 61.0322802,9.67071057 61.228022,9.3847487 C61.8413462,8.47487002 62.3372253,7.6169844 62.6373626,7.03206239 C62.7417582,6.83708839 62.9766484,6.77209705 63.1593407,6.86308492 C63.3550824,6.96707106 63.4203297,7.20103986 63.3289835,7.3830156 C63.2767857,7.48700173 62.793956,8.42287695 62.0240385,9.5797227 C61.8543956,9.85268631 61.6586538,10.1256499 61.4498626,10.4116118 C60.4320055,11.8544194 59.1009615,13.4012132 57.6916209,14.1421144 C58.4093407,14.2850953 59.1270604,14.4540728 59.8447802,14.6230503 C59.8708791,14.610052 59.896978,14.610052 59.9100275,14.610052 C61.5412088,14.4930676 62.8070055,12.7253033 63.5116758,11.4384749 C63.7074176,11.1005199 63.8509615,10.7885615 63.9553571,10.5545927 C64.0728022,10.2816291 64.1510989,10.1126516 64.1510989,10.0996534 C64.2293956,9.89168111 64.4512363,9.80069324 64.6600275,9.86568458 C64.8557692,9.94367418 64.9601648,10.1646447 64.8818681,10.372617 C64.8688187,10.4116118 64.7644231,10.6845754 64.5817308,11.0745234 C64.4512363,11.3344887 64.2946429,11.6464471 64.0989011,11.9974003 C63.4855769,13.0632582 62.532967,14.3760832 61.2802198,15.0129983 C61.893544,15.1819757 62.4938187,15.3639515 63.0940934,15.5589255 C63.2767857,15.6239168 63.3811813,15.7928943 63.3550824,15.97487 C63.342033,16.0528596 62.3894231,23.3058925 63.1854396,25.4636049 C63.4333791,26.152513 64.4903846,27.3483536 65.5082418,28.3882149 C65.8605769,28.7391681 66.1998626,29.0771231 66.5,29.3630849 C66.5521978,29.415078 66.6043956,29.4670711 66.6565934,29.5060659 C66.8784341,25.6065858 67.7527473,9.20277296 67.3612637,6.75909879 C66.8523352,3.54852686 55.4862637,0.792894281 49.8880495,0.792894281 C49.4965659,0.792894281 49.1311813,0.805892548 48.8049451,0.831889081 C47.1346154,0.974870017 42.8804945,3.7305026 41.3798077,4.78336222 C41.3276099,4.82235702 41.2623626,4.84835355 41.1971154,4.84835355 C38.1043956,5.18630849 29.7005495,6.56412478 28.0432692,8.76083189 C27.834478,9.04679376 27.7431319,9.31975737 27.7953297,9.60571924 C28.5913462,14.02513 28.904533,18.067591 28.9828297,21.4471404 Z M34.3070055,52.1230503 C34.1373626,52.2010399 33.9677198,52.2400347 33.7980769,52.2400347 C33.7850275,52.2400347 33.771978,52.2400347 33.771978,52.2400347 C33.5631868,52.2400347 33.3674451,52.1880416 33.1717033,52.0840555 C31.5927198,51.2131716 30.9532967,46.5467938 30.7836538,45 C30.7706044,45 30.7445055,45 30.731456,45.0129983 C30.7053571,45.0259965 30.6792582,45.0259965 30.6401099,45.0259965 C30.6401099,45.0259965 30.6270604,45.0259965 30.614011,45.0259965 C30.5879121,45.0259965 30.5748626,45.0389948 30.5487637,45.0389948 C30.5226648,45.0519931 30.4835165,45.0519931 30.4574176,45.0649913 C30.4313187,45.0649913 30.4182692,45.0779896 30.3921703,45.0779896 C30.3269231,45.0909879 30.2616758,45.1169844 30.1964286,45.1429809 C30.1703297,45.1559792 30.1311813,45.1689775 30.092033,45.1819757 C30.0528846,45.194974 30.0006868,45.2209705 29.9615385,45.2339688 C29.8701923,45.2729636 29.7918956,45.3119584 29.7135989,45.3509532 C29.6875,45.3639515 29.6744505,45.3639515 29.6483516,45.3769497 C29.5570055,45.4159445 29.4656593,45.4679376 29.3743132,45.5199307 C29.3612637,45.5329289 29.3351648,45.5459272 29.3221154,45.5459272 C29.2568681,45.584922 29.1785714,45.6369151 29.1133242,45.6759099 C29.1002747,45.6889081 29.0741758,45.7019064 29.0611264,45.7149047 C29.021978,45.7409012 28.9828297,45.7668977 28.9436813,45.7928943 C28.8914835,45.8318891 28.8523352,45.8578856 28.8001374,45.8968804 C28.7087912,45.9618718 28.6304945,46.0268631 28.5521978,46.1048527 C28.5260989,46.1308492 28.5,46.1568458 28.4739011,46.169844 C28.4478022,46.1958406 28.4217033,46.2088388 28.4086538,46.2348354 C28.3825549,46.2608319 28.356456,46.2868284 28.3303571,46.312825 C28.2651099,46.3778163 28.1998626,46.4558059 28.1346154,46.5207972 C28.095467,46.559792 28.0693681,46.5987868 28.0432692,46.6377816 C28.0171703,46.6767764 27.978022,46.7157712 27.9519231,46.754766 C27.9258242,46.7937608 27.8997253,46.8327556 27.8736264,46.8717504 C27.8475275,46.9107452 27.8214286,46.94974 27.7953297,46.9887348 C27.7692308,47.0277296 27.7431319,47.0667244 27.7300824,47.1187175 C27.6909341,47.1967071 27.6648352,47.2746967 27.6256868,47.3526863 C27.6256868,47.3656846 27.6256868,47.3656846 27.6126374,47.3786828 C27.5995879,47.4176776 27.5865385,47.4566724 27.573489,47.4956672 C27.5604396,47.534662 27.5473901,47.5736568 27.5473901,47.6256499 C26.0597527,54.787695 24.5068681,61.9367418 23.084478,69.1117851 C21.9883242,74.6230503 21.0096154,80.1473137 20.0570055,85.6845754 C19.7960165,87.1923744 19.8090659,88.7521664 19.6916209,90.3639515 L38.521978,90.3639515 C38.6785714,89.5970537 38.7960165,87.855286 38.8743132,85.5025997 C38.5480769,85.229636 38.3392857,84.8136915 38.3392857,84.3587522 C38.3392857,83.864818 38.5741758,83.4358752 38.9395604,83.1629116 C38.9787088,81.135182 39.0048077,78.8214905 39.0178571,76.3778163 C38.6785714,76.1048527 38.4567308,75.6759099 38.4567308,75.2079723 C38.4567308,74.7400347 38.6785714,74.3110919 39.0309066,74.0381282 C39.0309066,71.7244367 39.0309066,69.3197574 39.0178571,66.9540728 C38.8221154,66.7071057 38.7046703,66.3951473 38.7046703,66.0441941 C38.7046703,65.7062392 38.8090659,65.407279 39.0048077,65.160312 C38.9917582,62.6256499 38.9656593,60.1689775 38.926511,57.9332756 C38.926511,57.9332756 38.926511,57.9332756 38.926511,57.9332756 C38.665522,57.660312 38.5089286,57.2963605 38.5089286,56.8934142 C38.5089286,56.5034662 38.665522,56.152513 38.9004121,55.8795494 C38.8743132,54.3327556 38.8612637,52.9289428 38.8351648,51.720104 L38.8221154,51.720104 C35.7293956,51.6291161 34.7115385,51.8890815 34.3853022,52.0580589 C34.3461538,52.0970537 34.3200549,52.110052 34.3070055,52.1230503 Z M36.3166209,44.7010399 C36.3296703,44.7010399 36.3296703,44.7010399 36.3427198,44.7140381 C36.6298077,44.7920277 36.9690934,44.8700173 37.334478,44.9610052 C40.2836538,45.6759099 45.4512363,46.8457539 47.6696429,46.8457539 C49.7184066,46.8327556 54.5075549,45.6889081 57.1826923,45 C57.521978,44.9090121 57.8351648,44.8310225 58.0961538,44.7660312 C58.709478,44.610052 59.0879121,44.5060659 59.0879121,44.5060659 L59.0618132,44.5060659 L35.1813187,44.4280763 C35.1813187,44.4280763 35.5597527,44.5320624 36.1861264,44.6880416 L36.1730769,44.6880416 C36.2122253,44.6750433 36.2644231,44.6880416 36.3166209,44.7010399 Z M29.9615385,34.0684575 C29.9615385,37.7469671 32.3104396,40.0736568 35.9903846,40.0866551 C39.9182692,40.0866551 43.8592033,40.0866551 47.7870879,40.0866551 C51.7932692,40.0866551 55.8125,40.0996534 59.8186813,40.0866551 C63.1593407,40.0736568 65.5473901,37.6689775 65.5473901,34.3284229 C65.5473901,32.7166378 65.5473901,31.117851 65.5473901,29.5060659 C64.4120879,28.3882149 62.8461538,26.737435 62.4807692,25.7495667 C61.7108516,23.669844 62.3894231,17.6906412 62.5721154,16.2218371 C59.0226648,15.1039861 55.3296703,14.3890815 51.5714286,14.0901213 C50.7362637,14.02513 49.470467,13.9341421 48.0741758,13.9601386 C43.793956,14.0511265 39.4223901,15.3379549 35.0638736,17.7946274 C35.3248626,19.1724437 36.2122253,24.3717504 35.103022,25.9965338 C33.9677198,27.660312 32.3365385,29.0381282 30.9663462,30.0259965 C30.614011,30.2729636 30.2747253,30.5069324 29.9615385,30.7019064 C29.9615385,31.8067591 29.9615385,32.9376083 29.9615385,34.0684575 Z M35.7424451,45.3769497 C36.7864011,46.5207972 38.4958791,48.3535529 39.4354396,49.0814558 C40.0879121,49.5753899 42.8543956,50.8492201 43.8722527,51.3041594 C44.0288462,51.3691508 44.1201923,51.52513 44.1071429,51.6941075 C44.0940934,51.9020797 42.4498626,73.05026 43.8200549,90.4159445 L51.0364011,90.4159445 C51.4148352,85.6585789 51.5583791,80.6412478 51.584478,75.8578856 L51.584478,75.8318891 C51.5975275,71.932409 51.5192308,68.1889081 51.4148352,64.8743501 C51.1929945,57.9592721 50.8145604,52.8769497 50.7493132,52.0710572 C50.7493132,52.0060659 50.7362637,51.9670711 50.7362637,51.9670711 C50.7362637,51.9540728 50.7362637,51.9410745 50.7362637,51.9280763 C50.7362637,51.7850953 50.8276099,51.6421144 50.9711538,51.5901213 C51.989011,51.135182 54.7554945,49.8613518 55.407967,49.3674177 C56.5041209,48.5355286 58.6181319,46.2088388 59.5315934,45.1819757 C57.2870879,45.779896 50.4100275,47.5476603 47.6565934,47.5476603 L47.6174451,47.5476603 C45.1641484,47.5216638 38.4306319,46.0008666 35.7424451,45.3769497 Z M34.0199176,51.3951473 C34.7376374,51.0441941 36.3035714,50.9012132 38.8351648,50.9792028 C39.0961538,50.992201 39.3701923,50.992201 39.6181319,51.0051993 C40.2575549,51.0311958 40.9230769,51.0701906 41.6277473,51.1221837 C40.5837912,50.6282496 39.4093407,50.0303293 38.9787088,49.6923744 C38.2348901,49.1204506 37.073489,47.9376083 36.0817308,46.8847487 C36.0817308,46.8847487 36.0817308,46.8847487 36.0817308,46.8847487 C35.8598901,46.6507799 35.6380495,46.4168111 35.4423077,46.1958406 C35.4423077,46.1958406 35.4423077,46.1958406 35.4292582,46.1828423 C34.8681319,45.5719237 34.4375,45.0909879 34.3200549,44.9350087 C33.4065934,44.9350087 32.4800824,44.9350087 31.5666209,44.9350087 C31.8276099,47.3136915 32.5453297,50.8362218 33.5501374,51.3951473 C33.6936813,51.4861352 33.8372253,51.4861352 34.0199176,51.3951473 Z M82.1201923,84.2807626 C83.4642857,83.9558059 84.8866758,83.9168111 86.3351648,84.1507799 C87.5226648,84.3457539 88.8276099,84.5017331 88.8798077,86.2305026 C89.5061813,85.8015598 90.2760989,85.4246101 90.0673077,84.7227036 C89.9368132,84.2937608 89.1799451,84.0207972 88.657967,83.7608319 C88.3578297,83.6048527 87.9663462,83.6048527 87.614011,83.5658579 C85.7218407,83.3708839 83.8557692,83.5268631 82.0418956,83.9688042 C81.5590659,84.0857886 81.0762363,84.2287695 80.5934066,84.3847487 C79.4450549,84.7616984 78.3619505,85.3596187 77.3049451,85.9705373 C76.9526099,86.1785095 76.5611264,86.737435 76.6002747,87.1143847 C76.6263736,87.4523397 77.1875,87.7512998 77.5137363,88.0762565 C77.6311813,88.05026 77.7486264,88.0372617 77.8660714,88.0112652 C77.2005495,86.6984402 78.1531593,86.2435009 78.896978,85.7365685 C79.9148352,85.034662 80.9979396,84.5537262 82.1201923,84.2807626 Z M91.2417582,99.0987868 C91.5418956,100.671577 91.8681319,102.244367 92.220467,103.986135 C92.4423077,103.739168 92.5075549,103.674177 92.5597527,103.596187 C93.7342033,101.568458 94.2431319,99.3847487 93.8385989,97.0710572 C93.290522,93.8864818 91.7637363,91.3778163 88.6318681,90.0389948 C88.3578297,89.9220104 88.1098901,89.4930676 88.0707418,89.1811092 C87.9402473,88.2582322 87.875,87.3093588 87.875,86.3734835 C87.875,85.7365685 87.5879121,85.4376083 87.0267857,85.3076256 C84.168956,84.6057192 81.5068681,85.034662 79.1318681,86.8284229 C78.896978,86.9974003 78.7403846,87.465338 78.779533,87.7772964 C78.9100275,88.9341421 79.1710165,90.0779896 79.301511,91.2478336 C79.3276099,91.507799 79.1057692,91.94974 78.8839286,92.0667244 C77.9965659,92.4956672 77.4354396,93.2105719 77.0831044,94.0684575 C75.8042582,97.1490468 75.8303571,100.216638 77.3832418,103.193241 C78.1662088,104.688042 79.418956,105.701906 81.2458791,106.104853 C81.1806319,105.454939 81.0892857,104.92201 81.0892857,104.40208 C81.0762363,103.271231 80.6195055,102.335355 80.0322802,101.373484 C78.4663462,98.7868284 78.896978,95.8492201 80.9587912,93.8344887 C83.4642857,91.3778163 88.8537088,91.169844 90.5501374,95.4852686 C90.9938187,96.5901213 91.0068681,97.889948 91.2417582,99.0987868 Z M76.521978,85.5935875 C80.4498626,82.6689775 84.8083791,81.9930676 89.5583791,83.1759099 C88.540522,78.1975737 87.5618132,73.3622184 86.5700549,68.5398614 C86.4004121,67.694974 86.282967,66.8110919 85.8914835,66.0571924 C84.8083791,63.9514731 83.6600275,61.8847487 82.4333791,59.8570191 C80.8282967,57.1793761 79.2362637,54.4887348 77.448489,51.9280763 C76.2348901,50.1733102 74.5645604,48.8344887 72.4114011,48.2755633 C71.3152473,47.9896014 70.2190934,47.9636049 69.0968407,48.3275563 C69.135989,48.6005199 69.1490385,48.8344887 69.1881868,49.0554593 C70.0233516,53.5528596 70.845467,58.05026 71.7197802,62.534662 C72.1504121,64.7443674 72.6201923,66.9540728 73.1552198,69.1507799 C73.625,71.1265165 74.3035714,73.05026 74.6950549,75.0389948 C75.3736264,78.5095321 75.9086538,82.0060659 76.521978,85.5935875 Z M89.8715659,96.5511265 C89.1146978,93.6785095 86.426511,92.3786828 83.5817308,93.3535529 C81.0762363,94.2114385 79.4320055,97.0840555 80.3193681,99.0857886 C80.5542582,96.6941075 81.5590659,94.8483536 84.0123626,94.1984402 C86.4134615,93.5615251 88.2664835,94.627383 89.8715659,96.5511265 Z M89.467033,89.3370884 C93.0556319,90.9228769 95.404533,95.3422877 94.856456,99.8526863 C94.6215659,101.815425 93.8907967,103.583189 92.6771978,105.155979 C92.5206044,105.363951 92.1943681,105.558925 91.959478,105.558925 C91.8159341,105.558925 91.5940934,105.181976 91.5288462,104.948007 C91.2026099,103.778163 90.9416209,102.582322 90.6153846,101.39948 C90.3282967,100.385615 90.0542582,99.3717504 89.6758242,98.3838821 C89.2451923,97.2400347 88.5144231,96.3041594 87.4574176,95.6412478 C84.9649725,94.1074523 81.9375,95.407279 81.4546703,98.2668977 C81.2980769,99.1897747 81.415522,100.190641 81.5199176,101.139515 C81.7287088,102.907279 82.0418956,104.649047 82.2898352,106.403813 C82.3811813,107.001733 82.1071429,107.2487 81.4807692,107.144714 C79.0535714,106.741768 77.2918956,105.389948 76.2740385,103.206239 C74.8385989,100.112652 74.7864011,96.9410745 76.1174451,93.8084922 C76.4958791,92.9246101 77.331044,92.2227036 77.9443681,91.4298094 C78.0879121,91.2348354 78.2184066,90.9878683 78.231456,90.7538995 C78.3228022,89.2850953 77.5789835,88.4272097 76.0260989,88.1282496 C76.0260989,88.9081456 75.9739011,89.7530329 76.0391484,90.5979203 C76.0913462,91.312825 75.856456,91.559792 75.1387363,91.4818024 C74.7081044,91.4298094 74.2774725,91.4688042 73.7554945,91.4688042 C73.4553571,110.979203 73.6902473,130.450607 73.5858516,149.961005 L48.4004121,149.961005 L48.4004121,121.962738 L46.4038462,121.962738 L46.4038462,149.948007 L21.375,149.948007 L21.375,91.4038128 L18.8173077,91.4038128 L18.8173077,88.4792028 C18.2692308,88.635182 17.8125,88.7261698 17.3949176,88.9081456 C17.1861264,88.9991334 16.9773352,89.2331023 16.9120879,89.4410745 C16.6510989,90.2469671 16.6902473,90.8578856 17.5254121,91.4948007 C18.8173077,92.4696707 19.260989,94.0294627 19.5480769,95.5762565 C20.0309066,98.1759099 19.8221154,100.697574 18.5824176,103.076256 C17.551511,105.064991 15.9072802,106.312825 13.6758242,106.741768 C12.8406593,106.897747 12.6188187,106.715771 12.7232143,105.89688 C12.9581044,104.194107 13.2582418,102.491334 13.467033,100.775563 C13.584478,99.8786828 13.6758242,98.9428076 13.5714286,98.0589255 C13.3756868,96.4731369 12.4883242,95.3162912 10.9223901,94.8093588 C9.34340659,94.3024263 7.94711538,94.7833622 6.75961538,95.8622184 C5.70260989,96.8240901 5.18063187,98.084922 4.8282967,99.4367418 C4.37156593,101.217504 3.90178571,102.998267 3.40590659,104.766031 C3.23626374,105.389948 2.77953297,105.428943 2.36195055,104.857019 C0.613324176,102.517331 -0.23489011,99.8916811 0.130494505,96.9800693 C0.574175824,93.3795494 2.23145604,90.5329289 5.62431319,88.8951473 C5.76785714,88.830156 5.95054945,88.6611785 5.9635989,88.5441941 C5.97664835,87.7383016 6.38118132,86.8674177 5.38942308,86.2305026 C4.54120879,85.6845754 4.55425824,84.8266898 4.76304945,83.8518198 C5.79395604,79.1074523 6.73351648,74.3370884 7.69917582,69.5797227 C7.86881868,68.7348354 7.98626374,67.8639515 8.22115385,67.0450607 C8.4168956,66.3431542 8.70398352,65.6542461 9.05631868,65.0303293 C10.9093407,61.6637782 12.7754121,58.297227 14.6936813,54.982669 C15.9203297,52.8639515 17.3427198,50.8622184 19.2348901,49.2634315 C21.1923077,47.5996534 23.4107143,46.7677643 26.0336538,47.1967071 C26.2554945,47.2357019 26.5686813,47.0277296 26.7513736,46.8457539 C27.4690934,46.1438475 28.0693681,45.2469671 28.8914835,44.7270364 C29.6222527,44.2590988 30.5879121,44.0901213 31.4752747,43.9861352 C32.4800824,43.8691508 33.510989,43.9471404 34.5418956,43.9731369 C34.9725275,43.9861352 35.1552198,43.8171577 35.1160714,43.4012132 C35.1160714,43.3492201 35.1160714,43.297227 35.1160714,43.245234 C35.103022,42.5823224 35.3118132,41.7894281 35.0247253,41.3084922 C34.7767857,40.9055459 33.9285714,40.8795494 33.3543956,40.6715771 C30.7967033,39.7487002 29.0480769,37.3960139 29.0350275,34.6663778 C29.0350275,33.5355286 29.021978,32.4046794 29.021978,31.2738302 C28.6696429,31.4818024 28.4478022,31.5987868 28.4086538,31.6117851 C28.356456,31.6377816 28.2912088,31.6507799 28.2259615,31.6507799 C28.1476648,31.6507799 28.0693681,31.6247834 28.0041209,31.5727903 C27.8866758,31.4948007 27.8214286,31.3388215 27.8475275,31.1958406 C27.8605769,31.1048527 29.1524725,21.7331023 27.1037088,9.74870017 C27.0254121,9.24176776 27.1559066,8.76083189 27.4951923,8.30589255 C29.6092033,5.51126516 39.8791209,4.23743501 41.0927198,4.10745234 C41.8104396,3.60051993 46.717033,0.259965338 48.8179945,0.0779896014 C51.4278846,-0.142980936 56.0604396,0.493934142 60.0796703,1.62478336 C62.9505495,2.43067591 67.8049451,4.14644714 68.209478,6.65511265 C68.6531593,9.48873484 67.5178571,29.5450607 67.4656593,30.389948 C67.4526099,30.5329289 67.3612637,30.6759099 67.2307692,30.7279029 C67.1002747,30.779896 66.9306319,30.7538995 66.8131868,30.6499133 C66.7870879,30.6369151 66.7087912,30.5589255 66.5913462,30.4419411 C66.6043956,31.4818024 66.6174451,32.5216638 66.643544,33.5485269 C66.7218407,37.3830156 64.5686813,40.5415945 60.4320055,41.0745234 L60.4320055,44.0121317 C61.3585165,44.0121317 62.2458791,44.0381282 63.1332418,44.0121317 C65.4821429,43.9081456 67.2046703,44.9090121 68.3791209,46.9107452 C68.4835165,47.092721 68.8097527,47.3136915 68.9793956,47.2746967 C72.4375,46.5337955 75.1126374,47.8986135 77.4093407,50.3032929 C79.5103022,52.5 80.9848901,55.1256499 82.4464286,57.7383016 C83.9210165,60.3769497 85.4086538,63.0155979 86.8701923,65.6672444 C87.0528846,65.992201 87.1703297,66.3691508 87.2486264,66.7331023 C88.396978,72.3353553 89.4539835,77.9636049 90.7328297,83.5268631 C91.0982143,85.1516464 90.5892857,86.0355286 89.3626374,86.8284229 C88.6840659,87.2833622 88.7884615,89.0381282 89.467033,89.3370884 Z M72.698489,97.8509532 L72.698489,91.6637782 L22.4450549,91.6637782 L22.4450549,97.8509532 L72.698489,97.8509532 Z M72.5940934,148.986135 L72.5940934,138.52253 L49.4443681,138.52253 L49.4443681,148.986135 L72.5940934,148.986135 Z M72.5549451,118.34922 L72.5549451,99.0467938 L50.9581044,99.0467938 L50.9581044,118.362218 L72.5549451,118.362218 L72.5549451,118.34922 Z M59.3228022,43.8691508 L59.3228022,41.3864818 L36.1339286,41.3864818 L36.1339286,43.8691508 L59.3228022,43.8691508 Z M45.3468407,148.986135 L45.3468407,138.587522 L22.3667582,138.587522 L22.3667582,148.986135 L45.3468407,148.986135 Z M43.7156593,118.271231 L43.7156593,99.0337955 L22.3798077,99.0337955 L22.3798077,118.258232 L43.7156593,118.258232 L43.7156593,118.271231 Z" id="XMLID_14_" fill="#000000"></path>
                <path d="M32.8976648,49.2504333 C32.7541209,49.2894281 32.6758242,49.432409 32.7019231,49.5623917 C32.728022,49.6793761 32.8324176,49.7573657 32.9498626,49.7573657 C32.9759615,49.7573657 32.989011,49.7573657 33.0151099,49.7443674 C33.0412088,49.7313692 35.4162088,49.1594454 36.8255495,49.3414211 C36.9690934,49.3674177 37.0995879,49.2634315 37.1126374,49.1204506 C37.1387363,48.9774697 37.0343407,48.847487 36.8907967,48.8344887 C35.3901099,48.6395147 32.989011,49.237435 32.8976648,49.2504333 Z M36.0817308,46.8847487 C37.0604396,47.9376083 38.2218407,49.1204506 38.9787088,49.6923744 C39.4223901,50.0303293 40.5837912,50.6152513 41.6277473,51.1221837 C40.9230769,51.0701906 40.2575549,51.0311958 39.6181319,51.0051993 C39.3571429,50.992201 39.0961538,50.9792028 38.8351648,50.9792028 C36.3166209,50.9142114 34.7376374,51.0441941 34.0199176,51.3951473 C33.8502747,51.4861352 33.7067308,51.4861352 33.5501374,51.3951473 C32.5453297,50.8362218 31.8276099,47.3136915 31.5666209,44.9350087 C32.4931319,44.9350087 33.4065934,44.9350087 34.3200549,44.9350087 C34.4505495,45.0779896 34.8681319,45.5589255 35.4292582,46.1828423 C35.4292582,46.1828423 35.4292582,46.1828423 35.4423077,46.1958406 C35.625,46.4168111 35.8337912,46.6377816 36.0817308,46.8847487 C36.0686813,46.8847487 36.0817308,46.8847487 36.0817308,46.8847487 Z" id="XMLID_11_" fill="#F37D12"></path>
                <path d="M32.3365385,76.7807626 C32.5453297,76.7937608 32.7149725,76.9887348 32.7019231,77.1967071 C32.4931319,79.965338 29.5309066,83.864818 26.8296703,84.9306759 C26.7774725,84.9436742 26.7383242,84.9566724 26.6861264,84.9566724 C26.529533,84.9566724 26.385989,84.8656846 26.3207418,84.7097054 C26.2424451,84.5147314 26.3468407,84.2807626 26.5425824,84.202773 C28.9697802,83.2538995 31.7362637,79.6143847 31.918956,77.1317158 C31.9320055,76.9237435 32.1146978,76.754766 32.3365385,76.7807626 Z" id="XMLID_10_" fill="#000000"></path>
                <path d="M30.7836538,45 C30.9532967,46.5467938 31.5927198,51.2131716 33.1717033,52.0840555 C33.3674451,52.1880416 33.5631868,52.2400347 33.771978,52.2400347 C33.7850275,52.2400347 33.7980769,52.2400347 33.7980769,52.2400347 C34.6854396,56.5684575 34.0851648,58.6221837 33.6023352,60.2729636 C33.3543956,61.117851 33.1325549,61.897747 33.1325549,62.8336222 C33.1325549,62.9766031 33.25,63.0935875 33.393544,63.0935875 C33.5370879,63.0935875 33.654533,62.9766031 33.654533,62.8336222 C33.654533,61.9757366 33.8633242,61.2478336 34.1112637,60.4159445 C34.6071429,58.7001733 35.2335165,56.5684575 34.3070055,52.110052 C34.3331044,52.0970537 34.3461538,52.0970537 34.3592033,52.0840555 C34.6854396,51.915078 35.7032967,51.6551127 38.7960165,51.7461005 L38.8090659,51.7461005 C38.8351648,52.9549393 38.8482143,54.3587522 38.8743132,55.9055459 C38.6263736,56.1655113 38.4828297,56.5294627 38.4828297,56.9194107 C38.4828297,57.322357 38.6394231,57.6863085 38.9004121,57.9592721 C38.9004121,57.9592721 38.9004121,57.9592721 38.9004121,57.9592721 C38.926511,60.2079723 38.9526099,62.6646447 38.9787088,65.1863085 C38.7960165,65.4332756 38.6785714,65.745234 38.6785714,66.0701906 C38.6785714,66.4081456 38.7960165,66.720104 38.9917582,66.9800693 C39.0048077,69.3457539 39.0178571,71.737435 39.0048077,74.0641248 C38.6524725,74.3370884 38.4306319,74.7660312 38.4306319,75.2339688 C38.4306319,75.7019064 38.6524725,76.1308492 38.9917582,76.4038128 C38.9787088,78.8604853 38.9526099,81.1741768 38.9134615,83.1889081 C38.5480769,83.4618718 38.3131868,83.9038128 38.3131868,84.3847487 C38.3131868,84.839688 38.521978,85.2556326 38.8482143,85.5285962 C38.7699176,87.8812825 38.6524725,89.610052 38.4958791,90.389948 L19.6916209,90.389948 C19.8090659,88.7781629 19.7960165,87.2183709 20.0570055,85.7105719 C21.0096154,80.1733102 22.0013736,74.6490468 23.084478,69.1377816 C24.5068681,61.9627383 26.0597527,54.8136915 27.5473901,47.6516464 C27.5604396,47.6126516 27.5604396,47.5736568 27.573489,47.5216638 C27.5865385,47.482669 27.5995879,47.4436742 27.6126374,47.4046794 C27.6126374,47.3916811 27.6126374,47.3916811 27.6256868,47.3786828 C27.6517857,47.3006932 27.6909341,47.2227036 27.7300824,47.144714 C27.7561813,47.1057192 27.7692308,47.0667244 27.7953297,47.0147314 C27.8214286,46.9757366 27.8475275,46.9367418 27.8736264,46.897747 C27.8997253,46.8587522 27.9258242,46.8197574 27.9519231,46.7807626 C27.978022,46.7417678 28.0171703,46.702773 28.0432692,46.6637782 C28.0693681,46.6247834 28.1085165,46.5857886 28.1346154,46.5467938 C28.1998626,46.4818024 28.2651099,46.4038128 28.3303571,46.3388215 C28.356456,46.312825 28.3825549,46.2868284 28.4086538,46.2608319 C28.4347527,46.2348354 28.4608516,46.2218371 28.4739011,46.1958406 C28.5,46.169844 28.5260989,46.1438475 28.5521978,46.1308492 C28.6304945,46.0528596 28.7218407,45.9878683 28.8001374,45.9228769 C28.8392857,45.8838821 28.8914835,45.8578856 28.9436813,45.8188908 C28.9828297,45.7928943 29.021978,45.7668977 29.0611264,45.7409012 C29.0741758,45.7279029 29.1002747,45.7149047 29.1133242,45.7019064 C29.1785714,45.6499133 29.2568681,45.6109185 29.3221154,45.5719237 C29.3351648,45.5589255 29.3612637,45.5459272 29.3743132,45.5459272 C29.4656593,45.4939341 29.5570055,45.4419411 29.6483516,45.4029463 C29.6744505,45.389948 29.6875,45.3769497 29.7135989,45.3769497 C29.7918956,45.3379549 29.8832418,45.2989601 29.9615385,45.2599653 C30.0006868,45.2469671 30.0528846,45.2209705 30.092033,45.2079723 C30.1181319,45.194974 30.1572802,45.1819757 30.1964286,45.1689775 C30.2616758,45.1429809 30.3269231,45.1169844 30.3921703,45.1039861 C30.4182692,45.1039861 30.4313187,45.0909879 30.4574176,45.0909879 C30.4835165,45.0779896 30.5226648,45.0779896 30.5487637,45.0649913 C30.5748626,45.0649913 30.5879121,45.0519931 30.614011,45.0519931 C30.6270604,45.0519931 30.6270604,45.0519931 30.6401099,45.0519931 C30.6662088,45.0389948 30.6923077,45.0389948 30.731456,45.0389948 C30.7445055,45 30.7575549,45 30.7836538,45 Z M32.6888736,77.1967071 C32.7019231,76.9757366 32.5453297,76.7937608 32.323489,76.7807626 C32.1016484,76.7677643 31.918956,76.9237435 31.9059066,77.144714 C31.7232143,79.627383 28.9567308,83.2538995 26.529533,84.2157712 C26.3337912,84.2937608 26.2293956,84.5277296 26.3076923,84.7227036 C26.3729396,84.8786828 26.5164835,84.9696707 26.6730769,84.9696707 C26.7252747,84.9696707 26.7644231,84.9566724 26.8166209,84.9436742 C29.5178571,83.864818 32.4800824,79.965338 32.6888736,77.1967071 Z" id="XMLID_7_" fill="#F37D12"></path>
                <path d="M26.4251374,48.3015598 C25.9292582,50.745234 25.4725275,53.1109185 24.9896978,55.4766031 C24.1936813,59.415078 23.4368132,63.3535529 22.5755495,67.2790295 C22.1318681,69.3067591 21.3228022,71.2694974 20.9443681,73.297227 C20.2657967,77.0147314 19.782967,80.7712305 19.2087912,84.5147314 C19.1565934,84.839688 19.1174451,85.1646447 19.0391484,85.6325823 C15.0851648,82.7209705 10.7657967,81.9930676 5.9635989,83.2019064 C6.22458791,81.8890815 6.45947802,80.6802426 6.70741758,79.4714038 C7.55563187,75.2859619 8.40384615,71.1005199 9.26510989,66.9280763 C9.31730769,66.6811092 9.38255495,66.4211438 9.5,66.2131716 C11.5748626,62.534662 13.6236264,58.8431542 15.7376374,55.1906412 C16.8990385,53.1759099 18.2822802,51.3171577 20.1092033,49.8353553 C21.9491758,48.3535529 23.9848901,47.7166378 26.4251374,48.3015598 Z" id="XMLID_5_" fill="#F37D12"></path>
                <path d="M14.2239011,84.2287695 C15.7245879,84.592721 17.1730769,85.0736568 18.3736264,86.1005199 C19.2740385,86.8674177 19.143544,87.5043328 18.0212912,87.9332756 C17.7864011,88.0242634 17.5384615,88.0762565 17.1991758,88.1802426 C17.1991758,87.9592721 17.1730769,87.855286 17.1991758,87.7642981 C17.668956,86.542461 16.9642857,85.8665511 16.0508242,85.3076256 C15.4505495,84.9436742 14.8241758,84.6057192 14.2239011,84.2287695 Z" id="XMLID_4_" fill="#F37D12"></path>
                <path d="M7.77747253,85.0216638 C10.7657967,84.1637782 13.5322802,84.6057192 15.9986264,86.5294627 C16.1943681,86.6854419 16.2726648,87.1013865 16.2465659,87.3873484 C16.103022,88.492201 15.8942308,89.5970537 15.698489,90.7019064 C15.6071429,91.2218371 15.7637363,91.507799 16.2596154,91.7807626 C16.768544,92.0667244 17.2513736,92.5216638 17.5645604,93.0155979 C19.4567308,95.9532062 19.1696429,101.035529 16.9903846,103.752166 C16.1813187,104.753033 15.1504121,105.402946 13.7410714,105.714905 C14.0803571,104.207106 13.7932692,102.725303 14.7458791,101.360485 C16.4031593,98.9948007 16.2987637,96.2521664 14.7197802,94.1724437 C13.1407967,92.0797227 10.3482143,91.169844 7.80357143,91.9627383 C5.32417582,92.729636 4.28021978,94.6533795 3.90178571,97.0320624 C3.5625,99.1507799 3.28846154,101.282496 2.97527473,103.401213 C2.85782967,103.401213 2.74038462,103.414211 2.62293956,103.414211 C1.87912088,102.348354 1.42239011,101.152513 1.22664835,99.8656846 C0.691620879,96.2001733 1.67032967,93.067591 4.60645604,90.6759099 C5.11538462,90.2599653 5.78090659,90.0649913 6.31593407,89.6880416 C6.60302198,89.4800693 6.90315934,89.1291161 6.94230769,88.8041594 C7.08585165,87.8292894 7.05975275,86.8284229 7.19024725,85.8405546 C7.2293956,85.5415945 7.51648352,85.0996534 7.77747253,85.0216638 Z" id="XMLID_3_" fill="#FDCE12"></path>
                <path d="M5.16758242,96.1741768 C5.76785714,93.457539 8.37774725,92.0797227 11.2355769,92.9116118 C13.7932692,93.652513 15.5549451,96.5121317 14.7067308,98.7608319 C14.4848901,96.4341421 13.5714286,94.6793761 11.3791209,93.9384749 C8.80837912,93.0805893 6.82486264,94.1334489 5.16758242,96.1741768 Z" id="XMLID_2_" fill="#FEA621"></path>
                <path d="M9.4739011,83.5788562 C8.19505495,84.059792 6.32898352,83.6568458 5.9896978,85.8535529 C5.78090659,85.5285962 5.40247253,85.1906412 5.41552198,84.8656846 C5.42857143,84.5667244 5.82005495,84.1117851 6.12019231,84.0337955 C7.2032967,83.7348354 8.3125,83.5788562 9.4217033,83.3578856 C9.4478022,83.4228769 9.46085165,83.5008666 9.4739011,83.5788562 Z" id="XMLID_1_" fill="#F37D12"></path>
            </g>
        </g>
    </g>
</svg>