<?xml version="1.0" encoding="UTF-8"?>
<svg width="578px" height="203px" viewBox="0 0 578 203" version="1.1" xmlns="http://www.w3.org/2000/svg" xmlns:xlink="http://www.w3.org/1999/xlink">
    <!-- Generator: sketchtool 49.2 (51160) - http://www.bohemiancoding.com/sketch -->
    <title>0220C040-D8BE-4DF3-AD6B-91EC0851A7BC@1x</title>
    <desc>Created with sketchtool.</desc>
    <defs></defs>
    <g id="Web" stroke="none" stroke-width="1" fill="none" fill-rule="evenodd">
        <g id="Main" transform="translate(-973.000000, -1665.000000)">
            <g id="blocks" transform="translate(973.000000, 1665.000000)">
                <g id="1" transform="translate(51.000000, 142.000000)">
                    <polygon id="Fill-1" fill="#FDCE12" points="168.64339 12 150.356359 12.0636695 125.148272 12 106.861572 12.1270003 81.6531531 12 63.366454 12.1270003 38.1580346 12 38.1580346 12.190331 19.8713356 12.190331 19.8713356 12 -0.000133310503 12 -0.000133310503 60 187.999867 60 187.999867 12"></polygon>
                    <path d="M38.3496656,12.290127 L38.3496656,12.1009582 L38.3496656,2.30349162 C38.3496656,1.25147104 37.5038105,0.398363332 36.4603225,0.398363332 L21.8604895,0.398363332 C20.8170016,0.398363332 19.9711464,1.25147104 19.9711464,2.30349162 L19.9711464,12.1009582 L19.9711464,12.290127 L38.3496656,12.290127 Z" id="Fill-2" fill="#F3C200"></path>
                    <path d="M82.0631459,12.227194 L82.0631459,12.1008574 L82.0631459,2.24055854 C82.0631459,1.18853797 81.2172908,0.335430258 80.1738028,0.335430258 L65.5739699,0.335430258 C64.5304819,0.335430258 63.6846268,1.18853797 63.6846268,2.24055854 L63.6846268,12.1008574 L63.6846268,12.227194 L82.0631459,12.227194 Z" id="Fill-4" fill="#F3C200"></path>
                    <path d="M125.776626,12.227194 L125.776626,12.1008574 L125.776626,2.24055854 C125.776626,1.18853797 124.930771,0.335430258 123.887283,0.335430258 L109.28745,0.335430258 C108.243962,0.335430258 107.398107,1.18853797 107.398107,2.24055854 L107.398107,12.1008574 L107.398107,12.227194 L125.776626,12.227194 Z" id="Fill-6" fill="#F3C200"></path>
                    <path d="M169.490107,12.1642945 L169.490107,12.1011262 L169.490107,2.17765907 C169.490107,1.12530249 168.644251,0.272530785 167.600764,0.272530785 L153.000931,0.272530785 C151.957443,0.272530785 151.111587,1.12530249 151.111587,2.17765907 L151.111587,12.1011262 L151.111587,12.1642945 L169.490107,12.1642945 Z" id="Fill-8" fill="#F3C200"></path>
                </g>
                <g id="1-copy" transform="translate(389.000000, 142.000000)">
                    <polygon id="Fill-1" fill="#FDCE12" points="169.490173 12.1010926 151.111321 12.1647621 125.77666 12.1010926 107.39814 12.2280929 82.0631459 12.1010926 63.6846268 12.2280929 38.3496323 12.1010926 38.3496323 12.2914237 19.9711131 12.2914237 19.9711131 12.1010926 -0.000133310503 12.1010926 -0.000133310503 60.1010926 188.943842 60.1010926 188.943842 12.1010926"></polygon>
                    <path d="M39.3496656,12.290127 L39.3496656,12.1009582 L39.3496656,2.30349162 C39.3496656,1.25147104 38.5038105,0.398363332 37.4603225,0.398363332 L22.8604895,0.398363332 C21.8170016,0.398363332 20.9711464,1.25147104 20.9711464,2.30349162 L20.9711464,12.1009582 L20.9711464,12.290127 L39.3496656,12.290127 Z" id="Fill-2" fill="#F3C200"></path>
                    <path d="M83.0631459,12.227194 L83.0631459,12.1008574 L83.0631459,2.24055854 C83.0631459,1.18853797 82.2172908,0.335430258 81.1738028,0.335430258 L66.5739699,0.335430258 C65.5304819,0.335430258 64.6846268,1.18853797 64.6846268,2.24055854 L64.6846268,12.1008574 L64.6846268,12.227194 L83.0631459,12.227194 Z" id="Fill-4" fill="#F3C200"></path>
                    <path d="M126.776626,12.227194 L126.776626,12.1008574 L126.776626,2.24055854 C126.776626,1.18853797 125.930771,0.335430258 124.887283,0.335430258 L110.28745,0.335430258 C109.243962,0.335430258 108.398107,1.18853797 108.398107,2.24055854 L108.398107,12.1008574 L108.398107,12.227194 L126.776626,12.227194 Z" id="Fill-6" fill="#F3C200"></path>
                    <path d="M170.490107,12.1642945 L170.490107,12.1011262 L170.490107,2.17765907 C170.490107,1.12530249 169.644251,0.272530785 168.600764,0.272530785 L154.000931,0.272530785 C152.957443,0.272530785 152.111587,1.12530249 152.111587,2.17765907 L152.111587,12.1011262 L152.111587,12.1642945 L170.490107,12.1642945 Z" id="Fill-8" fill="#F3C200"></path>
                </g>
                <g id="2" transform="translate(238.000000, 142.000000)">
                    <polygon id="Fill-10" fill="#F5E172" points="126.025342 12.0999756 107.647933 12.2269758 82.3144671 12.0999756 63.9370571 12.2269758 38.603925 12.0999756 38.603925 12.2906453 20.2261817 12.2906453 20.2261817 12.0999756 0.256473927 12.0999756 0.256473927 60.0999756 151.531101 60.0999756 151.531101 12.0999756"></polygon>
                    <path d="M38.6037583,12.0391339 L38.6037583,11.8499651 L38.6037583,2.05249852 C38.6037583,1.00047795 37.7579542,0.147370241 36.7145293,0.147370241 L22.1155774,0.147370241 C21.0721525,0.147370241 20.2263484,1.00047795 20.2263484,2.05249852 L20.2263484,11.8499651 L20.2263484,12.0391339 L38.6037583,12.0391339 Z" id="Fill-13" fill="#F6CF4E"></path>
                    <path d="M82.3146004,11.9762009 L82.3146004,11.8498643 L82.3146004,1.98956545 C82.3146004,0.937544876 81.4687963,0.0844371671 80.4253713,0.0844371671 L65.8264195,0.0844371671 C64.7829945,0.0844371671 63.9371904,0.937544876 63.9371904,1.98956545 L63.9371904,11.8498643 L63.9371904,11.9762009 L82.3146004,11.9762009 Z" id="Fill-15" fill="#F6CF4E"></path>
                    <path d="M126.025442,11.9762009 L126.025442,11.8498643 L126.025442,1.98956545 C126.025442,0.937544876 125.179638,0.0844371671 124.136213,0.0844371671 L109.537262,0.0844371671 C108.493837,0.0844371671 107.648033,0.937544876 107.648033,1.98956545 L107.648033,11.8498643 L107.648033,11.9762009 L126.025442,11.9762009 Z" id="Fill-17" fill="#F6CF4E"></path>
                </g>
                <g id="2" transform="translate(0.000000, 96.000000)">
                    <path d="M38.37741,11.8917637 L38.37741,11.7025949 L38.37741,1.90512828 C38.37741,0.853107709 37.5316059,0 36.4881809,0 L21.8892291,0 C20.8458041,0 20,0.853107709 20,1.90512828 L20,11.7025949 L20,11.8917637 L38.37741,11.8917637 Z" id="Fill-13" fill="#F6CF4E"></path>
                    <path d="M82.37741,11.8917637 L82.37741,11.7654272 L82.37741,1.90512828 C82.37741,0.853107709 81.5316059,0 80.4881809,0 L65.8892291,0 C64.8458041,0 64,0.853107709 64,1.90512828 L64,11.7654272 L64,11.8917637 L82.37741,11.8917637 Z" id="Fill-15" fill="#F6CF4E"></path>
                    <path d="M126.37741,11.8917637 L126.37741,11.7654272 L126.37741,1.90512828 C126.37741,0.853107709 125.531606,0 124.488181,0 L109.889229,0 C108.845804,0 108,0.853107709 108,1.90512828 L108,11.7654272 L108,11.8917637 L126.37741,11.8917637 Z" id="Fill-17" fill="#F6CF4E"></path>
                    <polygon id="Fill-10" fill="#F5E172" points="125.768869 11 107.391459 11.1270003 82.0579932 11 63.6805832 11.1270003 38.347451 11 38.347451 11.1906697 19.9697078 11.1906697 19.9697078 11 0 11 0 59 151.274627 59 151.274627 11"></polygon>
                </g>
                <g id="3" transform="translate(149.000000, 95.000000)">
                    <polygon id="Fill-19" fill="#F37D12" points="169.867274 12 169.867274 12.0631683 151.447842 12.0631683 151.447842 12 126.05645 12 126.05645 12.1263365 107.637018 12.1263365 107.637018 12 82.2456258 12 82.2456258 12.1263365 63.8261943 12.1263365 63.8261943 12 38.4348017 12 38.4348017 12.1891688 20.0153703 12.1891688 20.0153703 12 0 12 0 59.6221591 189.364582 59.6221591 189.364582 12"></polygon>
                    <path d="M38.7379232,12.1024366 L38.7379232,11.9132678 L38.7379232,2.1158012 C38.7379232,1.06378063 37.8901851,0.210672916 36.8443743,0.210672916 L22.2120407,0.210672916 C21.1662298,0.210672916 20.3184917,1.06378063 20.3184917,2.1158012 L20.3184917,11.9132678 L20.3184917,12.1024366 L38.7379232,12.1024366 Z" id="Fill-21" fill="#DB6902"></path>
                    <path d="M82.5487139,12.0395371 L82.5487139,11.9132006 L82.5487139,2.05290173 C82.5487139,1.00088115 81.7009758,0.147773442 80.6551649,0.147773442 L66.0228313,0.147773442 C64.9770205,0.147773442 64.1292824,1.00088115 64.1292824,2.05290173 L64.1292824,11.9132006 L64.1292824,12.0395371 L82.5487139,12.0395371 Z" id="Fill-23" fill="#DB6902"></path>
                    <path d="M126.359471,12.0395371 L126.359471,11.9132006 L126.359471,2.05290173 C126.359471,1.00088115 125.511733,0.147773442 124.465922,0.147773442 L109.833589,0.147773442 C108.787778,0.147773442 107.94004,1.00088115 107.94004,2.05290173 L107.94004,11.9132006 L107.94004,12.0395371 L126.359471,12.0395371 Z" id="Fill-25" fill="#DB6902"></path>
                    <path d="M170.170262,11.9766041 L170.170262,11.9134358 L170.170262,1.98996865 C170.170262,0.937612077 169.322524,0.0848403689 168.276713,0.0848403689 L153.644379,0.0848403689 C152.598568,0.0848403689 151.75083,0.937612077 151.75083,1.98996865 L151.75083,11.9134358 L151.75083,11.9766041 L170.170262,11.9766041 Z" id="Fill-27" fill="#DB6902"></path>
                </g>
                <g id="1" transform="translate(338.000000, 95.000000)">
                    <polygon id="Fill-1" fill="#FDCE12" points="169.490173 12.1010926 151.111321 12.1647621 125.77666 12.1010926 107.39814 12.2280929 82.0631459 12.1010926 63.6846268 12.2280929 38.3496323 12.1010926 38.3496323 12.2914237 19.9711131 12.2914237 19.9711131 12.1010926 -0.000133310503 12.1010926 -0.000133310503 60.1010926 188.943842 60.1010926 188.943842 12.1010926"></polygon>
                    <path d="M38.3496656,12.290127 L38.3496656,12.1009582 L38.3496656,2.30349162 C38.3496656,1.25147104 37.5038105,0.398363332 36.4603225,0.398363332 L21.8604895,0.398363332 C20.8170016,0.398363332 19.9711464,1.25147104 19.9711464,2.30349162 L19.9711464,12.1009582 L19.9711464,12.290127 L38.3496656,12.290127 Z" id="Fill-2" fill="#F3C200"></path>
                    <path d="M82.0631459,12.227194 L82.0631459,12.1008574 L82.0631459,2.24055854 C82.0631459,1.18853797 81.2172908,0.335430258 80.1738028,0.335430258 L65.5739699,0.335430258 C64.5304819,0.335430258 63.6846268,1.18853797 63.6846268,2.24055854 L63.6846268,12.1008574 L63.6846268,12.227194 L82.0631459,12.227194 Z" id="Fill-4" fill="#F3C200"></path>
                    <path d="M125.776626,12.227194 L125.776626,12.1008574 L125.776626,2.24055854 C125.776626,1.18853797 124.930771,0.335430258 123.887283,0.335430258 L109.28745,0.335430258 C108.243962,0.335430258 107.398107,1.18853797 107.398107,2.24055854 L107.398107,12.1008574 L107.398107,12.227194 L125.776626,12.227194 Z" id="Fill-6" fill="#F3C200"></path>
                    <path d="M169.490107,12.1642945 L169.490107,12.1011262 L169.490107,2.17765907 C169.490107,1.12530249 168.644251,0.272530785 167.600764,0.272530785 L153.000931,0.272530785 C151.957443,0.272530785 151.111587,1.12530249 151.111587,2.17765907 L151.111587,12.1011262 L151.111587,12.1642945 L169.490107,12.1642945 Z" id="Fill-8" fill="#F3C200"></path>
                </g>
                <g id="1" transform="translate(50.000000, 47.000000)">
                    <polygon id="Fill-1" fill="#FDCE12" points="169.490173 12.1010926 151.111321 12.1647621 125.77666 12.1010926 107.39814 12.2280929 82.0631459 12.1010926 63.6846268 12.2280929 38.3496323 12.1010926 38.3496323 12.2914237 19.9711131 12.2914237 19.9711131 12.1010926 -0.000133310503 12.1010926 -0.000133310503 60.1010926 188.943842 60.1010926 188.943842 12.1010926"></polygon>
                    <path d="M38.3496656,12.290127 L38.3496656,12.1009582 L38.3496656,2.30349162 C38.3496656,1.25147104 37.5038105,0.398363332 36.4603225,0.398363332 L21.8604895,0.398363332 C20.8170016,0.398363332 19.9711464,1.25147104 19.9711464,2.30349162 L19.9711464,12.1009582 L19.9711464,12.290127 L38.3496656,12.290127 Z" id="Fill-2" fill="#F3C200"></path>
                    <path d="M82.0631459,12.227194 L82.0631459,12.1008574 L82.0631459,2.24055854 C82.0631459,1.18853797 81.2172908,0.335430258 80.1738028,0.335430258 L65.5739699,0.335430258 C64.5304819,0.335430258 63.6846268,1.18853797 63.6846268,2.24055854 L63.6846268,12.1008574 L63.6846268,12.227194 L82.0631459,12.227194 Z" id="Fill-4" fill="#F3C200"></path>
                    <path d="M125.776626,12.227194 L125.776626,12.1008574 L125.776626,2.24055854 C125.776626,1.18853797 124.930771,0.335430258 123.887283,0.335430258 L109.28745,0.335430258 C108.243962,0.335430258 107.398107,1.18853797 107.398107,2.24055854 L107.398107,12.1008574 L107.398107,12.227194 L125.776626,12.227194 Z" id="Fill-6" fill="#F3C200"></path>
                    <path d="M169.490107,12.1642945 L169.490107,12.1011262 L169.490107,2.17765907 C169.490107,1.12530249 168.644251,0.272530785 167.600764,0.272530785 L153.000931,0.272530785 C151.957443,0.272530785 151.111587,1.12530249 151.111587,2.17765907 L151.111587,12.1011262 L151.111587,12.1642945 L169.490107,12.1642945 Z" id="Fill-8" fill="#F3C200"></path>
                </g>
                <g id="2" transform="translate(238.000000, 47.000000)">
                    <polygon id="Fill-10" fill="#F5E172" points="126.025342 12.0999756 107.647933 12.2269758 82.3144671 12.0999756 63.9370571 12.2269758 38.603925 12.0999756 38.603925 12.2906453 20.2261817 12.2906453 20.2261817 12.0999756 0.256473927 12.0999756 0.256473927 60.0999756 151.531101 60.0999756 151.531101 12.0999756"></polygon>
                    <path d="M38.6037583,12.0391339 L38.6037583,11.8499651 L38.6037583,2.05249852 C38.6037583,1.00047795 37.7579542,0.147370241 36.7145293,0.147370241 L22.1155774,0.147370241 C21.0721525,0.147370241 20.2263484,1.00047795 20.2263484,2.05249852 L20.2263484,11.8499651 L20.2263484,12.0391339 L38.6037583,12.0391339 Z" id="Fill-13" fill="#F6CF4E"></path>
                    <path d="M82.3146004,11.9762009 L82.3146004,11.8498643 L82.3146004,1.98956545 C82.3146004,0.937544876 81.4687963,0.0844371671 80.4253713,0.0844371671 L65.8264195,0.0844371671 C64.7829945,0.0844371671 63.9371904,0.937544876 63.9371904,1.98956545 L63.9371904,11.8498643 L63.9371904,11.9762009 L82.3146004,11.9762009 Z" id="Fill-15" fill="#F6CF4E"></path>
                    <path d="M126.025442,11.9762009 L126.025442,11.8498643 L126.025442,1.98956545 C126.025442,0.937544876 125.179638,0.0844371671 124.136213,0.0844371671 L109.537262,0.0844371671 C108.493837,0.0844371671 107.648033,0.937544876 107.648033,1.98956545 L107.648033,11.8498643 L107.648033,11.9762009 L126.025442,11.9762009 Z" id="Fill-17" fill="#F6CF4E"></path>
                </g>
                <g id="3" transform="translate(143.000000, 0.000000)">
                    <polygon id="Fill-19" fill="#F37D12" points="169.867274 12 169.867274 12.0631683 151.447842 12.0631683 151.447842 12 126.05645 12 126.05645 12.1263365 107.637018 12.1263365 107.637018 12 82.2456258 12 82.2456258 12.1263365 63.8261943 12.1263365 63.8261943 12 38.4348017 12 38.4348017 12.1891688 20.0153703 12.1891688 20.0153703 12 0 12 0 59.6221591 189.364582 59.6221591 189.364582 12"></polygon>
                    <path d="M38.7379232,12.1024366 L38.7379232,11.9132678 L38.7379232,2.1158012 C38.7379232,1.06378063 37.8901851,0.210672916 36.8443743,0.210672916 L22.2120407,0.210672916 C21.1662298,0.210672916 20.3184917,1.06378063 20.3184917,2.1158012 L20.3184917,11.9132678 L20.3184917,12.1024366 L38.7379232,12.1024366 Z" id="Fill-21" fill="#DB6902"></path>
                    <path d="M82.5487139,12.0395371 L82.5487139,11.9132006 L82.5487139,2.05290173 C82.5487139,1.00088115 81.7009758,0.147773442 80.6551649,0.147773442 L66.0228313,0.147773442 C64.9770205,0.147773442 64.1292824,1.00088115 64.1292824,2.05290173 L64.1292824,11.9132006 L64.1292824,12.0395371 L82.5487139,12.0395371 Z" id="Fill-23" fill="#DB6902"></path>
                    <path d="M126.359471,12.0395371 L126.359471,11.9132006 L126.359471,2.05290173 C126.359471,1.00088115 125.511733,0.147773442 124.465922,0.147773442 L109.833589,0.147773442 C108.787778,0.147773442 107.94004,1.00088115 107.94004,2.05290173 L107.94004,11.9132006 L107.94004,12.0395371 L126.359471,12.0395371 Z" id="Fill-25" fill="#DB6902"></path>
                    <path d="M170.170262,11.9766041 L170.170262,11.9134358 L170.170262,1.98996865 C170.170262,0.937612077 169.322524,0.0848403689 168.276713,0.0848403689 L153.644379,0.0848403689 C152.598568,0.0848403689 151.75083,0.937612077 151.75083,1.98996865 L151.75083,11.9134358 L151.75083,11.9766041 L170.170262,11.9766041 Z" id="Fill-27" fill="#DB6902"></path>
                </g>
            </g>
        </g>
    </g>
</svg>